<svg width="80" height="80" viewBox="0 0 80 80" fill="none" xmlns="http://www.w3.org/2000/svg">
<path d="M31.3375 79.9987C29.2409 79.9987 27.1456 79.1996 25.5514 77.6026L2.38786 54.3893C0.846107 52.8434 -0.00275381 50.7896 6.71184e-06 48.606C0.00276724 46.4225 0.855769 44.3714 2.40166 42.8296L37.0048 8.31619C38.813 6.51218 41.216 5.51978 43.7695 5.51978H56.1905C58.0911 5.51978 59.8813 6.2596 61.2284 7.60259L72.3865 18.7344C73.7377 20.0829 74.4817 21.8759 74.4817 23.7848V36.3673C74.4817 38.9304 73.4824 41.339 71.6674 43.1485L37.1084 77.6164C35.5155 79.2037 33.4258 79.9987 31.3375 79.9987ZM43.7681 8.2803C41.9503 8.2803 40.2402 8.98699 38.9538 10.2706L4.35059 44.7841C3.32644 45.8055 2.76191 47.1637 2.76053 48.6088C2.75915 50.0553 3.32092 51.4149 4.34231 52.4377L27.5059 75.6509C29.6135 77.7641 33.0462 77.7668 35.1594 75.6606L69.717 41.1954C71.009 39.9062 71.7198 38.1933 71.7198 36.3686V23.7862C71.7198 22.6157 71.2629 21.517 70.4348 20.6902L59.2767 9.55842C58.4513 8.73441 57.354 8.28168 56.1891 8.28168H43.7681V8.2803Z" fill="black"/>
<path d="M63.6629 17.7185C63.304 17.7185 62.9507 17.5791 62.6856 17.3141C62.2716 16.9 62.1639 16.2692 62.4165 15.7406C62.5669 15.4259 66.1542 7.98763 69.5179 4.62531C72.9189 1.22434 77.2529 -1.29739 79.2778 0.720549C81.2998 2.74401 78.774 7.0808 75.373 10.4818C72.0107 13.8441 64.5738 17.4314 64.2591 17.5832C64.0687 17.6729 63.8658 17.7185 63.6629 17.7185ZM77.2377 2.76196C76.4179 2.85857 74.168 3.87997 71.4696 6.577C69.9168 8.1298 68.2412 10.7909 66.9727 13.0256C69.2101 11.7557 71.8699 10.0801 73.4213 8.52869C76.1197 5.83166 77.1397 3.58045 77.2377 2.76196Z" fill="black"/>
<path d="M56.5906 24.788C56.2372 24.788 55.8839 24.6527 55.6147 24.3836C55.075 23.8439 55.075 22.9716 55.6147 22.4319L62.6858 15.3608C63.2255 14.8211 64.0978 14.8211 64.6375 15.3608C65.1772 15.9005 65.1772 16.7728 64.6375 17.3125L57.5664 24.3836C57.2973 24.6527 56.9439 24.788 56.5906 24.788Z" fill="black"/>
<path d="M56.5904 28.933C53.5455 28.933 51.0693 26.4568 51.0693 23.4119C51.0693 20.3671 53.5455 17.8909 56.5904 17.8909C59.6352 17.8909 62.1114 20.3671 62.1114 23.4119C62.1114 26.4568 59.6352 28.933 56.5904 28.933ZM56.5904 20.6514C55.068 20.6514 53.8299 21.8895 53.8299 23.4119C53.8299 24.9343 55.068 26.1724 56.5904 26.1724C58.1128 26.1724 59.3509 24.9343 59.3509 23.4119C59.3509 21.8895 58.1128 20.6514 56.5904 20.6514Z" fill="black"/>
<path d="M32.4234 61.8095C30.4054 61.8095 28.4179 61.0628 26.9148 59.5583L16.9106 49.5542C16.3709 49.0145 16.3709 48.1422 16.9106 47.6025C17.4489 47.0628 18.324 47.0628 18.8623 47.6025L28.8665 57.6066C30.8844 59.6246 34.2771 59.5155 36.4303 57.3623C38.5835 55.2091 38.6925 51.8164 36.6746 49.7985L30.3309 43.4548C27.2364 40.3603 27.3454 35.216 30.5752 31.9876C32.1087 30.4528 34.128 29.5666 36.2605 29.4907C38.4648 29.4176 40.5131 30.2126 42.0424 31.7433L52.0466 41.7474C52.5863 42.2871 52.5863 43.1594 52.0466 43.6991C51.5069 44.2388 50.6346 44.2388 50.0949 43.6991L40.0907 33.695C39.108 32.7136 37.7912 32.2002 36.3571 32.2499C34.9258 32.3009 33.5649 32.9013 32.5269 33.9393C30.3751 36.0925 30.2647 39.4852 32.2826 41.5031L38.6263 47.8468C41.7208 50.9414 41.6118 56.0856 38.382 59.3154C36.7215 60.9745 34.5559 61.8095 32.4234 61.8095Z" fill="black"/>
<path d="M19.4509 62.0595C19.0976 62.0595 18.7442 61.9242 18.4751 61.6551C17.9354 61.1154 17.9354 60.2431 18.4751 59.7034L48.8408 29.3376C49.3805 28.7979 50.2528 28.7979 50.7925 29.3376C51.3322 29.8773 51.3322 30.7496 50.7925 31.2893L20.4268 61.6551C20.1576 61.9242 19.8043 62.0595 19.4509 62.0595Z" fill="black"/>
</svg>
