<svg width="80" height="80" viewBox="0 0 80 80" fill="none" xmlns="http://www.w3.org/2000/svg">
<path d="M76 64.4001C68.0422 60.1801 61.9381 57.8138 56.5044 56.9067L57.0667 56.1335C57.3334 55.8668 57.4667 55.4668 57.3334 55.0668L56.073 50.0251C59.3234 45.3604 61.1898 39.5388 61.0667 34.0001V26.0688C61.1572 26.0037 61.2463 25.9365 61.3334 25.8668C63.0667 24.4001 64.0002 22.2668 64.0002 20.1335C64.0002 10.1335 55.8669 2.00024 46.0002 2.00024H34.1334C24.1334 2.00024 16.0002 10.1335 15.8667 20.0002C15.8667 22.267 16.8 24.267 18.5334 25.7335C18.577 25.7671 18.6225 25.7984 18.6667 25.831V34.0001C18.6667 39.556 20.6114 45.3968 23.9162 50.0687L22.6667 55.0667C22.6667 55.3334 22.6667 55.7334 22.9334 56.1334L23.4958 56.9065C18.062 57.8138 11.9578 60.1799 4.00016 64.3999C1.46672 65.6001 0 68.1334 0 70.9334V76.6666C0 77.4667 0.533281 77.9999 1.33328 77.9999H78.6666C79.4666 77.9999 79.9998 77.4667 79.9998 76.6666V70.9334C80 68.2668 78.4 65.7334 76 64.4001ZM54 52.6668L54.5333 55.0668L53.1712 56.937C53.0844 57.0081 53.0039 57.0942 52.9333 57.2001L45.6 67.3334L42.0048 59.2112C45.8836 58.7446 49.3858 56.9473 52.2989 54.326C52.8839 53.8102 53.452 53.257 54 52.6668ZM59.6 23.7334C59.565 23.764 59.5284 23.7924 59.4927 23.822C59.3428 23.8568 59.1973 23.9129 59.0667 24.0001C58.4898 24.4327 57.8739 24.7079 57.2403 24.8287C56.7378 24.9057 56.2266 24.8988 55.7334 24.8001C46.1705 22.9843 36.4977 22.8173 27.2137 24.2985C26.1834 24.4474 25.1564 24.614 24.1334 24.8001C23.9692 24.8184 23.805 24.8284 23.6411 24.8316C22.5692 24.8124 21.5305 24.5146 20.6667 23.8668C19.8667 23.3335 19.3334 22.5335 19.0667 21.7335L24.8 20.6668C34.8 18.8001 45.0667 18.8001 55.3333 20.6668L61.0219 21.7251C60.7267 22.4799 60.235 23.1777 59.6 23.7334ZM34 4.66681H45.8667C54.0453 4.66681 60.753 11.0359 61.2967 19.0782L55.7334 18.1335C45.2002 16.2668 34.5334 16.2668 24.2667 18.1335L18.7034 19.0782C19.2467 11.0359 25.9492 4.66681 34 4.66681ZM21.3333 27.2001C22.4 27.4668 23.6 27.6001 24.8 27.3334C29.7783 26.4042 34.8225 25.9377 39.9 25.9337C44.9781 25.9377 50.0891 26.404 55.2 27.3334C55.5642 27.4245 55.8658 27.4527 56.1481 27.462C56.9875 27.5256 57.8647 27.4006 58.6666 27.2001V34.0001C58.6666 39.814 56.6722 44.9804 53.6777 48.9074L53.5998 48.9334C53.4666 49.0667 53.3331 49.2001 53.1998 49.3334C52.5291 50.2277 51.8211 51.0432 51.0814 51.7785C47.7708 54.8629 43.7869 56.6666 40 56.6666H39.9998C39.8612 56.6666 39.723 56.6638 39.5847 56.6595C37.3319 56.582 35.0211 55.8763 32.8334 54.6537C30.6623 53.4065 28.62 51.6084 26.8 49.3332C26.6667 49.1999 26.5333 49.0665 26.4 48.9332L26.3222 48.9073C23.3278 44.9801 21.3333 39.8137 21.3333 33.9999V27.2001ZM37.9952 59.2112L34.4 67.3334L27.0667 57.2001C27.0242 57.1576 26.9773 57.1156 26.9286 57.0742L25.4667 55.0667L26 52.6667C26.1803 52.8609 26.3633 53.0501 26.5478 53.2363C29.6848 56.4452 33.5992 58.6826 37.9952 59.2112ZM77.3333 75.3334H46.6667H2.66672V70.9334C2.66672 69.2001 3.6 67.6001 5.2 66.8001C13.6989 62.2851 19.8169 60.019 25.2669 59.3421L33.6 70.8001C33.8094 71.1143 34.1023 71.2624 34.4762 71.3121C34.5394 71.3246 34.603 71.3334 34.6666 71.3334C34.6666 71.3334 34.7998 71.3334 34.7998 71.4667C35.1998 71.4667 35.7331 71.0667 35.8666 70.6666L40.0073 61.3498L41.7716 65.2196L44.1333 70.5334C44.2666 70.9334 44.6666 71.3334 45.2 71.3334H45.3333C45.7333 71.3334 46.1333 71.0667 46.4 70.8001L54.8192 59.2235C60.25 60.0431 66.4778 62.3074 74.8 66.6666C76.4 67.5999 77.3333 69.1999 77.3333 70.9334V75.3334Z" fill="black"/>
<path d="M37.3333 15.3333H42.6666C43.4666 15.3333 43.9998 14.8 43.9998 14V7.33328C43.9998 6.53328 43.4666 6 42.6666 6H37.3333C36.5333 6 36 6.53328 36 7.33328V14C36 14.8 36.5333 15.3333 37.3333 15.3333ZM38.6667 8.66672H41.3334V12.6667H38.6667V8.66672Z" fill="black"/>
</svg>
