<svg width="80" height="80" viewBox="0 0 80 80" fill="none" xmlns="http://www.w3.org/2000/svg">
<g clip-path="url(#clip0)">
<path d="M79.4002 34.8891C79.4002 31.0368 76.0884 27.9005 72.0182 27.8977L48.5476 27.8734L48.9979 11.6086C48.9979 11.5878 48.9979 11.5663 48.9979 11.5455C48.9028 5.92657 44.7008 1.22842 39.1277 0.508889L35.9672 0.016941C35.5758 -0.0434251 35.1769 0.0613482 34.866 0.307669C34.5552 0.553991 34.3616 0.918962 34.3317 1.31377L33.0196 18.5264C32.858 20.6385 32.1294 22.6681 30.9117 24.402C30.1373 25.5226 29.1659 26.494 28.0446 27.2684C27.5825 27.5827 27.0365 27.9206 26.4946 28.2793C23.989 29.9342 20.8493 31.9936 18.5401 34.3513V29.4416C18.5401 28.6568 17.9705 27.9546 17.1857 27.9546H2.08725C1.27682 27.9803 0.625976 28.6311 0.599609 29.4416V78.6447C0.599609 79.4295 1.30249 79.9999 2.08725 79.9999H17.1857C17.5486 80.0117 17.9004 79.8736 18.1571 79.6161C18.4145 79.3594 18.5526 79.0076 18.5401 78.6447V75.5626C28.1321 75.5709 39.6217 75.58 49.596 75.58C55.8637 75.58 61.5547 75.5765 65.6541 75.5668C69.7159 75.5578 73.0722 72.4215 73.0722 68.5761V68.4512C73.0548 66.7478 72.3963 65.113 71.2286 63.8724C74.0484 62.8864 76.0474 60.315 76.0474 57.2981C76.0211 55.4343 75.2342 53.6622 73.8694 52.3932C76.2695 51.2379 77.8681 48.8767 77.8681 46.1581V46.0277C77.8737 44.0973 77.0549 42.2572 75.6172 40.9694C77.8508 39.7655 79.4002 37.4911 79.4002 34.8891ZM15.6981 77.1578H3.44167V30.7967H15.6981V77.1578ZM72.0126 38.9676H70.8046C70.7311 38.9718 70.6575 38.9829 70.586 39.0002V38.9822C70.5451 38.9752 70.5035 38.9704 70.4625 38.9676H60.7165C59.9318 38.9676 59.2955 39.6039 59.2955 40.3886C59.2955 41.1734 59.9318 41.8097 60.7165 41.8097H70.756C73.1735 41.9873 75.0261 43.799 75.0261 46.0277V46.1581C75.0261 48.4465 73.0694 50.3358 70.5631 50.3358H61.6463C60.8616 50.3358 60.2253 50.9714 60.2253 51.7569C60.2253 52.5416 60.8616 53.1779 61.6463 53.1779H68.6425C71.1495 53.1779 73.188 55.0576 73.188 57.3584C73.188 59.6461 71.1495 61.5265 68.6425 61.5265H62.0418C61.2571 61.5265 60.6208 62.162 60.6208 62.9475C60.6208 63.7323 61.2571 64.3685 62.0418 64.3685H65.6159C68.1228 64.3685 70.2301 66.1642 70.2301 68.4519V68.5768C70.2301 70.8589 68.1298 72.7199 65.6298 72.7261C55.0109 72.7504 33.9938 72.7351 18.5401 72.7212V39.1147C19.9611 35.9909 24.6399 32.9102 28.0613 30.6496C28.6122 30.286 29.1472 29.9425 29.6246 29.6178C31.0324 28.652 32.2536 27.4384 33.2285 26.0361C34.7418 23.8844 35.6466 21.3643 35.8485 18.7415L37.0468 3.0623L38.7079 3.32042C38.7204 3.3232 38.7343 3.32458 38.7475 3.32666C42.9079 3.87412 46.0511 7.36911 46.1558 11.5642L45.666 29.2542C45.6549 29.6372 45.7999 30.0085 46.067 30.2839C46.3342 30.5587 46.7012 30.7141 47.0849 30.7141L72.0161 30.7412C74.5202 30.7426 76.5581 32.5674 76.5581 34.8551C76.5581 37.1427 74.5189 38.9676 72.0126 38.9676Z" fill="black"/>
</g>
<defs>
<clipPath id="clip0">
<rect width="80" height="80" fill="white"/>
</clipPath>
</defs>
</svg>
