<svg width="68" height="88" viewBox="0 0 68 88" fill="none" xmlns="http://www.w3.org/2000/svg">
<path d="M65.5 65.457V55.125C65.5 54.2299 65.1444 53.3714 64.5115 52.7385C63.8785 52.1056 63.0201 51.75 62.125 51.75V25.875C62.1232 24.3837 61.53 22.954 60.4755 21.8995C59.421 20.845 57.9913 20.2518 56.5 20.25H38.5C37.6235 20.2525 36.7598 20.4605 35.9783 20.8573C35.1967 21.2541 34.5192 21.8287 34 22.5349C33.4808 21.8287 32.8033 21.2541 32.0217 20.8573C31.2402 20.4605 30.3765 20.2525 29.5 20.25H11.5C10.0087 20.2518 8.579 20.845 7.5245 21.8995C6.46999 22.954 5.87679 24.3837 5.875 25.875V51.75C4.97989 51.75 4.12145 52.1056 3.48851 52.7385C2.85558 53.3714 2.5 54.2299 2.5 55.125V65.457C1.84423 65.6888 1.2761 66.1176 0.873349 66.6847C0.470594 67.2518 0.252883 67.9295 0.25 68.625V73.125C0.25 74.0201 0.605579 74.8785 1.23851 75.5115C1.87145 76.1444 2.72989 76.5 3.625 76.5H12.625V81C12.4159 80.9999 12.211 81.0581 12.0331 81.1679C11.8553 81.2778 11.7116 81.4351 11.6181 81.6221L9.36812 86.1221C9.2824 86.2937 9.24195 86.4843 9.25063 86.6759C9.25931 86.8675 9.31682 87.0537 9.4177 87.2168C9.51859 87.3799 9.6595 87.5145 9.82704 87.6078C9.99459 87.7011 10.1832 87.7501 10.375 87.75H30.625C30.8168 87.7501 31.0054 87.7011 31.173 87.6078C31.3405 87.5145 31.4814 87.3799 31.5823 87.2168C31.6832 87.0537 31.7407 86.8675 31.7494 86.6759C31.758 86.4843 31.7176 86.2937 31.6319 86.1221L29.3819 81.6221C29.2884 81.4351 29.1447 81.2778 28.9669 81.1679C28.789 81.0581 28.5841 80.9999 28.375 81V76.5H40.75V81C40.54 80.9989 40.3338 81.0565 40.1549 81.1665C39.976 81.2764 39.8314 81.4343 39.7375 81.6221L37.4875 86.1221C37.4016 86.2941 37.3611 86.4853 37.3701 86.6773C37.379 86.8694 37.437 87.0559 37.5386 87.2192C37.6401 87.3824 37.7818 87.517 37.9501 87.6099C38.1184 87.7028 38.3077 87.7511 38.5 87.75H58.75C58.9423 87.7511 59.1316 87.7028 59.2999 87.6099C59.4682 87.517 59.6099 87.3824 59.7114 87.2192C59.813 87.0559 59.871 86.8694 59.8799 86.6773C59.8889 86.4853 59.8484 86.2941 59.7625 86.1221L57.5125 81.6221C57.4186 81.4343 57.274 81.2764 57.0951 81.1665C56.9162 81.0565 56.71 80.9989 56.5 81V76.5H64.375C65.2701 76.5 66.1285 76.1444 66.7615 75.5115C67.3944 74.8785 67.75 74.0201 67.75 73.125V68.625C67.7471 67.9295 67.5294 67.2518 67.1266 66.6847C66.7239 66.1176 66.1558 65.6888 65.5 65.457ZM63.25 55.125V65.25H58.75V55.125C58.75 54.8266 58.8685 54.5405 59.0795 54.3295C59.2905 54.1185 59.5766 54 59.875 54H62.125C62.4234 54 62.7095 54.1185 62.9205 54.3295C63.1315 54.5405 63.25 54.8266 63.25 55.125ZM38.5 65.25V58.5H56.5V65.25H38.5ZM11.5 65.25V58.5H29.5V65.25H11.5ZM35.125 54C35.4234 54 35.7095 54.1185 35.9205 54.3295C36.1315 54.5405 36.25 54.8266 36.25 55.125V65.25H31.75V55.125C31.75 54.8266 31.8685 54.5405 32.0795 54.3295C32.2905 54.1185 32.5766 54 32.875 54H35.125ZM38.5 22.5H56.5C57.3951 22.5 58.2535 22.8556 58.8865 23.4885C59.5194 24.1214 59.875 24.9799 59.875 25.875V51.75C58.9799 51.75 58.1215 52.1056 57.4885 52.7385C56.8556 53.3714 56.5 54.2299 56.5 55.125V56.25H38.5V55.125C38.5 54.2299 38.1444 53.3714 37.5115 52.7385C36.8785 52.1056 36.0201 51.75 35.125 51.75V25.875C35.125 24.9799 35.4806 24.1214 36.1135 23.4885C36.7465 22.8556 37.6049 22.5 38.5 22.5ZM8.125 25.875C8.125 24.9799 8.48058 24.1214 9.11351 23.4885C9.74645 22.8556 10.6049 22.5 11.5 22.5H29.5C30.3951 22.5 31.2536 22.8556 31.8865 23.4885C32.5194 24.1214 32.875 24.9799 32.875 25.875V51.75C31.9799 51.75 31.1214 52.1056 30.4885 52.7385C29.8556 53.3714 29.5 54.2299 29.5 55.125V56.25H11.5V55.125C11.5 54.2299 11.1444 53.3714 10.5115 52.7385C9.87855 52.1056 9.02011 51.75 8.125 51.75V25.875ZM4.75 55.125C4.75 54.8266 4.86853 54.5405 5.0795 54.3295C5.29048 54.1185 5.57663 54 5.875 54H8.125C8.42337 54 8.70952 54.1185 8.9205 54.3295C9.13147 54.5405 9.25 54.8266 9.25 55.125V65.25H4.75V55.125ZM28.8048 85.5H12.1952L13.3202 83.25H27.6798L28.8048 85.5ZM26.125 81H14.875V76.5H26.125V81ZM56.9297 85.5H40.3203L41.4453 83.25H55.8047L56.9297 85.5ZM54.25 81H43V76.5H54.25V81ZM65.5 73.125C65.5 73.4234 65.3815 73.7095 65.1705 73.9205C64.9595 74.1315 64.6734 74.25 64.375 74.25H3.625C3.32663 74.25 3.04048 74.1315 2.8295 73.9205C2.61853 73.7095 2.5 73.4234 2.5 73.125V68.625C2.5 68.3266 2.61853 68.0405 2.8295 67.8295C3.04048 67.6185 3.32663 67.5 3.625 67.5H64.375C64.6734 67.5 64.9595 67.6185 65.1705 67.8295C65.3815 68.0405 65.5 68.3266 65.5 68.625V73.125Z" fill="black"/>
<path d="M42.0958 2.09677C41.52 1.90597 40.8871 2.12388 40.5571 2.62721L38.0631 6.4317L36.2705 0.909931C36.0937 0.365673 35.5858 0 35.0062 0C34.4267 0.000531468 33.9188 0.366205 33.742 0.909931L31.9494 6.43117L29.4424 2.60755C29.1141 2.1074 28.4844 1.88843 27.9102 2.07551C27.3366 2.26313 26.9635 2.80899 27.0028 3.40799L27.5528 11.2147C27.6234 12.216 28.4763 13 29.4942 13H40.4941C41.5109 13 42.3638 12.2171 42.4355 11.2173L42.9962 3.43563C43.042 2.83875 42.6716 2.28811 42.0958 2.09677ZM40.3776 10.958H29.6117L29.2693 6.10589L31.0636 8.84206C31.345 9.27152 31.8394 9.49687 32.3532 9.42884C32.8675 9.36187 33.2848 9.01746 33.4428 8.5306L35.0062 3.71467L36.5697 8.5306C36.7277 9.01746 37.1455 9.36187 37.6593 9.42884C38.1731 9.49634 38.6675 9.27152 38.9489 8.84206L40.7254 6.133L40.3776 10.958Z" fill="black"/>
</svg>
