<svg width="90" height="90" viewBox="0 0 90 90" fill="none" xmlns="http://www.w3.org/2000/svg">
<path d="M78.7373 40.7489L81.5498 40.8135C81.5583 40.4479 81.5625 40.0809 81.5625 39.7125V15.4687C81.5625 15.0957 81.4143 14.7381 81.1506 14.4743C80.8869 14.2106 80.5292 14.0625 80.1562 14.0625C68.512 14.0702 57.127 10.6245 47.4412 4.16105L45.7833 3.05011C45.5516 2.89473 45.279 2.81177 45 2.81177C44.721 2.81177 44.4484 2.89473 44.2167 3.05011L42.563 4.15964C37.7403 7.36704 32.4738 9.8506 26.9311 11.5312C21.39 13.2073 15.6328 14.0601 9.84375 14.0625C9.47079 14.0625 9.1131 14.2106 8.84938 14.4743C8.58566 14.7381 8.4375 15.0957 8.4375 15.4687V40.7812H11.25V16.8581C16.842 16.7301 22.391 15.8451 27.7453 14.227C33.5538 12.4639 39.0721 9.858 44.1239 6.49261L45 5.9062L45.8803 6.49542C55.6286 13.0049 67.031 16.5996 78.75 16.8581V39.7125C78.75 40.0584 78.75 40.4029 78.7373 40.7489Z" fill="black"/>
<path d="M56.4623 77.7487L45 84.1696L33.5391 77.7487C29.5691 75.525 25.9719 72.6932 22.8783 69.3562L20.8125 71.2687C24.1055 74.8207 27.9347 77.8348 32.1609 80.2012L44.3109 87.0075C44.5204 87.1255 44.7568 87.1875 44.9972 87.1875C45.2376 87.1875 45.474 87.1255 45.6834 87.0075L57.8334 80.2012C61.7737 77.9974 65.3701 75.2287 68.5083 71.9831L66.4889 70.0312C63.5417 73.0797 60.1636 75.6798 56.4623 77.7487Z" fill="black"/>
<path d="M25.7129 68.2537C28.427 71.0305 31.5274 73.4014 34.9182 75.2934L44.312 80.5668C44.522 80.6846 44.7588 80.7464 44.9996 80.7464C45.2404 80.7464 45.4772 80.6846 45.6873 80.5668L55.0796 75.2948C57.8765 73.7327 60.4784 71.8445 62.8309 69.6698L60.9184 67.6068C58.7289 69.6313 56.3074 71.3891 53.7043 72.8437L44.9996 77.7276L36.2921 72.8437C33.1362 71.0826 30.2504 68.8761 27.7238 66.292L25.7129 68.2537Z" fill="black"/>
<path d="M73.1095 40.7433L75.922 40.8192C75.9324 40.4508 75.9375 40.0819 75.9375 39.7125V20.8547C75.9388 20.5013 75.8069 20.1604 75.5682 19.8999C75.3295 19.6393 75.0015 19.4781 74.6494 19.4485C64.3819 18.5673 54.4734 15.2469 45.7481 9.76361C45.524 9.6228 45.2647 9.5481 45 9.5481C44.7353 9.5481 44.476 9.6228 44.2519 9.76361C35.5271 15.2489 25.6186 18.5712 15.3506 19.4541C14.9985 19.4838 14.6705 19.6449 14.4318 19.9055C14.1931 20.1661 14.0613 20.507 14.0625 20.8603V39.7125C14.0625 40.0828 14.0677 40.4517 14.078 40.8192L16.8905 40.7433C16.8802 40.4002 16.875 40.0566 16.875 39.7125V22.1344C26.8402 21.0839 36.4471 17.8305 45 12.6099C53.5529 17.8305 63.1598 21.0839 73.125 22.1344V39.7125C73.125 40.0575 73.1199 40.4011 73.1095 40.7433Z" fill="black"/>
<path d="M80.1562 43.5938H72.3952L67.8952 37.9688L67.5 37.4752L63.2545 32.1694C62.5973 31.3445 61.7622 30.6788 60.8115 30.2219C59.8608 29.7651 58.8192 29.529 57.7645 29.5313H33.6417C32.588 29.5302 31.5476 29.7668 30.598 30.2236C29.6485 30.6803 28.8142 31.3455 28.1573 32.1694L19.0111 43.5938H9.84375C7.97963 43.596 6.1925 44.3375 4.87437 45.6556C3.55624 46.9738 2.81473 48.7609 2.8125 50.625V61.875C2.8125 62.248 2.96066 62.6057 3.22438 62.8694C3.4881 63.1331 3.84579 63.2813 4.21875 63.2813H8.92969C9.50882 64.9261 10.5841 66.3506 12.0073 67.3583C13.4304 68.366 15.1312 68.9072 16.875 68.9072C18.6188 68.9072 20.3196 68.366 21.7427 67.3583C23.1659 66.3506 24.2412 64.9261 24.8203 63.2813H62.3672C62.9463 64.9261 64.0216 66.3506 65.4448 67.3583C66.8679 68.366 68.5687 68.9072 70.3125 68.9072C72.0563 68.9072 73.7571 68.366 75.1802 67.3583C76.6034 66.3506 77.6787 64.9261 78.2578 63.2813H85.7812C86.1542 63.2813 86.5119 63.1331 86.7756 62.8694C87.0393 62.6057 87.1875 62.248 87.1875 61.875V50.625C87.1853 48.7609 86.4438 46.9738 85.1256 45.6556C83.8075 44.3375 82.0204 43.596 80.1562 43.5938ZM46.4062 32.3438H57.7645C58.3976 32.3422 59.0228 32.4838 59.5934 32.758C60.164 33.0322 60.6651 33.4319 61.0594 33.9272L68.7937 43.5938H46.4062V32.3438ZM16.875 66.0938C15.7625 66.0938 14.6749 65.7639 13.7499 65.1458C12.8249 64.5277 12.1039 63.6492 11.6782 62.6214C11.2524 61.5935 11.141 60.4625 11.3581 59.3714C11.5751 58.2802 12.1109 57.278 12.8975 56.4913C13.6842 55.7046 14.6865 55.1689 15.7776 54.9518C16.8688 54.7348 17.9998 54.8462 19.0276 55.2719C20.0554 55.6977 20.9339 56.4187 21.552 57.3437C22.1701 58.2687 22.5 59.3562 22.5 60.4688C22.5 61.9606 21.9074 63.3913 20.8525 64.4462C19.7976 65.5011 18.3668 66.0938 16.875 66.0938ZM43.5938 60.4688H25.3125C25.3125 58.231 24.4236 56.0849 22.8412 54.5026C21.2589 52.9202 19.1128 52.0313 16.875 52.0313C14.6372 52.0313 12.4911 52.9202 10.9088 54.5026C9.32645 56.0849 8.4375 58.231 8.4375 60.4688H5.625V50.625C5.625 49.5061 6.06947 48.4331 6.86064 47.6419C7.65181 46.8507 8.72487 46.4063 9.84375 46.4063H43.5938V60.4688ZM43.5938 43.5938H22.6125L30.3469 33.9272C30.7413 33.4321 31.2425 33.0326 31.8131 32.7584C32.3836 32.4842 33.0087 32.3425 33.6417 32.3438H43.5938V43.5938ZM70.3125 66.0938C69.2 66.0938 68.1124 65.7639 67.1874 65.1458C66.2624 64.5277 65.5414 63.6492 65.1157 62.6214C64.6899 61.5935 64.5785 60.4625 64.7956 59.3714C65.0126 58.2802 65.5484 57.278 66.335 56.4913C67.1217 55.7046 68.124 55.1689 69.2151 54.9518C70.3063 54.7348 71.4373 54.8462 72.4651 55.2719C73.4929 55.6977 74.3714 56.4187 74.9895 57.3437C75.6076 58.2687 75.9375 59.3562 75.9375 60.4688C75.9375 61.9606 75.3449 63.3913 74.29 64.4462C73.2351 65.5011 71.8043 66.0938 70.3125 66.0938ZM84.375 60.4688H78.75C78.75 58.231 77.8611 56.0849 76.2787 54.5026C74.6964 52.9202 72.5503 52.0313 70.3125 52.0313C68.0747 52.0313 65.9286 52.9202 64.3463 54.5026C62.764 56.0849 61.875 58.231 61.875 60.4688H46.4062V46.4063H80.1562C81.2751 46.4063 82.3482 46.8507 83.1394 47.6419C83.9305 48.4331 84.375 49.5061 84.375 50.625V60.4688Z" fill="black"/>
<path d="M16.875 63.2812C18.4283 63.2812 19.6875 62.0221 19.6875 60.4688C19.6875 58.9154 18.4283 57.6562 16.875 57.6562C15.3217 57.6562 14.0625 58.9154 14.0625 60.4688C14.0625 62.0221 15.3217 63.2812 16.875 63.2812Z" fill="black"/>
<path d="M70.3125 63.2812C71.8658 63.2812 73.125 62.0221 73.125 60.4688C73.125 58.9154 71.8658 57.6562 70.3125 57.6562C68.7592 57.6562 67.5 58.9154 67.5 60.4688C67.5 62.0221 68.7592 63.2812 70.3125 63.2812Z" fill="black"/>
<path d="M40.7812 49.2188H35.1562V52.0312H40.7812V49.2188Z" fill="black"/>
<path d="M63.2812 49.2188H57.6562V52.0312H63.2812V49.2188Z" fill="black"/>
</svg>
