<svg width="20" height="20" viewBox="0 0 20 20" fill="none" xmlns="http://www.w3.org/2000/svg">
<path d="M19.8628 6.35703L15.6961 2.60703C15.5261 2.4532 15.2624 2.46664 15.107 2.63797C14.9531 2.80887 14.967 3.07254 15.1379 3.22637L18.4981 6.25H7.08367C6.85336 6.25 6.66699 6.43637 6.66699 6.66668C6.66699 6.89699 6.85336 7.08336 7.08367 7.08336H18.498L15.1379 10.107C14.967 10.2609 14.9531 10.5245 15.1069 10.6954C15.1899 10.787 15.303 10.8334 15.417 10.8334C15.5163 10.8334 15.6164 10.798 15.6961 10.7263L19.8628 6.97633C19.9499 6.89738 20.0004 6.78469 20.0004 6.66668C20.0004 6.54867 19.9499 6.43598 19.8628 6.35703Z" fill="#009309"/>
<path d="M12.9167 12.9165H1.50227L4.86246 9.89284C5.03336 9.73901 5.04719 9.47534 4.8934 9.30444C4.73797 9.13316 4.47512 9.11972 4.30422 9.27351L0.137539 13.0235C0.0504687 13.1025 0 13.2152 0 13.3332C0 13.4511 0.0504687 13.5639 0.137539 13.6428L4.30422 17.3928C4.38398 17.4644 4.48406 17.4998 4.58336 17.4998C4.6973 17.4998 4.81043 17.4534 4.89344 17.3619C5.04727 17.191 5.0334 16.9273 4.8625 16.7735L1.50227 13.7498H12.9166C13.147 13.7498 13.3333 13.5635 13.3333 13.3332C13.3333 13.1028 13.147 12.9165 12.9167 12.9165Z" fill="#009309"/>
</svg>
