<svg width="26" height="13" viewBox="0 0 26 13" fill="none" xmlns="http://www.w3.org/2000/svg">
<path d="M25.7021 5.59339C25.7018 5.59308 25.7015 5.59273 25.7012 5.59242L20.3944 0.296565C19.9968 -0.100166 19.3537 -0.0986899 18.958 0.300027C18.5623 0.698693 18.5638 1.34351 18.9614 1.7403L22.5244 5.29585H1.01562C0.454695 5.29585 0 5.75181 0 6.31429C0 6.87677 0.454695 7.33272 1.01562 7.33272H22.5244L18.9615 10.8883C18.5639 11.2851 18.5624 11.9299 18.9581 12.3285C19.3538 12.7273 19.9969 12.7287 20.3944 12.332L25.7012 7.03615C25.7015 7.03585 25.7018 7.03549 25.7022 7.03519C26.0999 6.63708 26.0987 5.99017 25.7021 5.59339Z" fill="white"/>
</svg>
