<svg width="80" height="80" viewBox="0 0 80 80" fill="none" xmlns="http://www.w3.org/2000/svg">
<g clip-path="url(#clip0)">
<path d="M15.4521 41.011L64.5357 41.0578C71.3575 41.0578 76.8875 46.5878 76.8875 53.4096C76.8875 60.2314 71.3575 65.7614 64.5357 65.7614H33.6716C33.1003 58.4917 26.744 53.0615 19.4741 53.6327C12.2045 54.204 6.7743 60.5603 7.34545 67.8301C7.91677 75.0998 14.2731 80.53 21.5429 79.9588C28.0188 79.4499 33.1627 74.3062 33.6716 67.8301H64.5357C72.5 67.8305 78.9564 61.3744 78.9568 53.4101C78.9571 45.4459 72.501 38.9894 64.5368 38.9891L15.4531 38.9422C8.63136 38.9422 3.10137 33.4122 3.10137 26.5904C3.10137 19.7687 8.63136 14.2387 15.4531 14.2387H35.7721C36.3434 21.5083 42.6997 26.9385 49.9695 26.3673C57.2393 25.7962 62.6693 19.4397 62.0982 12.1699C61.5269 4.90025 55.1706 -0.529925 47.9007 0.0412278C41.4248 0.550145 36.281 5.6938 35.7721 12.1699H15.4531C7.48888 12.1759 1.03743 18.637 1.04346 26.6013C1.04932 34.5566 7.49664 41.0044 15.4521 41.011ZM20.5123 77.9306C14.3627 77.9306 9.3775 72.9453 9.3775 66.7958C9.3775 60.6462 14.3627 55.6609 20.5123 55.6609C26.6619 55.6609 31.6471 60.6462 31.6471 66.7958C31.6402 72.9424 26.659 77.9237 20.5123 77.9306ZM48.9312 2.06948C55.0808 2.06828 60.0668 7.05263 60.068 13.2022C60.0692 19.3518 55.0849 24.3379 48.9353 24.3391C42.8248 24.3403 37.8551 19.417 37.7988 13.3069C37.8057 13.2386 37.8057 13.17 37.7988 13.1017C37.8614 6.99574 42.825 2.07672 48.9312 2.06948Z" fill="black"/>
<path d="M44.7627 20.9137C45.3302 20.9137 45.5369 20.6333 45.6111 20.3965L46.4412 17.5212H51.4212L52.2518 20.3985C52.3573 20.7359 52.6432 20.9142 53.0793 20.9142C53.7603 20.9142 54.5516 20.4789 54.5516 19.9177C54.5482 19.8453 54.533 19.7739 54.5064 19.7064L50.4094 6.29866C50.2117 5.70544 49.484 5.49512 48.9209 5.49512C48.1919 5.49512 47.6157 5.81043 47.4525 6.30056L43.3363 19.7038C43.3163 19.7731 43.3078 19.8451 43.3113 19.9172C43.3113 20.5346 44.1567 20.9137 44.7627 20.9137ZM46.9672 15.5902L48.9209 8.88893L50.8747 15.5902H46.9672Z" fill="black"/>
<path d="M23.0261 66.2105C23.9743 65.6974 24.5142 64.5934 24.5142 63.1452C24.5142 60.8796 23.233 59.7783 20.5973 59.7783H17.146C16.6751 59.7783 16.1685 60.0129 16.1685 60.5282V73.0831C16.1685 73.4375 16.511 73.814 17.146 73.814H20.9959C22.7568 73.814 24.8559 73.1083 24.8559 69.7455V69.3852C24.8556 67.7281 24.306 66.7677 23.0261 66.2105ZM18.332 65.3347V61.7333H20.4646C21.7035 61.7333 22.3317 62.3169 22.3317 63.4676C22.3317 64.7241 21.7333 65.3347 20.5025 65.3347H18.332ZM22.673 69.2895V69.5929C22.673 71.0962 21.981 71.8582 20.6163 71.8582H18.332V67.1009H20.6167C22.0388 67.1009 22.673 67.7753 22.673 69.2903V69.2895Z" fill="black"/>
</g>
<defs>
<clipPath id="clip0">
<rect width="80" height="80" fill="white"/>
</clipPath>
</defs>
</svg>
