<svg width="76" height="76" viewBox="0 0 76 76" fill="none" xmlns="http://www.w3.org/2000/svg">
<path d="M51.4839 4.90332C44.0494 4.90332 38 10.9527 38 18.3872H40.4516C40.4516 12.3036 45.4003 7.35493 51.4839 7.35493V4.90332Z" fill="black"/>
<path d="M62.5157 18.3872C62.5157 24.4707 57.5669 29.4195 51.4834 29.4195V31.8711C58.9178 31.8711 64.9673 25.8217 64.9673 18.3872H62.5157Z" fill="black"/>
<path d="M69.8708 18.3871C69.8708 8.24846 61.6224 0 51.4837 0C44.4425 0 38.3225 3.98148 35.2334 9.80645H7.35471C6.67657 9.80645 6.12891 10.3541 6.12891 11.0323V74.7742C6.12891 75.4523 6.67657 76 7.35471 76H61.2902C61.9683 76 62.516 75.4523 62.516 74.7742V33.0627C66.9715 29.7037 69.8708 24.385 69.8708 18.3871ZM36.8082 29.4194H13.4837V17.1613H33.1589C33.132 17.5683 33.0966 17.9729 33.0966 18.3871C33.0966 22.529 34.4894 26.3429 36.8082 29.4194ZM60.0644 73.5484H8.58052V12.2581H34.1692C33.8861 13.0547 33.6383 13.8675 33.4665 14.7097H12.2579C11.5798 14.7097 11.0321 15.2573 11.0321 15.9355V30.6452C11.0321 31.3233 11.5798 31.871 12.2579 31.871H39.0246C42.3052 34.9038 46.6739 36.7742 51.4837 36.7742C54.5824 36.7742 57.5002 35.9973 60.0644 34.6374V73.5484ZM51.4837 34.3226C42.6972 34.3226 35.5483 27.1736 35.5483 18.3871C35.5483 9.60055 42.6972 2.45161 51.4837 2.45161C60.2703 2.45161 67.4192 9.60055 67.4192 18.3871C67.4192 27.1736 60.2703 34.3226 51.4837 34.3226Z" fill="black"/>
<path d="M52.7101 24.5163C54.7373 24.5163 56.3875 22.8661 56.3875 20.8389C56.3875 18.8116 54.7373 17.1615 52.7101 17.1615H50.2585C49.5821 17.1615 49.0327 16.612 49.0327 15.9357C49.0327 15.2593 49.5821 14.7099 50.2585 14.7099H56.3875V12.2583H52.7101V9.80664H50.2585V12.2583C48.2312 12.2583 46.5811 13.9084 46.5811 15.9357C46.5811 17.9629 48.2312 19.6131 50.2585 19.6131H52.7101C53.3864 19.6131 53.9359 20.1625 53.9359 20.8389C53.9359 21.5152 53.3864 22.0647 52.7101 22.0647H46.5811V24.5163H50.2585V26.9679H52.7101V24.5163Z" fill="black"/>
<path d="M19.6129 36.7744H12.258C11.5799 36.7744 11.0322 37.3221 11.0322 38.0002V45.3551C11.0322 46.0332 11.5799 46.5809 12.258 46.5809H19.6129C20.291 46.5809 20.8387 46.0332 20.8387 45.3551V38.0002C20.8387 37.3221 20.291 36.7744 19.6129 36.7744ZM18.3871 44.1293H13.4838V39.226H18.3871V44.1293Z" fill="black"/>
<path d="M31.8707 36.7744H24.5158C23.8377 36.7744 23.29 37.3221 23.29 38.0002V45.3551C23.29 46.0332 23.8377 46.5809 24.5158 46.5809H31.8707C32.5488 46.5809 33.0965 46.0332 33.0965 45.3551V38.0002C33.0965 37.3221 32.5488 36.7744 31.8707 36.7744ZM30.6449 44.1293H25.7417V39.226H30.6449V44.1293Z" fill="black"/>
<path d="M44.1295 36.7744H36.7746C36.0965 36.7744 35.5488 37.3221 35.5488 38.0002V45.3551C35.5488 46.0332 36.0965 46.5809 36.7746 46.5809H44.1295C44.8076 46.5809 45.3553 46.0332 45.3553 45.3551V38.0002C45.3553 37.3221 44.8076 36.7744 44.1295 36.7744ZM42.9037 44.1293H38.0004V39.226H42.9037V44.1293Z" fill="black"/>
<path d="M19.6129 49.0322H12.258C11.5799 49.0322 11.0322 49.5799 11.0322 50.258V57.6129C11.0322 58.291 11.5799 58.8387 12.258 58.8387H19.6129C20.291 58.8387 20.8387 58.291 20.8387 57.6129V50.258C20.8387 49.5799 20.291 49.0322 19.6129 49.0322ZM18.3871 56.3871H13.4838V51.4838H18.3871V56.3871Z" fill="black"/>
<path d="M31.8707 49.0322H24.5158C23.8377 49.0322 23.29 49.5799 23.29 50.258V57.6129C23.29 58.291 23.8377 58.8387 24.5158 58.8387H31.8707C32.5488 58.8387 33.0965 58.291 33.0965 57.6129V50.258C33.0965 49.5799 32.5488 49.0322 31.8707 49.0322ZM30.6449 56.3871H25.7417V51.4838H30.6449V56.3871Z" fill="black"/>
<path d="M44.1295 49.0322H36.7746C36.0965 49.0322 35.5488 49.5799 35.5488 50.258V57.6129C35.5488 58.291 36.0965 58.8387 36.7746 58.8387H44.1295C44.8076 58.8387 45.3553 58.291 45.3553 57.6129V50.258C45.3553 49.5799 44.8076 49.0322 44.1295 49.0322ZM42.9037 56.3871H38.0004V51.4838H42.9037V56.3871Z" fill="black"/>
<path d="M47.8066 50.258V69.8709C47.8066 70.5491 48.3543 71.0967 49.0324 71.0967H56.3873C57.0654 71.0967 57.6131 70.5491 57.6131 69.8709V50.258C57.6131 49.5799 57.0654 49.0322 56.3873 49.0322H49.0324C48.3543 49.0322 47.8066 49.5799 47.8066 50.258ZM50.2583 51.4838H55.1615V68.6451H50.2583V51.4838Z" fill="black"/>
<path d="M19.6129 61.2905H12.258C11.5799 61.2905 11.0322 61.8382 11.0322 62.5163V69.8712C11.0322 70.5493 11.5799 71.097 12.258 71.097H19.6129C20.291 71.097 20.8387 70.5493 20.8387 69.8712V62.5163C20.8387 61.8382 20.291 61.2905 19.6129 61.2905ZM18.3871 68.6454H13.4838V63.7421H18.3871V68.6454Z" fill="black"/>
<path d="M31.8707 61.2905H24.5158C23.8377 61.2905 23.29 61.8382 23.29 62.5163V69.8712C23.29 70.5493 23.8377 71.097 24.5158 71.097H31.8707C32.5488 71.097 33.0965 70.5493 33.0965 69.8712V62.5163C33.0965 61.8382 32.5488 61.2905 31.8707 61.2905ZM30.6449 68.6454H25.7417V63.7421H30.6449V68.6454Z" fill="black"/>
<path d="M44.1295 61.2905H36.7746C36.0965 61.2905 35.5488 61.8382 35.5488 62.5163V69.8712C35.5488 70.5493 36.0965 71.097 36.7746 71.097H44.1295C44.8076 71.097 45.3553 70.5493 45.3553 69.8712V62.5163C45.3553 61.8382 44.8076 61.2905 44.1295 61.2905ZM42.9037 68.6454H38.0004V63.7421H42.9037V68.6454Z" fill="black"/>
</svg>
