<svg width="75" height="75" viewBox="0 0 75 75" fill="none" xmlns="http://www.w3.org/2000/svg">
<path d="M6.69655 10.7144C7.43577 10.7144 8.0357 10.1145 8.0357 9.37525V1.33915C8.0357 0.599931 7.43577 0 6.69655 0H1.33915C0.599931 0 0 0.599931 0 1.33915V73.6605C0 74.3997 0.599931 74.9996 1.33915 74.9996H6.69616C7.43538 74.9996 8.03531 74.3997 8.03531 73.6605V33.6483C8.03531 32.9091 7.43538 32.3092 6.69616 32.3092C5.95693 32.3092 5.357 32.9091 5.357 33.6483V72.3213H2.6787V2.6787H5.3574V9.37525C5.357 10.1141 5.95733 10.7144 6.69655 10.7144Z" fill="black"/>
<path d="M73.66 0H68.303C67.5638 0 66.9639 0.599931 66.9639 1.33915V9.37485C66.9639 10.1141 67.5638 10.714 68.303 10.714C69.0422 10.714 69.6422 10.1141 69.6422 9.37485V2.6787H72.3209V72.3213H69.6422V33.4239C69.6422 32.6847 69.0422 32.0847 68.303 32.0847C67.5638 32.0847 66.9639 32.6847 66.9639 33.4239V73.6608C66.9639 74.4001 67.5638 75 68.303 75H73.66C74.3992 75 74.9992 74.4001 74.9992 73.6608V1.33915C74.9996 0.599931 74.3996 0 73.66 0Z" fill="black"/>
<path d="M74.535 8.36072C74.2392 8.10647 73.8488 7.9919 73.4635 8.04997L61.7548 9.78502C45.6607 12.169 29.3382 12.1694 13.244 9.78502L1.53534 8.04997C1.14964 7.99229 0.758448 8.10608 0.463779 8.36072C0.169503 8.61498 0 8.98537 0 9.37499V32.1429C0 32.8064 0.486929 33.3703 1.14297 33.4676L12.8516 35.2026C21.0294 36.4139 29.2644 37.0193 37.4998 37.0193C45.7352 37.0193 53.9702 36.4139 62.1472 35.2034L73.8559 33.4684C74.5119 33.3707 74.9988 32.8068 74.9988 32.1429V9.37499C74.9992 8.98537 74.8297 8.61498 74.535 8.36072ZM72.3213 30.987L61.7548 32.5526C45.6607 34.9366 29.3382 34.937 13.244 32.5526L2.67831 30.987V10.9272L12.852 12.4347C29.2075 14.8568 45.7925 14.8568 62.1476 12.4347L72.3209 10.9272V30.987H72.3213Z" fill="black"/>
<path d="M21.5516 18.9604C21.4417 18.8062 21.3005 18.6904 21.1278 18.6115C20.9552 18.5327 20.7613 18.4828 20.5471 18.4621C20.3329 18.4413 20.1206 18.4307 19.9115 18.4307H16.8518C16.554 18.4307 16.3233 18.4828 16.1612 18.5872C15.9992 18.6916 15.8815 18.8289 15.8085 18.9992C15.7355 19.1691 15.6919 19.3614 15.6794 19.5756C15.6668 19.7898 15.6602 20.0096 15.6602 20.2344V27.6113C15.6602 27.8416 15.6668 28.0641 15.6794 28.2783C15.6919 28.4926 15.7355 28.6848 15.8085 28.8547C15.8815 29.0246 15.9992 29.1608 16.1612 29.2624C16.3233 29.3648 16.5536 29.4158 16.8518 29.4158C17.1449 29.4158 17.3728 29.3644 17.5349 29.2624C17.6969 29.1608 17.8162 29.0246 17.8919 28.8547C17.9677 28.6848 18.0124 28.4926 18.0254 28.2783C18.0379 28.0641 18.0446 27.8416 18.0446 27.6113V25.1154H19.0337C19.2425 25.1154 19.4548 25.1076 19.6694 25.0919C19.8836 25.0766 20.077 25.0323 20.2501 24.9585C20.4231 24.8847 20.564 24.7698 20.6738 24.6128C20.7837 24.4559 20.8386 24.2365 20.8386 23.954C20.8386 23.6715 20.7825 23.4526 20.6699 23.2952C20.5573 23.1379 20.4149 23.0225 20.2418 22.9496C20.0688 22.8766 19.8762 22.8319 19.6611 22.8162C19.4461 22.8009 19.2374 22.7926 19.033 22.7926H18.0438V20.7523H19.9115C20.1202 20.7523 20.3325 20.7421 20.5471 20.7209C20.7613 20.6993 20.9548 20.6499 21.1278 20.5714C21.3005 20.493 21.4417 20.3764 21.5516 20.2226C21.6614 20.0684 21.7164 19.8577 21.7164 19.5913C21.7164 19.3249 21.6614 19.1142 21.5516 18.9604Z" fill="black"/>
<path d="M25.8085 19.5766C25.7849 19.3623 25.73 19.1701 25.6437 19.0002C25.5574 18.8303 25.4275 18.693 25.2552 18.5882C25.083 18.4838 24.8448 18.4316 24.5415 18.4316C24.2382 18.4316 24.0005 18.4838 23.8278 18.5882C23.6552 18.6926 23.5257 18.8299 23.4394 19.0002C23.353 19.1705 23.2981 19.3623 23.2746 19.5766C23.251 19.7908 23.2393 20.0105 23.2393 20.2354V27.6123C23.2393 27.8426 23.2514 28.0651 23.2746 28.2793C23.2981 28.4935 23.353 28.6858 23.4394 28.8557C23.5257 29.0256 23.6556 29.1609 23.8278 29.2634C24.0001 29.3658 24.2382 29.4168 24.5415 29.4168C24.8448 29.4168 25.0838 29.3654 25.2596 29.2634C25.4349 29.1617 25.5656 29.0256 25.6519 28.8557C25.7382 28.6858 25.792 28.4935 25.8128 28.2793C25.8336 28.0651 25.8442 27.8426 25.8442 27.6123V20.2357C25.8438 20.0105 25.832 19.7908 25.8085 19.5766Z" fill="black"/>
<path d="M36.7049 19.1796C36.6833 19.0301 36.6339 18.901 36.5554 18.7912C36.4769 18.6813 36.3604 18.593 36.2066 18.5279C36.0528 18.4627 35.8417 18.4302 35.5753 18.4302C35.3343 18.4302 35.1448 18.4624 35.0059 18.5279C34.8674 18.5934 34.7623 18.6813 34.692 18.7912C34.6218 18.901 34.5755 19.0301 34.5547 19.1796C34.5339 19.3291 34.5233 19.4868 34.5233 19.6544V26.1681H34.335L31.838 19.4048C31.7705 19.2212 31.6787 19.0591 31.5633 18.9179C31.4581 18.7974 31.3236 18.6868 31.1588 18.5844C30.994 18.482 30.7809 18.431 30.5192 18.431H29.4834C29.1899 18.431 28.9639 18.4824 28.8042 18.5844C28.6449 18.686 28.5283 18.8222 28.4554 18.992C28.3824 19.1623 28.3388 19.3558 28.3263 19.5728C28.3137 19.7897 28.3066 20.0106 28.3066 20.2359V28.1931C28.3066 28.3606 28.3168 28.5184 28.338 28.6678C28.3596 28.8173 28.409 28.9464 28.4875 29.0563C28.566 29.1662 28.6837 29.2544 28.8403 29.3196C28.9968 29.3847 29.2118 29.4173 29.4837 29.4173C29.7247 29.4173 29.9142 29.3851 30.0531 29.3196C30.1916 29.254 30.2967 29.1662 30.367 29.0563C30.4372 28.9464 30.4835 28.8173 30.5043 28.6678C30.5251 28.5184 30.5357 28.3606 30.5357 28.1931V21.6794H30.724L33.0939 28.0985C33.1308 28.2029 33.1818 28.3316 33.2473 28.483C33.3129 28.6345 33.4008 28.7797 33.5106 28.9182C33.6205 29.0567 33.7578 29.174 33.9226 29.2709C34.0874 29.3678 34.293 29.4161 34.5386 29.4161H35.5745C35.8625 29.4161 36.0853 29.3647 36.2454 29.2627C36.4055 29.1611 36.5201 29.0249 36.5911 28.855C36.6621 28.6851 36.7041 28.4928 36.717 28.2786C36.7296 28.0644 36.7363 27.8419 36.7363 27.6116V19.6544C36.7363 19.4872 36.7261 19.3291 36.7049 19.1796Z" fill="black"/>
<path d="M41.7069 19.5766C41.6834 19.3623 41.6284 19.1701 41.5421 19.0002C41.4558 18.8303 41.3259 18.693 41.1537 18.5882C40.9814 18.4834 40.7433 18.4316 40.44 18.4316C40.1367 18.4316 39.8989 18.4838 39.7262 18.5882C39.5536 18.6926 39.4241 18.8299 39.3378 19.0002C39.2515 19.1705 39.1965 19.3623 39.173 19.5766C39.1495 19.7908 39.1377 20.0105 39.1377 20.2354V27.6123C39.1377 27.8426 39.1499 28.0651 39.173 28.2793C39.1962 28.4935 39.2515 28.6858 39.3378 28.8557C39.4241 29.0256 39.554 29.1609 39.7262 29.2634C39.8985 29.3658 40.1367 29.4168 40.44 29.4168C40.7433 29.4168 40.9822 29.3654 41.158 29.2634C41.3334 29.1617 41.464 29.0256 41.5504 28.8557C41.6367 28.6858 41.6904 28.4935 41.7112 28.2793C41.732 28.0651 41.7426 27.8426 41.7426 27.6123V20.2357C41.7422 20.0105 41.7301 19.7908 41.7069 19.5766Z" fill="black"/>
<path d="M50.2965 25.2424C50.1714 24.9336 50.0058 24.6565 49.8021 24.4105C49.5985 24.1649 49.3682 23.9452 49.1116 23.7517C48.855 23.5583 48.5925 23.3786 48.3229 23.2142C48.053 23.0494 47.7901 22.8929 47.5343 22.7434C47.2784 22.5939 47.0493 22.4408 46.848 22.2839C46.6463 22.1273 46.4839 21.961 46.3611 21.7856C46.2383 21.6102 46.1743 21.4124 46.1688 21.1931C46.1688 20.9267 46.201 20.7176 46.2614 20.5716C46.3218 20.4256 46.4027 20.3166 46.5047 20.2463C46.6067 20.1761 46.7244 20.1325 46.8574 20.1172C46.9908 20.1019 47.1282 20.0937 47.2694 20.0937C47.568 20.0937 47.7936 20.1773 47.9486 20.3448C48.1032 20.5124 48.1805 20.8102 48.1805 21.2394C48.1805 21.3438 48.2127 21.4478 48.275 21.5494C48.3374 21.651 48.4183 21.7416 48.5183 21.8201C48.618 21.8986 48.7306 21.9629 48.8557 22.0124C48.9809 22.0618 49.1061 22.0865 49.232 22.0865C49.3941 22.0865 49.5447 22.0626 49.6833 22.0124C49.8218 21.9622 49.9422 21.8927 50.0442 21.804C50.1459 21.7157 50.2271 21.6071 50.2875 21.4788C50.3479 21.3501 50.3777 21.2076 50.3777 21.0507C50.3777 20.9463 50.3703 20.8074 50.3542 20.6348C50.3381 20.4621 50.2993 20.2765 50.2365 20.0776C50.1737 19.8787 50.078 19.677 49.9501 19.4738C49.8222 19.2701 49.6468 19.0873 49.4243 18.9248C49.2018 18.7624 48.9232 18.629 48.5885 18.5242C48.2539 18.4195 47.8458 18.3677 47.3644 18.3677H47.1599C46.6314 18.3677 46.1629 18.414 45.7549 18.505C45.3468 18.596 45.0027 18.7522 44.7229 18.9719C44.4432 19.1916 44.2313 19.4867 44.0873 19.8587C43.9433 20.2302 43.8691 20.6956 43.8636 21.2555V21.3815C43.8691 21.7209 43.9331 22.0242 44.0559 22.2914C44.1787 22.5586 44.3423 22.8014 44.546 23.0212C44.7496 23.2409 44.9788 23.4437 45.2322 23.6293C45.4861 23.8149 45.7458 23.9931 46.013 24.1629C46.2802 24.3328 46.5412 24.5031 46.7978 24.673C47.0544 24.8429 47.282 25.0226 47.4809 25.2106C47.6798 25.3989 47.8411 25.6022 47.9635 25.8227C48.0859 26.0432 48.1475 26.2888 48.1475 26.5607C48.1475 26.7804 48.1201 26.9617 48.0651 27.1057C48.0102 27.2497 47.936 27.3647 47.8415 27.4514C47.7469 27.5377 47.6331 27.5981 47.5001 27.6323C47.3671 27.6664 47.2215 27.686 47.065 27.6911C46.7511 27.6911 46.5106 27.6193 46.343 27.4753C46.1755 27.3313 46.0872 27.0633 46.0766 26.671C46.0711 26.4936 46.0311 26.3374 45.9546 26.204C45.8781 26.0706 45.7819 25.9608 45.6638 25.8745C45.5457 25.7881 45.4155 25.7246 45.2715 25.6822C45.1275 25.6402 44.9874 25.6194 44.8516 25.6194C44.7049 25.6194 44.5652 25.641 44.4318 25.6822C44.2984 25.7234 44.1807 25.7881 44.0791 25.8745C43.9774 25.9608 43.895 26.0718 43.8319 26.208C43.7691 26.3437 43.7373 26.5038 43.7373 26.6867C43.7373 26.864 43.7581 27.0551 43.8001 27.2591C43.8421 27.4635 43.9107 27.6688 44.0045 27.8751C44.0983 28.0815 44.2254 28.2816 44.3847 28.4751C44.544 28.6685 44.7445 28.8408 44.9846 28.9895C45.2252 29.1382 45.5132 29.2575 45.8479 29.3465C46.1825 29.4356 46.5726 29.4799 47.0171 29.4799H47.0956C47.3259 29.4744 47.5711 29.4532 47.8293 29.4171C48.0879 29.381 48.3441 29.3179 48.598 29.2288C48.8518 29.1397 49.0943 29.0212 49.3238 28.8718C49.5534 28.7223 49.7551 28.5324 49.9277 28.3024C50.1003 28.0729 50.2392 27.7982 50.3436 27.4788C50.448 27.1595 50.5002 26.7859 50.5002 26.3567V26.2939C50.49 25.9011 50.4217 25.5511 50.2965 25.2424Z" fill="black"/>
<path d="M59.0408 19.5766C59.0192 19.3623 58.9686 19.1701 58.8874 19.0002C58.8061 18.8303 58.6857 18.693 58.5264 18.5882C58.3671 18.4838 58.1509 18.4316 57.879 18.4316C57.6016 18.4316 57.3842 18.4838 57.2272 18.5882C57.0703 18.6926 56.9522 18.8299 56.8702 19.0002C56.7882 19.1705 56.7376 19.3623 56.7168 19.5766C56.696 19.7908 56.6854 20.0105 56.6854 20.2354V22.6998H54.5352V20.2354C54.5352 20.0105 54.525 19.7908 54.5038 19.5766C54.4822 19.3623 54.4316 19.1701 54.3504 19.0002C54.2692 18.8303 54.1487 18.693 53.9894 18.5882C53.8301 18.4838 53.6139 18.4316 53.342 18.4316C53.0646 18.4316 52.8472 18.4838 52.6903 18.5882C52.5333 18.6926 52.4152 18.8299 52.3332 19.0002C52.2512 19.1705 52.2006 19.3623 52.1798 19.5766C52.159 19.7908 52.1484 20.0105 52.1484 20.2354V27.6123C52.1484 27.8426 52.1586 28.0651 52.1798 28.2793C52.2014 28.4935 52.252 28.6858 52.3332 28.8557C52.4145 29.0256 52.533 29.1609 52.6903 29.2634C52.8476 29.3658 53.0646 29.4168 53.342 29.4168C53.6139 29.4168 53.8301 29.3654 53.9894 29.2634C54.1487 29.1613 54.2688 29.0256 54.3504 28.8557C54.432 28.6858 54.483 28.4935 54.5038 28.2793C54.5246 28.0651 54.5352 27.8426 54.5352 27.6123V25.0066H56.6854V27.6123C56.6854 27.8426 56.6956 28.0651 56.7168 28.2793C56.7384 28.4935 56.789 28.6858 56.8702 28.8557C56.9514 29.0256 57.0699 29.1609 57.2272 29.2634C57.3846 29.3658 57.6016 29.4168 57.879 29.4168C58.1509 29.4168 58.3671 29.3654 58.5264 29.2634C58.6857 29.1613 58.8057 29.0256 58.8874 28.8557C58.969 28.6858 59.02 28.4935 59.0408 28.2793C59.0616 28.0651 59.0722 27.8426 59.0722 27.6123V20.2357C59.0722 20.0105 59.062 19.7908 59.0408 19.5766Z" fill="black"/>
</svg>
