<svg width="43" height="43" viewBox="0 0 43 43" fill="none" xmlns="http://www.w3.org/2000/svg">
<path d="M21.5001 0C12.7924 0 5.7334 7.05899 5.7334 15.7667C5.7334 24.2391 20.3262 41.9888 20.9475 42.7398C21.0837 42.9046 21.2863 43 21.5001 43C21.7138 43 21.9164 42.9046 22.0526 42.7398C22.674 41.9888 37.2667 24.2391 37.2667 15.7667C37.2667 7.05899 30.2077 0 21.5001 0ZM21.5001 41.1445C18.8032 37.7784 7.16673 22.8416 7.16673 15.7667C7.17578 7.85431 13.5878 1.44238 21.5001 1.43333C29.4124 1.44238 35.8243 7.85431 35.8334 15.7667C35.8334 22.8402 24.1969 37.7776 21.5001 41.1445Z" fill="black"/>
<path d="M29.7635 13.9545L21.8704 8.12108C21.652 7.95964 21.348 7.95964 21.1296 8.12108L13.2365 13.9545C12.9709 14.1512 12.9216 14.5175 13.1263 14.7727C13.2412 14.9159 13.4186 14.9998 13.6069 14.9999H15.4284V21.4167C15.4284 21.7388 15.7002 22 16.0355 22H26.9645C27.2998 22 27.5716 21.7388 27.5716 21.4167V14.9999H29.3931C29.7284 14.9997 30.0002 14.7384 30 14.4162C29.9999 14.2354 29.9126 14.0649 29.7635 13.9545ZM22.7143 20.8333H20.2857V17.3332H22.7143V20.8333ZM26.9645 13.8332C26.6292 13.8332 26.3573 14.0944 26.3573 14.4165V20.8333H23.9287V16.7499C23.9287 16.4278 23.6568 16.1666 23.3215 16.1666H19.6785C19.3432 16.1666 19.0713 16.4278 19.0713 16.7499V20.8333H16.6427V14.4165C16.6427 14.0944 16.3708 13.8332 16.0355 13.8332H15.3919L21.5 9.31927L27.6081 13.8332H26.9645Z" fill="black"/>
</svg>
