<svg width="44" height="44" viewBox="0 0 44 44" fill="none" xmlns="http://www.w3.org/2000/svg">
<path d="M36.6669 19.0667H34.1413C33.4816 15.9789 31.785 13.2099 29.3335 11.22V0.733333C29.3335 0.32835 29.0052 0 28.6002 0H12.4669C12.0619 0 11.7335 0.32835 11.7335 0.733333V11.2097C5.77429 16.0551 4.87129 24.8142 9.71669 30.7734C10.318 31.5131 10.9939 32.1888 11.7335 32.7903V43.2667C11.7335 43.6716 12.0619 44 12.4669 44H28.6002C29.0052 44 29.3335 43.6716 29.3335 43.2667V32.78C31.785 30.79 33.4818 28.021 34.142 24.9333H36.6669C37.0719 24.9333 37.4002 24.605 37.4002 24.2V19.8C37.4002 19.395 37.0719 19.0667 36.6669 19.0667ZM27.8669 1.46667V10.1523C27.6901 10.0423 27.5075 9.94253 27.3264 9.8406C27.2435 9.7944 27.1629 9.74307 27.0793 9.69833C26.7673 9.53113 26.4496 9.3764 26.1259 9.23413C26.0526 9.20333 25.9793 9.17767 25.9118 9.1476C25.6573 9.04053 25.3985 8.93933 25.1411 8.84767C25.0245 8.80733 24.9064 8.77433 24.7891 8.734C24.5691 8.66067 24.3491 8.59687 24.1232 8.53747C23.9941 8.503 23.8643 8.47147 23.7338 8.44067C23.5138 8.38933 23.2938 8.34387 23.0679 8.3028C22.9381 8.27933 22.8091 8.25513 22.6778 8.2346C22.438 8.19793 22.196 8.17007 21.9525 8.14587C21.8381 8.13413 21.7252 8.11873 21.6101 8.11067C21.2559 8.08353 20.8958 8.06667 20.5335 8.06667C20.1713 8.06667 19.8112 8.08353 19.4541 8.11067C19.3389 8.11873 19.2253 8.13413 19.1109 8.14587C18.8681 8.17007 18.6269 8.19793 18.3871 8.2346C18.2558 8.25513 18.1253 8.27933 17.9955 8.3028C17.7755 8.34387 17.5511 8.38933 17.3311 8.44067C17.2005 8.47147 17.07 8.503 16.9402 8.53747C16.7202 8.59687 16.5002 8.66287 16.2802 8.73327C16.1614 8.7714 16.0419 8.8066 15.9245 8.8484C15.6679 8.9386 15.4112 9.03907 15.1641 9.14173C15.0907 9.17327 15.013 9.19967 14.9389 9.23267C14.6177 9.37448 14.302 9.52866 13.9915 9.6954C13.9057 9.74087 13.8228 9.79367 13.7377 9.84207C13.5581 9.94327 13.3777 10.0415 13.2024 10.1508L13.2002 1.46667H27.8669ZM13.2002 42.5333V33.8477C13.3769 33.9577 13.5595 34.0575 13.7407 34.1594C13.8235 34.2056 13.9042 34.2569 13.9878 34.3017C14.2992 34.4689 14.617 34.6236 14.9411 34.7659C15.0145 34.7967 15.0878 34.8223 15.156 34.8524C15.4105 34.9595 15.6693 35.0607 15.926 35.1523C16.0426 35.1927 16.1607 35.2257 16.278 35.266C16.498 35.3393 16.718 35.4031 16.9439 35.4625C17.0729 35.497 17.2027 35.5285 17.3333 35.5593C17.5533 35.6107 17.7733 35.6561 17.9991 35.6972C18.1289 35.7207 18.2587 35.7449 18.3893 35.7654C18.6291 35.8021 18.8711 35.8299 19.1145 35.8541C19.2289 35.8659 19.3419 35.8813 19.457 35.8893C19.8141 35.9165 20.1742 35.9333 20.5365 35.9333C20.8987 35.9333 21.2588 35.9165 21.6159 35.8893C21.7311 35.8813 21.8447 35.8659 21.9591 35.8541C22.2019 35.8299 22.4439 35.8021 22.6829 35.7654C22.8142 35.7449 22.9447 35.7207 23.0753 35.6972C23.2953 35.6561 23.5153 35.6107 23.7353 35.5593C23.8658 35.5285 23.9963 35.497 24.1261 35.4625C24.3461 35.4031 24.5661 35.3371 24.7861 35.2667C24.9049 35.2286 25.0245 35.1934 25.1418 35.1516C25.3985 35.0614 25.6551 34.9609 25.903 34.8583C25.9763 34.8275 26.0497 34.8011 26.123 34.7681C26.4442 34.6268 26.76 34.4728 27.0705 34.3061C27.157 34.2591 27.2406 34.2071 27.3264 34.1594C27.5053 34.0582 27.685 33.9607 27.8603 33.8514L27.8669 42.5333H13.2002ZM32.8279 24.079C32.3104 27.1723 30.6389 29.9542 28.1507 31.8633C25.9751 33.5602 23.2926 34.477 20.5335 34.4667C20.1852 34.4667 19.8383 34.4527 19.4951 34.4249C19.065 34.3873 18.6371 34.3273 18.2133 34.2452C11.4518 32.968 7.00584 26.4513 8.28303 19.6898C8.8498 16.6894 10.4986 14.0015 12.9165 12.1367C18.3661 7.92862 26.1951 8.93512 30.4031 14.3847C31.6539 16.0045 32.4867 17.9074 32.828 19.9254C33.0581 21.3004 33.0581 22.704 32.8279 24.079ZM35.9335 23.4667H34.3935C34.3979 23.4256 34.3935 23.3823 34.4001 23.342C34.4419 22.902 34.4691 22.4554 34.4691 22C34.4691 21.5446 34.4419 21.0973 34.4001 20.658C34.4001 20.6169 34.4001 20.5737 34.3935 20.5333H35.9335V23.4667Z" fill="black"/>
<path d="M26.2378 15.26V15.2593L21.4755 20.0201C20.8795 19.7379 20.1883 19.7379 19.5923 20.0201L16.9039 17.3332C16.6126 17.0518 16.1483 17.0599 15.867 17.3512C15.5925 17.6354 15.5925 18.0859 15.867 18.3701L18.5539 21.057C18.0406 22.1583 18.5172 23.4672 19.6185 23.9805C20.45 24.368 21.4347 24.1989 22.0893 23.5562C22.7517 22.9005 22.9226 21.8955 22.5139 21.0578L27.2747 16.297C27.556 16.0057 27.5481 15.5415 27.2567 15.26C26.9726 14.9856 26.522 14.9856 26.2378 15.26ZM21.0524 22.5186V22.5193C20.7659 22.8057 20.3016 22.8056 20.0153 22.5191C19.7289 22.2327 19.729 21.7684 20.0154 21.482C20.3019 21.1956 20.7662 21.1957 21.0526 21.4822C21.1899 21.6196 21.2671 21.8059 21.2672 22.0001C21.2672 22.1946 21.19 22.3811 21.0524 22.5186Z" fill="black"/>
<path d="M20.5331 13.1999C20.9381 13.1999 21.2665 12.8716 21.2665 12.4666V10.9999C21.2665 10.595 20.9381 10.2666 20.5331 10.2666C20.1282 10.2666 19.7998 10.595 19.7998 10.9999V12.4666C19.7998 12.8716 20.1282 13.1999 20.5331 13.1999Z" fill="black"/>
<path d="M20.5331 30.7998C20.1282 30.7998 19.7998 31.1282 19.7998 31.5331V32.9998C19.7998 33.4048 20.1282 33.7331 20.5331 33.7331C20.9381 33.7331 21.2665 33.4048 21.2665 32.9998V31.5331C21.2665 31.1282 20.9382 30.7998 20.5331 30.7998Z" fill="black"/>
<path d="M10.9998 21.2666H9.53314C9.12815 21.2666 8.7998 21.595 8.7998 21.9999C8.7998 22.4049 9.12815 22.7333 9.53314 22.7333H10.9998C11.4048 22.7333 11.7331 22.4049 11.7331 21.9999C11.7331 21.595 11.4049 21.2666 10.9998 21.2666Z" fill="black"/>
<path d="M31.534 21.2666H30.0673C29.6623 21.2666 29.334 21.595 29.334 21.9999C29.334 22.4049 29.6623 22.7333 30.0673 22.7333H31.534C31.939 22.7333 32.2673 22.4049 32.2673 21.9999C32.2673 21.595 31.9391 21.2666 31.534 21.2666Z" fill="black"/>
</svg>
