<svg width="55" height="55" viewBox="0 0 55 55" fill="none" xmlns="http://www.w3.org/2000/svg">
<path d="M46.5489 6.66037H41.7106V6.26635C41.7106 5.65854 41.4691 5.07563 41.0394 4.64584C40.6096 4.21606 40.0267 3.97461 39.4188 3.97461C38.811 3.97461 38.2281 4.21606 37.7983 4.64584C37.3686 5.07563 37.1271 5.65854 37.1271 6.26635V6.66037H17.872V6.26635C17.872 5.65854 17.6305 5.07563 17.2007 4.64584C16.7709 4.21606 16.188 3.97461 15.5802 3.97461C14.9724 3.97461 14.3895 4.21606 13.9597 4.64584C13.5299 5.07563 13.2885 5.65854 13.2885 6.26635V6.66037H8.4502C8.25076 6.66037 8.0595 6.73959 7.91848 6.88061C7.77747 7.02163 7.69824 7.21289 7.69824 7.41232V50.2737C7.69824 50.4731 7.77747 50.6643 7.91848 50.8054C8.0595 50.9464 8.25076 51.0256 8.4502 51.0256H46.5489C46.7483 51.0256 46.9396 50.9464 47.0806 50.8054C47.2216 50.6643 47.3008 50.4731 47.3008 50.2737V7.41232C47.3008 7.21289 47.2216 7.02163 47.0806 6.88061C46.9396 6.73959 46.7483 6.66037 46.5489 6.66037ZM38.631 6.26635C38.631 6.0574 38.714 5.85701 38.8618 5.70927C39.0095 5.56152 39.2099 5.47852 39.4188 5.47852C39.6278 5.47852 39.8282 5.56152 39.9759 5.70927C40.1237 5.85701 40.2067 6.0574 40.2067 6.26635V8.25365C40.2067 8.4626 40.1237 8.66299 39.9759 8.81073C39.8282 8.95848 39.6278 9.04148 39.4188 9.04148C39.2099 9.04148 39.0095 8.95848 38.8618 8.81073C38.714 8.66299 38.631 8.4626 38.631 8.25365V6.26635ZM15.5804 5.47873C15.7892 5.47896 15.9895 5.56201 16.1371 5.70967C16.2848 5.85733 16.3678 6.05753 16.368 6.26635V8.25365C16.368 8.4626 16.285 8.66299 16.1373 8.81073C15.9895 8.95848 15.7892 9.04148 15.5802 9.04148C15.3713 9.04148 15.1709 8.95848 15.0231 8.81073C14.8754 8.66299 14.7924 8.4626 14.7924 8.25365V6.26635C14.7926 6.05745 14.8757 5.85719 15.0235 5.70952C15.1712 5.56185 15.3715 5.47884 15.5804 5.47873ZM9.20215 8.16428H13.2885V8.25365C13.2885 8.86146 13.5299 9.44437 13.9597 9.87416C14.3895 10.3039 14.9724 10.5454 15.5802 10.5454C16.188 10.5454 16.7709 10.3039 17.2007 9.87416C17.6305 9.44437 17.872 8.86146 17.872 8.25365V8.16428H37.1271V8.25365C37.1271 8.86146 37.3686 9.44437 37.7983 9.87416C38.2281 10.3039 38.811 10.5454 39.4188 10.5454C40.0267 10.5454 40.6096 10.3039 41.0394 9.87416C41.4691 9.44437 41.7106 8.86146 41.7106 8.25365V8.16428H45.7969V11.4226H9.20215V8.16428ZM45.7969 49.5217H9.20215V12.9265H45.7969V49.5217Z" fill="black"/>
<path d="M14.2529 29.3721H18.1661C18.3655 29.3721 18.5568 29.2929 18.6978 29.1519C18.8388 29.0109 18.918 28.8196 18.918 28.6202V24.707C18.918 24.5076 18.8388 24.3163 18.6978 24.1753C18.5568 24.0343 18.3655 23.9551 18.1661 23.9551H14.2529C14.0535 23.9551 13.8622 24.0343 13.7212 24.1753C13.5802 24.3163 13.501 24.5076 13.501 24.707V28.6202C13.501 28.8196 13.5802 29.0109 13.7212 29.1519C13.8622 29.2929 14.0535 29.3721 14.2529 29.3721ZM15.0049 25.459H17.4141V27.8682H15.0049V25.459Z" fill="black"/>
<path d="M21.0273 24.707V28.6202C21.0273 28.8196 21.1066 29.0109 21.2476 29.1519C21.3886 29.2929 21.5799 29.3721 21.7793 29.3721H25.6925C25.8919 29.3721 26.0832 29.2929 26.2242 29.1519C26.3652 29.0109 26.4444 28.8196 26.4444 28.6202V24.707C26.4444 24.5076 26.3652 24.3163 26.2242 24.1753C26.0832 24.0343 25.8919 23.9551 25.6925 23.9551H21.7793C21.5799 23.9551 21.3886 24.0343 21.2476 24.1753C21.1066 24.3163 21.0273 24.5076 21.0273 24.707ZM22.5312 25.459H24.9405V27.8682H22.5312V25.459Z" fill="black"/>
<path d="M28.5547 28.6202C28.5547 28.8196 28.6339 29.0109 28.7749 29.1519C28.9159 29.2929 29.1072 29.3721 29.3066 29.3721H33.2198C33.4192 29.3721 33.6105 29.2929 33.7515 29.1519C33.8925 29.0109 33.9718 28.8196 33.9718 28.6202V24.707C33.9718 24.5076 33.8925 24.3163 33.7515 24.1753C33.6105 24.0343 33.4192 23.9551 33.2198 23.9551H29.3066C29.1072 23.9551 28.9159 24.0343 28.7749 24.1753C28.6339 24.3163 28.5547 24.5076 28.5547 24.707V28.6202ZM30.0586 25.459H32.4679V27.8682H30.0586V25.459Z" fill="black"/>
<path d="M36.082 24.707V28.6202C36.082 28.8196 36.1613 29.0109 36.3023 29.1519C36.4433 29.2929 36.6346 29.3721 36.834 29.3721H40.7471C40.9466 29.3721 41.1378 29.2929 41.2789 29.1519C41.4199 29.0109 41.4991 28.8196 41.4991 28.6202V24.707C41.4991 24.5076 41.4199 24.3163 41.2789 24.1753C41.1378 24.0343 40.9466 23.9551 40.7471 23.9551H36.834C36.6346 23.9551 36.4433 24.0343 36.3023 24.1753C36.1613 24.3163 36.082 24.5076 36.082 24.707ZM37.5859 25.459H39.9952V27.8682H37.5859V25.459Z" fill="black"/>
<path d="M14.2529 36.815H18.1661C18.3655 36.815 18.5568 36.7357 18.6978 36.5947C18.8388 36.4537 18.918 36.2624 18.918 36.063V32.1494C18.918 31.95 18.8388 31.7587 18.6978 31.6177C18.5568 31.4767 18.3655 31.3975 18.1661 31.3975H14.2529C14.0535 31.3975 13.8622 31.4767 13.7212 31.6177C13.5802 31.7587 13.501 31.95 13.501 32.1494V36.0626C13.5009 36.1614 13.5203 36.2592 13.5581 36.3505C13.5959 36.4418 13.6512 36.5247 13.7211 36.5946C13.7909 36.6644 13.8738 36.7199 13.9651 36.7577C14.0563 36.7955 14.1541 36.815 14.2529 36.815ZM15.0049 32.9018H17.4141V35.3111H15.0049V32.9018Z" fill="black"/>
<path d="M25.6929 31.3975H21.7793C21.5799 31.3975 21.3886 31.4767 21.2476 31.6177C21.1066 31.7587 21.0273 31.95 21.0273 32.1494V36.0626C21.0273 36.262 21.1066 36.4533 21.2476 36.5943C21.3886 36.7353 21.5799 36.8145 21.7793 36.8145H25.6925C25.8919 36.8145 26.0832 36.7353 26.2242 36.5943C26.3652 36.4533 26.4444 36.262 26.4444 36.0626V32.1494C26.4444 31.9501 26.3652 31.7589 26.2243 31.6179C26.0834 31.4768 25.8922 31.3976 25.6929 31.3975ZM24.9409 35.3106H22.5312V32.9014H24.9405L24.9409 35.3106Z" fill="black"/>
<path d="M33.2198 31.3975H29.3066C29.1072 31.3975 28.9159 31.4767 28.7749 31.6177C28.6339 31.7587 28.5547 31.95 28.5547 32.1494V36.0626C28.5547 36.262 28.6339 36.4533 28.7749 36.5943C28.9159 36.7353 29.1072 36.8145 29.3066 36.8145H33.2198C33.4192 36.8145 33.6105 36.7353 33.7515 36.5943C33.8925 36.4533 33.9718 36.262 33.9718 36.0626V32.1494C33.9718 31.95 33.8925 31.7587 33.7515 31.6177C33.6105 31.4767 33.4192 31.3975 33.2198 31.3975ZM32.4679 35.3106H30.0586V32.9014H32.4679V35.3106Z" fill="black"/>
<path d="M14.2529 44.2579H18.1661C18.3655 44.2579 18.5568 44.1787 18.6978 44.0376C18.8388 43.8966 18.918 43.7054 18.918 43.5059V39.5928C18.918 39.3933 18.8388 39.2021 18.6978 39.0611C18.5568 38.92 18.3655 38.8408 18.1661 38.8408H14.2529C14.0535 38.8408 13.8622 38.92 13.7212 39.0611C13.5802 39.2021 13.501 39.3933 13.501 39.5928V43.5059C13.501 43.7054 13.5802 43.8966 13.7212 44.0376C13.8622 44.1787 14.0535 44.2579 14.2529 44.2579ZM15.0049 40.3447H17.4141V42.754H15.0049V40.3447Z" fill="black"/>
<path d="M25.6929 38.8408H21.7793C21.5799 38.8408 21.3886 38.92 21.2476 39.0611C21.1066 39.2021 21.0273 39.3933 21.0273 39.5928V43.5059C21.0273 43.7054 21.1066 43.8966 21.2476 44.0376C21.3886 44.1787 21.5799 44.2579 21.7793 44.2579H25.6925C25.8919 44.2579 26.0832 44.1787 26.2242 44.0376C26.3652 43.8966 26.4444 43.7054 26.4444 43.5059V39.5928C26.4444 39.3934 26.3652 39.2022 26.2243 39.0612C26.0834 38.9202 25.8922 38.8409 25.6929 38.8408ZM24.9409 42.754H22.5312V40.3447H24.9405L24.9409 42.754Z" fill="black"/>
</svg>
