<svg width="43" height="43" viewBox="0 0 43 43" fill="none" xmlns="http://www.w3.org/2000/svg">
<path d="M21.5001 0C12.7924 0 5.7334 7.05899 5.7334 15.7667C5.7334 24.2391 20.3262 41.9888 20.9475 42.7398C21.0837 42.9046 21.2863 43 21.5001 43C21.7138 43 21.9164 42.9046 22.0526 42.7398C22.674 41.9888 37.2667 24.2391 37.2667 15.7667C37.2667 7.05899 30.2077 0 21.5001 0ZM21.5001 41.1445C18.8032 37.7784 7.16673 22.8416 7.16673 15.7667C7.17578 7.85431 13.5878 1.44238 21.5001 1.43333C29.4124 1.44238 35.8243 7.85431 35.8334 15.7667C35.8334 22.8402 24.1969 37.7776 21.5001 41.1445Z" fill="black"/>
<path d="M26.7113 15.7668C26.7113 18.6448 24.3782 20.9779 21.5002 20.9779C18.6222 20.9779 16.2891 18.6448 16.2891 15.7668C16.2891 12.8888 18.6222 10.5557 21.5002 10.5557C24.3782 10.5557 26.7113 12.8888 26.7113 15.7668Z" stroke="black" stroke-width="2"/>
</svg>
