<svg width="85" height="28" viewBox="0 0 85 28" fill="none" xmlns="http://www.w3.org/2000/svg">
<g clip-path="url(#clip0)">
<path d="M83.6198 7.63982H79.9398C79.7098 7.26982 79.5198 6.93982 79.2898 6.63982C79.0598 6.33982 78.9598 6.12982 78.7798 5.88982C78.0798 4.88982 76.6398 3.04982 75.5198 1.69982C75.0862 1.15385 74.5317 0.716093 73.9 0.421074C73.2683 0.126055 72.5767 -0.0181546 71.8798 -0.000178367H55.5698C54.9046 -0.0109235 54.2443 0.11501 53.6298 0.369822C54.0027 0.630417 54.3391 0.93984 54.6298 1.28982L55.4498 2.28982C55.7773 2.21194 56.1132 2.17499 56.4498 2.17982H61.1598V2.36982C61.1571 2.51108 61.1829 2.65144 61.2357 2.78249C61.2885 2.91353 61.3672 3.03257 61.4671 3.13248C61.567 3.23238 61.6861 3.3111 61.8171 3.36391C61.9482 3.41672 62.0885 3.44254 62.2298 3.43982H65.5398C65.6811 3.44254 65.8214 3.41672 65.9525 3.36391C66.0835 3.3111 66.2025 3.23238 66.3025 3.13248C66.4024 3.03257 66.4811 2.91353 66.5339 2.78249C66.5867 2.65144 66.6125 2.51108 66.6098 2.36982V2.18982H71.3598C71.9023 2.173 72.4414 2.2826 72.9343 2.50996C73.4272 2.73731 73.8604 3.0762 74.1998 3.49982C74.9898 4.49982 76.0598 5.87982 76.6198 6.61982L76.7098 6.75982C76.9398 7.08982 77.2198 7.45982 77.4598 7.82982C77.6322 8.04361 77.746 8.29866 77.7898 8.56982C77.7898 8.83504 77.6844 9.08939 77.4969 9.27693C77.3094 9.46447 77.055 9.56982 76.7898 9.56982H63.8498V9.99982C63.8525 10.2212 63.8109 10.4409 63.7274 10.6459C63.6439 10.8509 63.5203 11.0372 63.3637 11.1937C63.2072 11.3503 63.0209 11.4739 62.8159 11.5574C62.6108 11.6409 62.3912 11.6825 62.1698 11.6798H60.7298C61.1098 13.2343 61.2978 14.8296 61.2898 16.4298V23.7698H63.7298C68.1098 23.7698 72.2598 23.5798 75.9798 23.2598V25.9998C75.9717 26.1402 75.9919 26.2807 76.0392 26.4131C76.0864 26.5456 76.1598 26.6671 76.2549 26.7707C76.35 26.8742 76.465 26.9575 76.5929 27.0158C76.7209 27.0741 76.8593 27.106 76.9998 27.1098H80.9998C81.1454 27.1142 81.2903 27.0883 81.4253 27.0337C81.5603 26.979 81.6825 26.8969 81.7841 26.7925C81.8857 26.6881 81.9644 26.5637 82.0153 26.4273C82.0662 26.2908 82.0882 26.1452 82.0798 25.9998V16.3998C82.0999 14.5725 81.8471 12.7525 81.3298 10.9998H83.5698C83.8433 11.0053 84.1081 10.9039 84.3079 10.7172C84.5078 10.5304 84.6268 10.273 84.6398 9.99982V8.70982C84.6496 8.57103 84.6303 8.43173 84.5831 8.30082C84.536 8.16992 84.4621 8.05028 84.3661 7.94958C84.2701 7.84887 84.1541 7.7693 84.0256 7.71597C83.8971 7.66263 83.7589 7.63669 83.6198 7.63982ZM79.0498 16.2098H76.4598C76.3436 16.2243 76.226 16.2243 76.1098 16.2098H69.7798C69.6757 16.2112 69.5723 16.1916 69.4759 16.1524C69.3794 16.1132 69.2918 16.0551 69.2182 15.9814C69.1446 15.9078 69.0864 15.8202 69.0472 15.7237C69.008 15.6273 68.9884 15.5239 68.9898 15.4198L69.0798 14.2498C69.1063 14.0341 69.2101 13.8352 69.3718 13.69C69.5336 13.5448 69.7424 13.463 69.9598 13.4598H78.8698C79.0856 13.4614 79.2931 13.5431 79.452 13.6891C79.611 13.8351 79.71 14.0349 79.7298 14.2498L79.8198 15.4098C79.8238 15.5134 79.8069 15.6168 79.77 15.7137C79.7331 15.8106 79.6771 15.8991 79.6052 15.9738C79.5332 16.0485 79.447 16.1079 79.3516 16.1485C79.2561 16.189 79.1535 16.2099 79.0498 16.2098ZM29.0698 -0.000178367H12.7698C12.0736 -0.0268468 11.381 0.11144 10.7484 0.403402C10.1158 0.695364 9.56118 1.13273 9.12979 1.67982C8.05979 2.99982 5.53979 6.33982 5.35979 6.61982C5.17979 6.89982 4.93979 7.31982 4.70979 7.61982H1.06979C0.9268 7.61699 0.784736 7.64341 0.652316 7.69744C0.519895 7.75148 0.39991 7.832 0.299719 7.93406C0.199528 8.03612 0.121245 8.15758 0.0696701 8.29098C0.0180954 8.42438 -0.0056829 8.56691 -0.000206484 8.70982V9.99982C0.0127627 10.273 0.131833 10.5304 0.331668 10.7172C0.531503 10.9039 0.796328 11.0053 1.06979 10.9998H3.30979C2.79976 12.7401 2.55039 14.5464 2.56979 16.3598V25.9998C2.56708 26.1411 2.5929 26.2814 2.64571 26.4125C2.69852 26.5435 2.77723 26.6626 2.87714 26.7625C2.97704 26.8624 3.09608 26.9411 3.22713 26.9939C3.35818 27.0467 3.49853 27.0725 3.63979 27.0698H7.63979C7.77769 27.0672 7.91372 27.0375 8.04012 26.9823C8.16652 26.9271 8.28081 26.8476 8.37645 26.7482C8.4721 26.6488 8.54724 26.5316 8.59757 26.4032C8.6479 26.2748 8.67244 26.1377 8.66979 25.9998V23.1998C12.3998 23.5298 16.5398 23.7098 20.9198 23.7098H23.3598V16.3998C23.3523 14.7996 23.5403 13.2044 23.9198 11.6498H22.4698C22.251 11.6525 22.0338 11.6118 21.8307 11.5302C21.6276 11.4486 21.4427 11.3276 21.2866 11.1743C21.1305 11.0209 21.0062 10.8382 20.9209 10.6367C20.8357 10.4351 20.7911 10.2187 20.7898 9.99982V9.59982H8.10979C7.84458 9.59982 7.59022 9.49446 7.40269 9.30693C7.21515 9.11939 7.10979 8.86504 7.10979 8.59982C7.15193 8.32515 7.26575 8.06645 7.43979 7.84982C7.66979 7.47982 9.95979 4.49982 10.7498 3.51982C11.0892 3.0962 11.5224 2.75731 12.0153 2.52996C12.5082 2.3026 13.0472 2.193 13.5898 2.20982H18.2898V2.39982C18.2885 2.54071 18.3152 2.68045 18.3685 2.81087C18.4218 2.94129 18.5006 3.05978 18.6002 3.1594C18.6998 3.25903 18.8183 3.33779 18.9487 3.39109C19.0792 3.44439 19.2189 3.47116 19.3598 3.46982H22.6698C22.8111 3.47254 22.9514 3.44672 23.0825 3.39391C23.2135 3.3411 23.3325 3.26238 23.4325 3.16248C23.5324 3.06257 23.6111 2.94353 23.6639 2.81249C23.7167 2.68144 23.7425 2.54108 23.7398 2.39982V2.18982H28.4898C28.7684 2.18928 29.0464 2.21608 29.3198 2.26982L30.0798 1.26982C30.3488 0.93363 30.6578 0.63141 30.9998 0.369822C30.3873 0.120033 29.7313 -0.00572845 29.0698 -0.000178367ZM14.6698 13.4198C14.8907 13.4138 15.1057 13.4921 15.271 13.6389C15.4363 13.7856 15.5396 13.9897 15.5598 14.2098L15.6498 15.3798C15.6598 15.4884 15.6466 15.5978 15.6111 15.7009C15.5756 15.8039 15.5186 15.8983 15.4439 15.9777C15.3692 16.0571 15.2786 16.1197 15.1779 16.1615C15.0772 16.2032 14.9687 16.2231 14.8598 16.2198H5.55979C5.35467 16.2146 5.15987 16.1287 5.01761 15.9808C4.87535 15.833 4.7971 15.635 4.79979 15.4298L4.88979 14.2598C4.9158 14.0474 5.01666 13.8512 5.17427 13.7064C5.33188 13.5616 5.53593 13.4777 5.74979 13.4698H5.99979C6.10699 13.4019 6.23324 13.3703 6.35979 13.3798L14.6698 13.4198ZM31.6198 23.3698L32.7798 23.4498H33.1698V23.2198L31.6198 23.3698ZM52.4698 0.399822L52.6998 0.509822L52.4698 0.399822ZM21.3998 9.99982V10.0598V9.99982ZM62.2198 7.63982H58.5298C58.2998 7.26982 58.1098 6.93982 57.8798 6.63982C57.6498 6.33982 57.5498 6.12982 57.3698 5.88982C57.1898 5.64982 56.8598 5.18982 56.5298 4.75982L56.4298 4.62982C55.9298 3.96982 55.3498 3.22982 54.7898 2.52982L54.1098 1.69982L53.9198 1.47982L53.8298 1.38982L53.7598 1.30982L53.6298 1.17982L53.5598 1.11982C53.3849 0.961719 53.1977 0.817923 52.9998 0.689822L52.9098 0.629822H52.6898L52.4698 0.399822H52.2398L51.9998 0.229822H51.1398L50.9998 -0.000178367H33.1598L32.9998 0.119822H32.7898L32.5198 0.199822H32.3998L32.2498 0.259822L32.0998 0.329822L31.7298 0.529822H31.6598L31.5198 0.629822L31.3998 0.839822L31.3298 0.889822L31.2598 0.949822L31.1898 0.999822L31.0898 1.08982L30.9998 1.15982L30.9098 1.24982L30.6198 1.55982L30.5298 1.66982L29.9198 2.44982L29.4398 3.06982L29.2198 3.35982L27.8898 5.10982L27.7798 5.25982L27.6198 5.46982L27.5198 5.60982L26.9998 6.31982V6.37982L26.9398 6.46982V6.52982L26.7798 6.76982L26.5298 7.17982L26.2798 7.55982H22.4698C22.3289 7.55893 22.1893 7.58585 22.0589 7.63905C21.9285 7.69225 21.8098 7.77067 21.7098 7.86982L21.6398 7.99982L21.5898 8.06982V8.12982L21.5398 8.25982V8.32982C21.538 8.35646 21.538 8.38318 21.5398 8.40982C21.5362 8.46309 21.5362 8.51655 21.5398 8.56982V10.2898L21.6098 10.3698C21.7095 10.4694 21.8281 10.5481 21.9586 10.6014C22.0891 10.6546 22.2289 10.6813 22.3698 10.6798H24.6098C24.3496 11.5466 24.159 12.4327 24.0398 13.3298C24.0398 13.4998 24.0398 13.6698 23.9798 13.8398V25.9998C23.9762 26.0531 23.9762 26.1065 23.9798 26.1598V26.3198L24.0298 26.4498V26.5098L24.0798 26.5798L24.1498 26.6598C24.2498 26.759 24.3685 26.8374 24.4989 26.8906C24.6293 26.9438 24.7689 26.9707 24.9098 26.9698H28.9098C29.0501 26.985 29.1921 26.9716 29.3272 26.9307C29.4622 26.8897 29.5877 26.8219 29.696 26.7314C29.8042 26.6408 29.8932 26.5294 29.9574 26.4037C30.0216 26.278 30.0599 26.1406 30.0698 25.9998V23.1998H31.6098L33.1598 23.0798V23.3098H35.7798L37.6998 23.3798H46.9298L48.6898 23.3198H50.3198L51.4298 23.2598L52.9998 23.3698H54.5398V25.9998C54.5392 26.1813 54.5839 26.36 54.6698 26.5198C54.7165 26.612 54.7772 26.6963 54.8498 26.7698C54.9498 26.869 55.0685 26.9474 55.1989 27.0006C55.3293 27.0538 55.4689 27.0807 55.6098 27.0798H59.6098C59.7511 27.0812 59.8912 27.0541 60.0218 27.0001C60.1523 26.946 60.2706 26.8662 60.3696 26.7654C60.4686 26.6645 60.5462 26.5447 60.5978 26.4132C60.6493 26.2817 60.6738 26.1411 60.6698 25.9998V16.3998C60.6932 14.573 60.4438 12.753 59.9298 10.9998H62.1698C62.4433 11.0053 62.7081 10.9039 62.9079 10.7172C63.1078 10.5304 63.2268 10.273 63.2398 9.99982V8.70982C63.2496 8.57103 63.2303 8.43173 63.1831 8.30082C63.136 8.16992 63.0621 8.05028 62.9661 7.94958C62.8701 7.84887 62.7541 7.7693 62.6256 7.71597C62.4971 7.66263 62.3589 7.63669 62.2198 7.63982ZM36.2198 16.2098H26.9998C26.7903 16.2098 26.5893 16.1266 26.4412 15.9784C26.293 15.8303 26.2098 15.6293 26.2098 15.4198L26.2998 14.2498C26.3263 14.0341 26.4301 13.8352 26.5918 13.69C26.7536 13.5448 26.9624 13.463 27.1798 13.4598H27.3998C27.5073 13.3925 27.6333 13.361 27.7598 13.3698H36.0498C36.2707 13.3638 36.4857 13.4421 36.651 13.5889C36.8163 13.7356 36.9195 13.9397 36.9398 14.1598L36.9998 15.3798C37.008 15.4842 36.9948 15.5892 36.961 15.6883C36.9273 15.7874 36.8737 15.8786 36.8035 15.9563C36.7333 16.034 36.648 16.0965 36.5528 16.1401C36.4576 16.1837 36.3545 16.2074 36.2498 16.2098H36.2198ZM29.5098 9.59982C29.2446 9.59982 28.9902 9.49446 28.8027 9.30693C28.6152 9.11939 28.5098 8.86504 28.5098 8.59982C28.5536 8.32866 28.6673 8.07361 28.8398 7.85982C29.0398 7.53982 30.7598 5.27982 31.7398 4.02982L32.1398 3.51982C32.4729 3.08967 32.9052 2.74656 33.3998 2.51982C33.9032 2.29603 34.4489 2.18347 34.9998 2.18982H39.7098V2.37982C39.7071 2.52108 39.7329 2.66144 39.7857 2.79249C39.8385 2.92353 39.9172 3.04257 40.0171 3.14248C40.117 3.24238 40.2361 3.3211 40.3671 3.37391C40.4982 3.42672 40.6385 3.45254 40.7798 3.44982H43.9998C44.1411 3.45254 44.2814 3.42672 44.4125 3.37391C44.5435 3.3211 44.6625 3.24238 44.7625 3.14248C44.8624 3.04257 44.9411 2.92353 44.9939 2.79249C45.0467 2.66144 45.0725 2.52108 45.0698 2.37982V2.18982H49.8198C50.3193 2.18525 50.815 2.27692 51.2798 2.45982C51.8181 2.66902 52.2934 3.01343 52.6598 3.45982L53.0698 3.96982C53.7898 4.87982 54.6198 5.96982 55.0698 6.57982L55.1598 6.71982C55.3898 7.04982 55.6698 7.41982 55.9098 7.78982C56.0819 8.00385 56.1955 8.2588 56.2398 8.52982C56.2398 8.79504 56.1344 9.04939 55.9469 9.23693C55.7594 9.42446 55.505 9.52982 55.2398 9.52982L29.5098 9.59982ZM57.6498 16.2198H55.0798C54.9636 16.2343 54.846 16.2343 54.7298 16.2198H48.3998C48.2957 16.2212 48.1923 16.2016 48.0959 16.1624C47.9994 16.1232 47.9118 16.0651 47.8382 15.9914C47.7646 15.9178 47.7064 15.8302 47.6672 15.7337C47.628 15.6373 47.6085 15.5339 47.6098 15.4298L47.6998 14.2598C47.7263 14.0441 47.8301 13.8452 47.9918 13.7C48.1536 13.5548 48.3624 13.473 48.5798 13.4698H57.4698C57.6907 13.4638 57.9057 13.5421 58.071 13.6889C58.2363 13.8356 58.3396 14.0397 58.3598 14.2598L58.4498 15.4198C58.4526 15.5252 58.4338 15.63 58.3944 15.7278C58.3551 15.8256 58.2961 15.9142 58.2211 15.9883C58.1461 16.0624 58.0567 16.1202 57.9584 16.1583C57.8602 16.1964 57.7551 16.214 57.6498 16.2098V16.2198Z" fill="#fff"/>
</g>
<defs>
<clipPath id="clip0">
<rect width="84.65" height="27.11" fill="white"/>
</clipPath>
</defs>
</svg>
