<svg width="85" height="36" viewBox="0 0 85 36" fill="none" xmlns="http://www.w3.org/2000/svg">
<g clip-path="url(#clip0)">
<path d="M59.7503 25.7001C58.7994 25.7021 57.8705 25.9859 57.0808 26.5156C56.2911 27.0453 55.6761 27.7972 55.3136 28.6763C54.9511 29.5554 54.8573 30.5222 55.044 31.4546C55.2307 32.387 55.6896 33.2431 56.3627 33.9148C57.0358 34.5865 57.8928 35.0436 58.8256 35.2284C59.7584 35.4132 60.725 35.3174 61.6033 34.953C62.4817 34.5887 63.2323 33.9722 63.7604 33.1814C64.2885 32.3906 64.5703 31.461 64.5703 30.5101C64.5677 29.2335 64.0587 28.0101 63.1551 27.1083C62.2514 26.2066 61.0269 25.7001 59.7503 25.7001ZM83.5103 26.0001V1.27012C83.5103 1.27012 83.5703 -0.199879 81.5103 -0.0198789H24.0603C24.0603 -0.0198789 19.0603 1.20012 17.8403 3.86012L16.4803 7.73012C16.4803 7.73012 16.4803 8.27012 16.8903 8.36012L19.5103 10.1301C16.8811 12.0773 14.4644 14.2963 12.3003 16.7501C11.8289 17.3528 11.1529 17.7619 10.4003 17.9001C8.70034 17.9001 1.76034 19.0101 1.19034 21.1001V21.7801L0.370336 26.8901C0.0480988 27.3721 -0.0837517 27.9565 0.000336166 28.5301L0.650336 30.2301C0.770336 30.5101 1.50034 30.5101 1.50034 30.5101L2.76034 30.3701V28.0501C2.76034 27.2001 3.95034 24.1801 8.31034 24.3001C9.36182 24.3218 10.3886 24.6232 11.2849 25.1733C12.1813 25.7234 12.9149 26.5024 13.4103 27.4301L14.4103 29.6801L27.0003 29.4401V29.3801V29.6901C27.0003 29.6901 27.0503 30.4801 27.4903 30.5601C28.2867 30.9084 29.1345 31.1246 30.0003 31.2001C30.0003 31.2001 31.4003 31.2001 31.6503 30.8801H53.0803L53.6703 30.5201C53.6703 30.5201 53.6703 24.7901 59.5803 24.3801C61.1754 24.3681 62.7155 24.9624 63.8888 26.043C65.0622 27.1235 65.7812 28.6095 65.9003 30.2001L83.4703 28.5301V28.8301L84.1103 29.3401L84.7503 29.0801V26.7801C84.6194 26.5618 84.439 26.3775 84.2235 26.242C84.0081 26.1064 83.7638 26.0236 83.5103 26.0001ZM25.0003 11.4901V15.2901C25.0003 15.2901 24.9203 17.8801 24.1603 17.8801L15.4903 18.1901C15.4903 18.1901 14.2703 18.2701 14.2003 17.6601C14.2431 16.9566 14.3984 16.2645 14.6603 15.6101L18.6603 11.6101C18.9297 11.3085 19.2572 11.0644 19.6232 10.8926C19.9892 10.7207 20.3862 10.6247 20.7903 10.6101H24.5203C24.5203 10.6101 25.3003 11.0001 25.0003 11.4901ZM44.9203 15.0701C44.9203 15.4653 44.7634 15.8443 44.4839 16.1237C44.2045 16.4031 43.8255 16.5601 43.4303 16.5601H34.8803C34.6847 16.5601 34.4909 16.5216 34.3101 16.4467C34.1294 16.3718 33.9651 16.2621 33.8267 16.1237C33.6884 15.9854 33.5786 15.8211 33.5038 15.6403C33.4289 15.4595 33.3903 15.2658 33.3903 15.0701V6.66012C33.3903 6.46445 33.4289 6.2707 33.5038 6.08992C33.5786 5.90915 33.6884 5.74489 33.8267 5.60653C33.9651 5.46817 34.1294 5.35842 34.3101 5.28354C34.4909 5.20866 34.6847 5.17012 34.8803 5.17012H43.4303C43.8255 5.17012 44.2045 5.3271 44.4839 5.60653C44.7634 5.88596 44.9203 6.26495 44.9203 6.66012V15.0701ZM57.2503 15.0701C57.2503 15.4653 57.0934 15.8443 56.8139 16.1237C56.5345 16.4031 56.1555 16.5601 55.7603 16.5601H47.2103C46.8152 16.5601 46.4362 16.4031 46.1567 16.1237C45.8773 15.8443 45.7203 15.4653 45.7203 15.0701V6.66012C45.7203 6.26495 45.8773 5.88596 46.1567 5.60653C46.4362 5.3271 46.8152 5.17012 47.2103 5.17012H55.7603C56.1555 5.17012 56.5345 5.3271 56.8139 5.60653C57.0934 5.88596 57.2503 6.26495 57.2503 6.66012V15.0701ZM69.5803 15.0701C69.5803 15.4653 69.4234 15.8443 69.1439 16.1237C68.8645 16.4031 68.4855 16.5601 68.0903 16.5601H59.5403C59.3447 16.5601 59.1509 16.5216 58.9701 16.4467C58.7894 16.3718 58.6251 16.2621 58.4867 16.1237C58.3484 15.9854 58.2386 15.8211 58.1638 15.6403C58.0889 15.4595 58.0503 15.2658 58.0503 15.0701V6.66012C58.0503 6.46445 58.0889 6.2707 58.1638 6.08992C58.2386 5.90915 58.3484 5.74489 58.4867 5.60653C58.6251 5.46817 58.7894 5.35842 58.9701 5.28354C59.1509 5.20866 59.3447 5.17012 59.5403 5.17012H68.0903C68.4855 5.17012 68.8645 5.3271 69.1439 5.60653C69.4234 5.88596 69.5803 6.26495 69.5803 6.66012V15.0701ZM81.9103 15.0701C81.9103 15.4653 81.7533 15.8443 81.4739 16.1237C81.1945 16.4031 80.8155 16.5601 80.4203 16.5601H71.8803C71.4852 16.5601 71.1062 16.4031 70.8267 16.1237C70.5473 15.8443 70.3903 15.4653 70.3903 15.0701V6.66012C70.3903 6.26495 70.5473 5.88596 70.8267 5.60653C71.1062 5.3271 71.4852 5.17012 71.8803 5.17012H80.4303C80.8255 5.17012 81.2045 5.3271 81.4839 5.60653C81.7634 5.88596 81.9203 6.26495 81.9203 6.66012L81.9103 15.0701ZM8.38034 25.3401C7.42944 25.3421 6.50046 25.6259 5.71077 26.1556C4.92109 26.6853 4.30614 27.4372 3.94361 28.3163C3.58109 29.1954 3.48726 30.1622 3.67398 31.0946C3.8607 32.027 4.3196 32.8831 4.99269 33.5548C5.66577 34.2265 6.52285 34.6836 7.45562 34.8684C8.3884 35.0532 9.35501 34.9574 10.2333 34.593C11.1117 34.2287 11.8623 33.6122 12.3904 32.8214C12.9185 32.0306 13.2003 31.101 13.2003 30.1501C13.1951 28.8743 12.6852 27.6524 11.7822 26.7512C10.8791 25.85 9.65614 25.3428 8.38034 25.3401Z" fill="black"/>
</g>
<defs>
<clipPath id="clip0">
<rect width="84.75" height="35.33" fill="white"/>
</clipPath>
</defs>
</svg>
