<svg width="87" height="31" viewBox="0 0 87 31" fill="none" xmlns="http://www.w3.org/2000/svg">
<g clip-path="url(#clip0)">
<path d="M12.1886 17.764C10.961 17.764 9.76094 18.1253 8.73999 18.8023C7.71904 19.4794 6.92301 20.4417 6.45244 21.5678C5.98187 22.6939 5.85788 23.9333 6.09612 25.1294C6.33437 26.3254 6.92416 27.4245 7.79101 28.2879C8.65785 29.1512 9.76286 29.74 10.9665 29.98C12.1701 30.2199 13.4183 30.1002 14.5534 29.6359C15.6885 29.1717 16.6597 28.3837 17.3442 27.3716C18.0287 26.3595 18.3958 25.1686 18.3992 23.9494C18.3969 22.3141 17.7419 20.7465 16.5777 19.5902C15.4134 18.4339 13.8351 17.7833 12.1886 17.7811V17.764ZM69.1176 17.7126C67.8819 17.7127 66.6738 18.0763 65.646 18.7576C64.6181 19.439 63.8166 20.4075 63.3425 21.541C62.8684 22.6744 62.7431 23.9219 62.9823 25.126C63.2215 26.3302 63.8146 27.4369 64.6866 28.3065C65.5586 29.1762 66.6704 29.7698 67.8818 30.0123C69.0932 30.2548 70.3498 30.1355 71.493 29.6693C72.6361 29.2032 73.6146 28.4111 74.3048 27.393C74.9951 26.375 75.3662 25.1767 75.3713 23.9494C75.369 22.3028 74.7094 20.7243 73.5371 19.56C72.3648 18.3957 70.7755 17.7406 69.1176 17.7383V17.7126ZM79.6524 1.04711C79.1786 1.01289 55.8523 -0.00518006 44.4131 -0.00518006C40.9411 -0.0958428 37.4668 0.0127037 34.0075 0.319918C33.4025 0.381994 32.8164 0.565352 32.2848 0.858895C30.562 1.71442 23.7484 6.98442 21.9481 8.75535C21.8182 8.69226 21.6784 8.65175 21.5347 8.63557C21.3175 8.67517 21.1144 8.7701 20.9453 8.91107C20.7762 9.05204 20.6468 9.23422 20.5699 9.43976C20.5699 9.43976 9.70782 9.91885 5.45257 10.7573C2.27406 11.3818 2.21376 12.7335 2.11901 13.0928L1.72277 13.2126V17.1737H0.706337C0.528945 17.1863 0.36148 17.2597 0.232622 17.3815C0.103763 17.5032 0.0215281 17.6656 0 17.841C0 18.4741 0.180891 20.0482 0.215347 20.3134C0.372047 20.8124 0.655769 21.2628 1.03906 21.621C1.42235 21.9792 1.89224 22.2331 2.40327 22.3581C2.44098 22.7463 2.50138 23.1319 2.58416 23.5131C2.6703 23.7098 3.12683 24.052 4.11743 24.052C4.11743 24.052 3.7901 15.4968 12.5246 15.4968C16.9521 15.4968 20.8972 18.1832 20.8972 25.053H61.3565C61.3565 25.053 60.4952 15.8219 69.109 15.8219C73.2954 15.8219 77.1716 18.4997 77.1716 23.9066C77.1716 23.9066 84.993 22.1956 85.906 21.8362C86.8191 21.4769 86.3712 21.4427 86.4918 21.0577C86.6124 20.6727 86.9914 18.2602 86.9914 17.9779C86.9914 17.6955 86.9914 17.4303 85.3978 17.3191L79.6524 1.04711ZM41.3982 9.95307H28.6497C28.8134 8.78101 29.5972 5.79525 29.5972 5.79525C30.674 4.81995 35.1273 1.51765 35.1273 1.51765C37.7115 1.28666 41.0106 1.28666 44.1202 1.28666L41.3982 9.95307Z" fill="#fff"/>
</g>
<defs>
<clipPath id="clip0">
<rect width="87" height="30.1485" fill="white"/>
</clipPath>
</defs>
</svg>
