<svg width="79" height="26" viewBox="0 0 79 26" fill="none" xmlns="http://www.w3.org/2000/svg">
<g clip-path="url(#clip0)">
<path d="M10.53 14.6199C9.47978 14.6199 8.45315 14.9313 7.57992 15.5148C6.7067 16.0983 6.0261 16.9276 5.6242 17.8979C5.2223 18.8681 5.11714 19.9358 5.32203 20.9658C5.52692 21.9959 6.03265 22.942 6.77526 23.6846C7.51788 24.4273 8.46403 24.933 9.49407 25.1379C10.5241 25.3428 11.5918 25.2376 12.562 24.8357C13.5323 24.4338 14.3616 23.7532 14.9451 22.88C15.5286 22.0068 15.84 20.9801 15.84 19.9299C15.84 18.5216 15.2806 17.171 14.2847 16.1752C13.2889 15.1793 11.9383 14.6199 10.53 14.6199V14.6199ZM59.46 14.6199C58.4098 14.6199 57.3831 14.9313 56.5099 15.5148C55.6367 16.0983 54.9561 16.9276 54.5542 17.8979C54.1523 18.8681 54.0471 19.9358 54.252 20.9658C54.4569 21.9959 54.9626 22.942 55.7053 23.6846C56.4479 24.4273 57.394 24.933 58.4241 25.1379C59.4541 25.3428 60.5218 25.2376 61.4921 24.8357C62.4623 24.4338 63.2916 23.7532 63.8751 22.88C64.4586 22.0068 64.77 20.9801 64.77 19.9299C64.77 18.5216 64.2106 17.171 63.2147 16.1752C62.2189 15.1793 60.8683 14.6199 59.46 14.6199V14.6199ZM78.41 14.9999C78.03 14.7899 77.96 13.9999 77.93 13.2099C77.9 12.4199 77.65 9.7299 76.79 8.8999C75.93 8.0699 68.79 7.1099 67.46 6.8999C66.13 6.6899 64.6 5.4399 63.15 4.3399C61.3716 2.78638 59.2714 1.64576 57 0.999903C53.9 0.139903 52.12 -9.72711e-05 47.61 -9.72711e-05C43.572 -0.113453 39.5346 0.245651 35.58 1.0699C33.11 1.6399 25.08 7.0699 25.08 7.0699C15.47 7.0899 2.14 8.9999 1 9.7099C0.43 10.0499 0 11.3699 0 13.6199C0 18.0899 0.13 20.2699 0.59 20.8999C1.05 21.5299 1.94 21.9999 3.87 21.9999C3.52694 20.9264 3.44816 19.7859 3.64036 18.6754C3.83257 17.5648 4.29006 16.5172 4.97397 15.6214C5.65787 14.7256 6.54795 14.0081 7.56856 13.5301C8.58916 13.052 9.71011 12.8275 10.8361 12.8755C11.9621 12.9235 13.0599 13.2427 14.036 13.8059C15.0122 14.3692 15.838 15.1598 16.4431 16.1105C17.0483 17.0613 17.4149 18.1441 17.5119 19.267C17.6088 20.3898 17.4332 21.5195 17 22.5599C18 22.5599 18.85 22.6199 19.34 22.6199C21.82 22.6199 49.49 22.1399 52.01 22.1399H52.86C52.5038 21.1189 52.3891 20.0292 52.5247 18.9564C52.6604 17.8836 53.0427 16.8568 53.6417 15.9565C54.2408 15.0563 55.0403 14.307 55.9775 13.7676C56.9147 13.2282 57.9641 12.9132 59.0435 12.8474C60.1228 12.7816 61.2027 12.9667 62.1985 13.3883C63.1943 13.8099 64.0789 14.4565 64.7829 15.2773C65.4869 16.0981 65.9911 17.0709 66.2561 18.1193C66.521 19.1676 66.5395 20.2632 66.31 21.3199L67.02 21.2599C68.54 21.1199 77.63 19.7399 78.18 19.4299C78.73 19.1199 78.97 17.7399 79.01 16.5699C79.05 15.3999 78.79 15.2199 78.41 14.9999V14.9999ZM45.92 7.5199C43.74 7.5199 29.61 7.7099 28.74 7.8599C27.87 8.0099 35.04 2.9599 36.74 2.4699C38.44 1.9799 42.18 1.8499 46.31 1.8499C50.44 1.8499 49.22 2.1099 50.26 2.5399C51.3 2.9699 51.98 4.5399 53.57 7.6699C53.55 7.6799 48.09 7.4999 45.92 7.5199V7.5199Z" fill="#fff"/>
</g>
<defs>
<clipPath id="clip0">
<rect width="79" height="25.24" fill="white"/>
</clipPath>
</defs>
</svg>
