<svg width="24" height="24" viewBox="0 0 24 24" fill="none" xmlns="http://www.w3.org/2000/svg">
<g clip-path="url(#clip0)">
<path d="M12.0037 5.83789C8.6007 5.83789 5.8457 8.59589 5.8457 11.9959C5.8457 15.3989 8.6037 18.1539 12.0037 18.1539C15.4067 18.1539 18.1617 15.3959 18.1617 11.9959C18.1617 8.59289 15.4037 5.83789 12.0037 5.83789ZM12.0037 15.9929C9.7947 15.9929 8.0067 14.2039 8.0067 11.9959C8.0067 9.78789 9.7957 7.99889 12.0037 7.99889C14.2117 7.99889 16.0007 9.78789 16.0007 11.9959C16.0017 14.2039 14.2127 15.9929 12.0037 15.9929Z" fill="white"/>
<path d="M16.9472 0.0768515C14.7392 -0.0261485 9.27025 -0.0211485 7.06025 0.0768515C5.11825 0.167851 3.40525 0.636851 2.02425 2.01785C-0.283749 4.32585 0.0112507 7.43585 0.0112507 11.9969C0.0112507 16.6648 -0.248749 19.7028 2.02425 21.9758C4.34125 24.2918 7.49625 23.9888 12.0032 23.9888C16.6272 23.9888 18.2232 23.9918 19.8582 23.3588C22.0812 22.4958 23.7592 20.5088 23.9232 16.9398C24.0272 14.7308 24.0212 9.26285 23.9232 7.05285C23.7252 2.83985 21.4642 0.284851 16.9472 0.0768515ZM20.4422 20.4488C18.9293 21.9618 16.8302 21.8268 11.9742 21.8268C6.97425 21.8268 4.96925 21.9008 3.50625 20.4338C1.82125 18.7568 2.12625 16.0638 2.12625 11.9808C2.12625 6.45585 1.55925 2.47685 7.10425 2.19285C8.37825 2.14785 8.75325 2.13285 11.9602 2.13285L12.0052 2.16285C17.3342 2.16285 21.5152 1.60485 21.7662 7.14885C21.8232 8.41385 21.8362 8.79385 21.8362 11.9958C21.8352 16.9378 21.9293 18.9548 20.4422 20.4488Z" fill="white"/>
<path d="M18.4058 7.03376C19.2005 7.03376 19.8448 6.3895 19.8448 5.59476C19.8448 4.80002 19.2005 4.15576 18.4058 4.15576C17.6111 4.15576 16.9668 4.80002 16.9668 5.59476C16.9668 6.3895 17.6111 7.03376 18.4058 7.03376Z" fill="white"/>
</g>
<defs>
<clipPath id="clip0">
<rect width="24" height="24" fill="white"/>
</clipPath>
</defs>
</svg>
