<svg width="55" height="55" viewBox="0 0 55 55" fill="none" xmlns="http://www.w3.org/2000/svg">
<g clip-path="url(#clip0)">
<path d="M54.9078 25.4656C54.9396 25.3795 54.958 25.2894 54.962 25.1976C54.962 25.1008 54.9463 25.0044 54.9163 24.9126L54.8455 24.7123C54.0963 17.4707 50.5015 10.8234 44.8512 6.23288C44.4474 5.90396 44.0253 5.60686 43.6032 5.30214C43.5821 5.28467 43.5709 5.26002 43.5481 5.24344C43.5252 5.22686 43.5068 5.22865 43.4876 5.21655C38.816 1.86779 33.2154 0.0623283 27.4674 0.0515735C27.2308 0.0515735 26.9929 0.0515735 26.8159 0.0699462C23.7499 0.129546 20.717 0.712992 17.8477 1.79519C15.3602 -0.145149 11.9837 -0.49692 9.14936 0.889102C6.31503 2.27512 4.51943 5.15651 4.52391 8.31124C4.57903 9.36073 4.8228 10.3914 5.24448 11.3535C4.30792 12.6338 3.48339 13.992 2.78029 15.4139C2.7664 15.4358 2.75834 15.4596 2.74624 15.4824C-3.7604 28.9362 1.65373 45.1244 14.9453 51.9564C28.2364 58.7888 44.5514 53.7703 51.7051 40.6491C53.6643 37.0395 54.7778 33.032 54.9611 28.9295C54.9898 28.4868 54.9997 28.0355 54.9997 27.5838C54.9997 26.8726 54.9629 26.1678 54.9078 25.4656ZM52.2411 20.7559C52.1246 20.6523 52.017 20.5327 51.8951 20.4373C50.696 19.5267 49.3368 18.8478 47.8881 18.436C46.5688 18.1048 45.19 18.0905 43.864 18.3938C42.7361 18.6493 41.5665 18.6551 40.4359 18.4109C38.2419 17.9318 36.5082 17.5541 35.5886 16.0856C34.2716 13.9745 34.8891 11.0076 36.2787 9.96344C36.7367 9.64752 37.3018 9.52698 37.8489 9.62825C38.8222 9.70802 39.8005 9.54311 40.694 9.14922C41.6449 8.70379 42.4896 8.06074 43.1721 7.2622C43.3455 7.39619 43.5288 7.51673 43.6986 7.6552C47.8401 11.0268 50.8259 15.6066 52.2411 20.7559ZM12.7836 1.88706C16.3295 1.89288 19.2024 4.76575 19.2078 8.31124C19.2078 11.0564 15.0847 17.3412 12.7836 20.5273C10.6017 17.5787 8.70573 14.4285 7.12209 11.1196C6.69055 10.2408 6.43154 9.28768 6.35939 8.31124C6.36343 4.76485 9.23719 1.89109 12.7836 1.88706ZM1.77069 27.5838C1.77427 25.8738 1.9468 24.1678 2.28557 22.4914C2.38371 23.7672 2.54996 24.9023 2.69874 25.8868C3.26739 29.6496 3.80469 33.1969 6.57807 36.4408C7.7378 37.8076 9.67993 40.0925 12.6828 40.4304C15.6856 40.7683 19.4457 39.0408 20.5319 38.503L20.9487 38.2929C21.5259 37.9294 22.1855 37.7184 22.8662 37.6789C24.0273 37.7843 25.1027 38.3336 25.869 39.2124C27.4352 40.9462 27.8327 43.841 26.7195 45.4072C26.3628 45.8723 25.8704 46.2147 25.3098 46.3867C24.3503 46.7076 23.5348 47.3578 23.0082 48.2222C22.2325 49.6266 22.0883 51.294 22.6117 52.8109C10.5251 50.4691 1.78951 39.8953 1.77069 27.5838ZM27.4674 53.2805C26.5806 53.2805 25.6947 53.2348 24.8124 53.1439C24.7371 53.0475 24.6672 52.9471 24.6031 52.8427C23.9829 51.6956 23.9762 50.314 24.5856 49.161C24.9168 48.6349 25.4299 48.2491 26.0267 48.077C26.9019 47.7754 27.6655 47.2148 28.2153 46.4701C29.8115 44.2255 29.3598 40.3367 27.2335 37.9846C26.1276 36.72 24.5627 35.9492 22.8863 35.8435H22.8456C21.879 35.8726 20.937 36.1531 20.1116 36.6577L19.72 36.8558C17.7146 37.8443 14.8615 38.8216 12.8866 38.5994C10.6075 38.3444 9.02479 36.4793 7.97485 35.2443C5.54069 32.3993 5.06434 29.2512 4.51405 25.6081C3.92344 22.4914 3.90013 19.2941 4.44415 16.1689C4.93573 15.1737 5.49094 14.2111 6.1071 13.2871C6.13758 13.3481 6.17118 13.4103 6.19897 13.4708C6.25767 13.5874 6.31817 13.703 6.38225 13.8195C6.47411 13.9929 6.56597 14.1663 6.65784 14.3411C6.72102 14.4585 6.7851 14.5759 6.85053 14.6942C6.94777 14.8685 7.04591 15.0428 7.14494 15.2172C7.21126 15.3328 7.27713 15.4488 7.34435 15.5644C7.44652 15.7388 7.54869 15.9122 7.65176 16.0856C7.71942 16.1994 7.78664 16.3123 7.8552 16.4253C7.96365 16.6086 8.07299 16.7802 8.18233 16.9572C8.24462 17.0576 8.30601 17.1593 8.36561 17.2583C8.50139 17.4761 8.63627 17.6872 8.77115 17.9009C8.807 17.956 8.84285 18.0138 8.8778 18.0681C9.04585 18.3284 9.21255 18.5825 9.37611 18.8303C9.4384 18.9222 9.49889 19.014 9.55984 19.1059C9.66066 19.2574 9.76149 19.4088 9.85962 19.5536L10.0774 19.8722C10.1563 19.9887 10.236 20.1052 10.3131 20.2163L10.5331 20.5327C10.6013 20.6313 10.6694 20.7276 10.7343 20.8199C10.7993 20.9127 10.8728 21.0176 10.9409 21.1121C11.0086 21.2067 11.0548 21.2725 11.109 21.3487L11.2923 21.6019L11.4419 21.8094L11.588 22.0106L11.7072 22.1719L11.8192 22.3243L11.886 22.4161C11.968 22.5273 12.0303 22.6106 12.0478 22.6335C12.2207 22.8647 12.4928 23.0009 12.7818 23.0009C13.0708 23.0009 13.3428 22.8647 13.5158 22.6335C14.2861 21.6122 21.0432 12.5531 21.0432 8.31124C21.0432 8.04327 21.0267 7.77709 21.0011 7.5127C20.9931 7.43114 20.9801 7.34958 20.9698 7.26803C20.946 7.0843 20.9178 6.90057 20.8783 6.71729C20.8609 6.62543 20.8416 6.53939 20.8214 6.45111C20.7789 6.26739 20.7296 6.08411 20.6736 5.90038C20.6507 5.82689 20.6314 5.7525 20.6072 5.68035C20.5248 5.43434 20.432 5.19101 20.3267 4.95441C20.3065 4.90915 20.2823 4.86254 20.2613 4.82132C20.1694 4.63042 20.078 4.44131 19.9723 4.25669C19.9265 4.17424 19.8759 4.09447 19.8266 4.01336C19.7383 3.86862 19.6465 3.72612 19.551 3.58586C19.4941 3.5043 19.4363 3.42275 19.3767 3.34253C19.3453 3.3022 19.3189 3.25919 19.2848 3.21975C21.1943 2.57671 23.1745 2.16623 25.1825 1.99729C23.7517 4.69808 23.2843 7.19633 23.8184 9.43108C24.2168 10.9278 24.9728 12.3057 26.0214 13.4462C26.8849 14.5154 27.506 15.2862 27.4674 16.5445C27.3886 19.2058 24.3831 21.4213 23.2457 22.2584C21.754 23.3325 20.0865 24.1378 18.3178 24.6388C16.6508 25.1832 15.2128 25.6529 14.663 27.2939C14.1194 29.461 15.0121 31.7347 16.8852 32.9527C18.0077 33.559 19.3306 33.6759 20.5423 33.2758C21.8696 32.9675 23.2417 32.9016 24.5923 33.0822C26.3359 33.3291 27.8394 33.541 28.5523 34.5395C28.9753 35.1359 28.9534 35.7525 28.8709 36.8835C28.6827 38.4847 28.8454 40.1077 29.3468 41.6398C29.7654 42.8955 30.3977 44.7914 31.9168 45.0101C32.0154 45.0258 32.1153 45.0339 32.2148 45.0339C33.2898 45.0339 33.9476 44.0848 34.6395 43.0864C34.9451 42.645 35.2821 42.1686 35.6859 41.6905C37.5747 44.7421 39.4935 47.2888 39.5827 47.4098C39.7561 47.641 40.0281 47.7768 40.3167 47.7768C40.6057 47.7768 40.8777 47.641 41.0512 47.4098C43.0421 44.7435 44.857 41.949 46.4832 39.0457C47.6107 39.3724 48.6844 39.8617 49.6702 40.4985C45.0784 48.414 36.6184 53.2846 27.4674 53.2805ZM44.5971 28.3062C45.9607 29.5223 46.7404 31.2628 46.74 33.0902C46.74 33.7503 46.472 35.0588 45.1994 37.5441C43.7466 40.2368 42.1154 42.8287 40.3158 45.3027C39.4523 44.0995 37.9663 41.9638 36.6368 39.7192C35.8956 38.4887 35.2337 37.2129 34.6543 35.8986C34.2228 35.0198 33.9638 34.0667 33.8916 33.0902C33.8957 29.5439 36.7694 26.6701 40.3158 26.6661C40.5143 26.6661 40.711 26.675 40.9069 26.6929C42.279 26.8171 43.5741 27.3835 44.5971 28.3062ZM53.1319 28.8349C52.9737 32.3258 52.0941 35.7458 50.5476 38.8794C49.5421 38.2436 48.4585 37.739 47.3248 37.3778C48.0337 36.0509 48.4599 34.5905 48.5755 33.0902C48.5679 29.9409 46.7772 27.0676 43.9527 25.673L43.8949 25.6475C43.6897 25.5485 43.4813 25.4557 43.2684 25.3723C43.1224 25.3154 42.9709 25.2711 42.8212 25.2236C42.7294 25.1958 42.6469 25.1613 42.5577 25.1317C42.3211 25.0645 42.0805 25.0098 41.8385 24.9646H41.8264C41.6799 24.9372 41.5311 24.9224 41.3823 24.9032C39.0225 24.5765 36.6372 25.2921 34.847 26.8637C33.0563 28.4357 32.0378 30.7081 32.0561 33.0902C32.1274 34.3136 32.4361 35.5119 32.9649 36.6174C33.4794 37.7887 34.0597 38.9301 34.7032 40.0356C34.1296 40.6634 33.6044 41.3333 33.1316 42.04C32.8793 42.4724 32.5607 42.8623 32.1874 43.1957C32.0037 43.1679 31.6636 42.7763 31.086 41.0591C30.6647 39.7555 30.5325 38.3753 30.6997 37.0157C30.9381 35.7946 30.7037 34.5287 30.0445 33.4738C28.8727 31.8351 26.8271 31.5465 24.8365 31.2642C23.2892 31.0527 21.7163 31.1235 20.1945 31.4725C19.0205 31.6971 18.4755 31.7808 17.8522 31.3923C16.7136 30.6117 16.1444 29.2311 16.4021 27.8746C16.6472 27.1406 17.3817 26.8753 18.8802 26.3833C20.8371 25.8218 22.6816 24.9256 24.3324 23.734C25.6696 22.7531 29.1967 20.15 29.3029 16.5987C29.3616 14.6557 28.3897 13.457 27.45 12.2981C26.5815 11.3678 25.9497 10.2426 25.6073 9.01702C25.1198 6.97227 25.7238 4.5744 27.3621 1.88706H27.4674C32.5199 1.89422 37.4591 3.38735 41.6696 6.18045C41.1834 6.72222 40.595 7.16227 39.9376 7.47551C39.2977 7.75244 38.5982 7.86178 37.9041 7.79367C36.9388 7.67447 35.9646 7.92496 35.1764 8.49497C33.0953 10.0616 32.1628 14.0565 34.0332 17.0567C35.3646 19.183 37.6388 19.6786 40.1222 20.2199C41.459 20.5022 42.8405 20.4964 44.175 20.2024C45.246 19.947 46.3627 19.9501 47.4319 20.2127C48.6351 20.5596 49.7643 21.1251 50.7636 21.8802C51.8015 22.741 52.5884 23.8649 53.0423 25.1344C53.1176 25.945 53.1642 26.7579 53.1642 27.5838C53.1642 27.9943 53.1561 28.4097 53.1283 28.8349H53.1319Z" fill="black"/>
<path d="M12.7838 11.0646C14.811 11.0646 16.4547 9.42134 16.4547 7.39362C16.4547 5.36634 14.811 3.72266 12.7838 3.72266C10.7565 3.72266 9.11279 5.36634 9.11279 7.39362C9.11279 9.42134 10.7565 11.0646 12.7838 11.0646ZM12.7838 5.55814C13.7974 5.55814 14.6192 6.37998 14.6192 7.39362C14.6192 8.40726 13.7974 9.2291 12.7838 9.2291C11.7701 9.2291 10.9483 8.40726 10.9483 7.39362C10.9483 6.37998 11.7701 5.55814 12.7838 5.55814Z" fill="black"/>
<path d="M36.645 32.1724C36.645 34.2002 38.2887 35.8434 40.316 35.8434C42.3433 35.8434 43.9869 34.2002 43.9869 32.1724C43.9869 30.1452 42.3433 28.5015 40.316 28.5015C38.2887 28.5015 36.645 30.1452 36.645 32.1724ZM42.1515 32.1724C42.1515 33.1861 41.3296 34.0079 40.316 34.0079C39.3023 34.0079 38.4805 33.1861 38.4805 32.1724C38.4805 31.1588 39.3023 30.3369 40.316 30.3369C41.3296 30.3369 42.1515 31.1588 42.1515 32.1724Z" fill="black"/>
</g>
<defs>
<clipPath id="clip0">
<rect width="55" height="55" fill="white"/>
</clipPath>
</defs>
</svg>
