<svg width="60" height="60" viewBox="0 0 60 60" fill="none" xmlns="http://www.w3.org/2000/svg">
<g clip-path="url(#clip0)">
<path d="M60 20.4341C59.9986 19.5232 59.7307 18.5994 59.1383 17.8379L54.3843 11.7549C53.588 10.7438 52.3764 10.229 51.1656 10.2271C50.445 10.2271 49.7113 10.4117 49.063 10.816L44.4275 13.7C43.94 14.0109 43.1043 14.2243 42.297 14.2188C41.6698 14.2215 41.0637 14.096 40.6635 13.8983L36.1241 11.6995C35.3919 11.347 34.5757 11.2025 33.7549 11.2011C32.5761 11.2066 31.3823 11.4963 30.423 12.1611L29.8934 12.5327C29.47 12.3214 28.823 11.9995 28.0901 11.6348C27.2112 11.2039 26.1777 11.0301 25.1338 11.0267C24.1908 11.0294 23.248 11.1747 22.4202 11.5244L19.3283 12.8437C18.8251 13.0619 18.0247 13.2044 17.2297 13.2009C16.4347 13.2043 15.6357 13.0618 15.1325 12.8437L12.0379 11.5237C11.4734 11.283 10.87 11.1801 10.272 11.1794C9.58336 11.1801 8.89887 11.3158 8.26266 11.5735C7.62727 11.8326 7.03746 12.2151 6.56778 12.74L0.933402 19.0501C0.30891 19.7475 -0.00128506 20.6257 4.00102e-06 21.4902C-0.00128506 22.5211 0.439809 23.5553 1.29059 24.2801L6.54645 28.7641L4.05317 31.3651C3.36586 32.0824 3.02368 33.0124 3.02368 33.932C3.02239 34.9104 3.41098 35.8983 4.18067 36.6257L4.68645 37.1062C5.16305 37.5583 5.73575 37.8459 6.33504 37.9993C6.03446 38.5522 5.87016 39.1584 5.87145 39.7658C5.87016 40.7449 6.25875 41.7321 7.02704 42.4603L7.02575 42.4596L7.53305 42.9423C8.25516 43.6268 9.19125 43.9677 10.1135 43.9671C10.6092 43.9678 11.1055 43.8682 11.5719 43.6732C11.7356 44.3373 12.0737 44.9686 12.6055 45.4731L13.1128 45.9558C13.8349 46.6403 14.7695 46.9812 15.6933 46.9806C16.4154 46.9813 17.1408 46.7685 17.7653 46.3554C17.948 46.9431 18.261 47.5001 18.7375 47.9528L19.2448 48.4355C19.9654 49.1199 20.9014 49.4608 21.8239 49.4603C22.8063 49.461 23.7984 49.0751 24.5312 48.3101L26.7348 46.009L29.7286 48.7798C30.4452 49.4444 31.365 49.7751 32.273 49.7732C33.2705 49.7753 34.2768 49.3757 35.0111 48.5896L35.4889 48.0776C35.9014 47.6345 36.1707 47.1101 36.327 46.5627L37.4866 47.6331C38.2045 48.2951 39.1231 48.6244 40.0297 48.6237C41.0285 48.6244 42.0376 48.2248 42.7726 47.4381L43.2478 46.9267C43.7966 46.3404 44.1055 45.6142 44.2009 44.8725C44.507 44.9509 44.8172 45.0041 45.1301 45.0041C46.1289 45.0041 47.1352 44.6052 47.8709 43.8192L48.3475 43.3078C49.0136 42.5939 49.345 41.6783 49.3436 40.7756C49.3436 40.4954 49.3034 40.2166 49.2413 39.9411C50.0696 39.8313 50.8729 39.4618 51.4836 38.8059L51.9615 38.2939C52.6276 37.58 52.9576 36.6644 52.9576 35.761C52.9589 34.7671 52.5581 33.764 51.7672 33.0333L50.8734 32.2077L58.9404 23.2885C59.6646 22.4856 59.9987 21.452 60 20.4341ZM7.26727 36.1015C6.83989 36.1002 6.42188 35.9474 6.09528 35.6379L5.58868 35.1573C5.23817 34.8259 5.06508 34.3849 5.06368 33.9321C5.06508 33.5074 5.21707 33.0928 5.53008 32.7662L10.6366 27.4373C10.9693 27.0902 11.4132 26.9164 11.8686 26.9158C12.2947 26.9165 12.7113 27.0699 13.0406 27.3801L13.5451 27.8614C13.5451 27.8614 14.0674 28.6338 14.0687 29.0872C14.0674 29.4267 13.9651 29.7574 13.7667 30.0438C13.7497 30.0608 8.25516 35.7872 8.25516 35.7872C7.96336 35.9937 7.61836 36.0999 7.26727 36.1015ZM11.3456 41.4167C11.0136 41.7624 10.5704 41.9355 10.115 41.9369C9.68766 41.9362 9.27094 41.7828 8.94305 41.4733L8.43575 40.9912L8.43446 40.9905C8.08676 40.6605 7.91215 40.2181 7.91215 39.7653C7.91215 39.3407 8.06555 38.926 8.37704 38.5994C8.37704 38.5994 15.184 31.5137 15.2413 31.4454C15.5666 31.1325 15.9858 30.9709 16.4187 30.9702C16.8461 30.9709 17.2628 31.1236 17.5907 31.4338L18.098 31.9165C18.447 32.2465 18.6203 32.6883 18.6216 33.1417C18.6202 33.5664 18.4669 33.9815 18.1552 34.3081L11.3456 41.4167ZM16.9246 44.4294C16.5933 44.7759 16.1502 44.9492 15.6947 44.9505C15.2673 44.9498 14.8506 44.7964 14.5227 44.4862L14.014 44.0041C13.665 43.6734 13.4904 43.2317 13.4904 42.7789C13.4904 42.3999 13.6193 42.0323 13.866 41.7262L18.6064 36.7785C18.9263 36.4901 19.327 36.3381 19.7423 36.3381C20.1697 36.3388 20.5864 36.4915 20.9143 36.8017L21.423 37.2844C21.7707 37.6144 21.9454 38.0562 21.9466 38.5089C21.9452 38.9344 21.7906 39.3496 21.4802 39.6753L16.9246 44.4294ZM25.9318 43.9072L23.0554 46.9093C22.7239 47.2556 22.2802 47.4289 21.8248 47.4302C21.3974 47.4295 20.9807 47.2761 20.6528 46.9659L20.1455 46.4838C19.7978 46.1538 19.6232 45.7114 19.6219 45.2586C19.6232 44.8331 19.7766 44.4179 20.0883 44.0927L22.9635 41.0907C23.2962 40.7444 23.7401 40.5705 24.1955 40.5698C24.6216 40.5705 25.0396 40.7232 25.3675 41.0341L25.8762 41.5162C26.2239 41.8462 26.3971 42.288 26.3985 42.7407C26.3968 43.1661 26.2434 43.5813 25.9318 43.9072ZM50.9207 35.7637C50.9201 36.1807 50.7707 36.5891 50.468 36.9136L49.9914 37.425C49.6587 37.7809 49.2073 37.9609 48.7451 37.9616C48.3258 37.9609 47.9153 37.8136 47.5895 37.5124L39.5581 30.0849L38.1693 31.5719L46.7659 39.5359C47.1239 39.8673 47.3038 40.3173 47.3065 40.7768C47.3038 41.1954 47.1558 41.6031 46.8538 41.9277L46.3786 42.4391C46.0459 42.795 45.5945 42.9743 45.1323 42.9757C44.713 42.9744 44.3012 42.8264 43.978 42.5271L35.9445 35.0998L34.5571 36.5867L41.6865 43.1797C42.0301 43.509 42.2061 43.9474 42.2061 44.3973C42.2061 44.8146 42.0581 45.2229 41.7561 45.5468L41.2795 46.0582C40.9481 46.4141 40.4954 46.5941 40.032 46.5954C39.6113 46.5941 39.2009 46.4461 38.8764 46.1468L31.7612 39.5777H31.7599L31.7586 39.5764L30.374 41.0661L30.3754 41.0674L30.402 41.0926L33.9656 44.3816C34.2813 44.7061 34.4449 45.122 34.4462 45.5522C34.4449 45.9674 34.2982 46.3737 33.9962 46.6977L33.5196 47.2097C33.1869 47.5656 32.7369 47.7442 32.276 47.7456C31.8567 47.7443 31.4462 47.597 31.1217 47.2964L28.0189 44.4233C28.2889 43.8936 28.4397 43.3188 28.4397 42.742C28.4409 41.7636 28.0523 40.7771 27.2841 40.0483L26.7754 39.5657C26.0548 38.8817 25.12 38.5403 24.1976 38.5415C24.126 38.5415 24.0538 38.558 23.9836 38.5621C23.9836 38.5451 23.9876 38.5273 23.9876 38.5103C23.9889 37.5319 22.832 35.8152 22.832 35.8152L22.3247 35.3339C21.7854 34.8225 21.1274 34.5035 20.443 34.3753C20.5841 33.9758 20.6639 33.5599 20.6639 33.1433C20.6639 32.1649 20.2766 31.1776 19.5083 30.4496L19.001 29.9669C18.2789 29.2824 17.3443 28.9408 16.4218 28.9415C16.3141 28.9415 16.2079 28.9633 16.1007 28.973C16.0714 28.0335 15.6931 27.0947 14.9568 26.3952V26.3945L14.4509 25.9139C13.7288 25.2287 12.7942 24.8871 11.8717 24.8878C10.8878 24.8871 9.89719 25.273 9.16442 26.038L7.95903 27.2959L2.61926 22.7415C2.23547 22.4129 2.04387 21.9588 2.04246 21.4925C2.04375 21.1018 2.17676 20.7193 2.46036 20.4017L8.09461 14.0918C8.31821 13.8409 8.64891 13.6139 9.03621 13.4563C9.42352 13.2988 9.86321 13.2123 10.2743 13.2129C10.6323 13.2129 10.9683 13.2777 11.237 13.3936L14.3303 14.7135C15.2023 15.081 16.2147 15.2317 17.2321 15.2349C18.2507 15.2315 19.2618 15.0808 20.1339 14.7135L23.2257 13.3942C23.7023 13.1863 24.4215 13.0574 25.1367 13.0601C25.9276 13.0553 26.7198 13.219 27.1793 13.4535C27.4711 13.5987 27.7479 13.7365 28.0049 13.8653L24.8516 16.0819C23.8384 16.7944 23.2923 17.9274 23.2937 19.0708C23.2924 19.8276 23.5323 20.598 24.0205 21.2518L24.0192 21.2504L24.4357 21.8101C25.2266 22.8615 26.4599 23.4021 27.6926 23.4048C28.3887 23.4048 29.0978 23.2289 29.7298 22.8498L31.6156 21.7173C32.0002 21.4821 32.5809 21.3335 33.1815 21.3362C33.8872 21.3321 34.5983 21.5408 35.0258 21.855L40.2429 25.5953C41.404 26.4271 43.2952 27.9699 44.3432 28.9408L50.3817 34.524C50.7393 34.8555 50.9193 35.3035 50.9207 35.7637ZM57.4263 21.9313L49.3819 30.8265L45.7295 27.4503C44.5855 26.3942 42.699 24.8542 41.4336 23.9453L36.218 20.205C35.3337 19.5785 34.251 19.3077 33.1806 19.3037C32.2697 19.3064 31.352 19.5049 30.5598 19.9766L28.6754 21.1091C28.3863 21.2829 28.0455 21.3716 27.6915 21.3723C27.0587 21.3744 26.4254 21.0791 26.0723 20.5984L25.6572 20.0394L25.6557 20.038C25.4348 19.7401 25.332 19.406 25.3304 19.0678C25.3331 18.5564 25.569 18.0601 26.0259 17.7376L31.6016 13.82C32.0837 13.471 32.9414 13.2262 33.7561 13.2323C34.322 13.2296 34.8626 13.3434 35.2328 13.5262L39.772 15.725C40.5459 16.0966 41.4193 16.2486 42.298 16.2507C43.427 16.2452 44.5683 15.9998 45.5086 15.4223L50.1455 12.5378C50.4414 12.3531 50.7966 12.2576 51.1669 12.2576C51.7928 12.2563 52.42 12.5399 52.7752 13.0028L57.5292 19.0857C57.8033 19.4341 57.9621 19.9256 57.9621 20.435C57.9629 21.0047 57.7617 21.5652 57.4263 21.9313Z" fill="black"/>
</g>
<defs>
<clipPath id="clip0">
<rect width="60" height="60" fill="white"/>
</clipPath>
</defs>
</svg>
