<svg width="55" height="55" viewBox="0 0 55 55" fill="none" xmlns="http://www.w3.org/2000/svg">
<g clip-path="url(#clip0)">
<path d="M53.6527 10.8078C54.167 10.0827 54.5944 9.29976 54.926 8.47499C55.1158 7.90298 54.9169 7.27379 54.4329 6.91474C53.6941 6.45102 52.9024 6.07756 52.0748 5.80236C51.0441 5.49732 49.9761 5.33717 48.9013 5.32652C48.5673 4.25423 48.0915 3.2314 47.4865 2.2852C46.9987 1.56605 46.4285 0.906323 45.7877 0.319407C45.2911 -0.0685369 44.5981 -0.082205 44.0866 0.285857C43.4294 0.881112 42.8453 1.55246 42.3468 2.28575C41.7419 3.23165 41.2663 4.25417 40.9324 5.32615C39.8536 5.33717 38.7816 5.49853 37.7473 5.80557C36.9773 6.06671 36.2368 6.40812 35.5382 6.82417C34.4279 6.54771 33.2892 6.40132 32.1451 6.38793C31.7487 5.07824 31.1741 3.82924 30.4376 2.67598C29.8557 1.80695 29.1693 1.01267 28.3939 0.310974C27.8693 -0.0936899 27.1382 -0.0953445 26.6118 0.306941C25.8381 1.00595 25.1529 1.79712 24.5716 2.66278C23.8313 3.8199 23.2539 5.07345 22.8555 6.38811C21.7108 6.397 20.5713 6.5434 19.4615 6.82417C18.7594 6.40647 18.0153 6.06397 17.2414 5.80236C16.2108 5.49732 15.1428 5.33717 14.068 5.32652C13.734 4.25423 13.2582 3.2314 12.6531 2.2852C12.1653 1.56605 11.5952 0.906323 10.9544 0.319407C10.4578 -0.0685369 9.76473 -0.082205 9.25322 0.285857C8.59602 0.881112 8.012 1.55246 7.51348 2.28575C6.9086 3.23165 6.43292 4.25417 6.09906 5.32615C5.02026 5.33717 3.94826 5.49853 2.91401 5.80557C2.09264 6.07978 1.30681 6.45077 0.57312 6.9107C0.0874429 7.26735 -0.11452 7.89542 0.0722531 8.4683C0.404615 9.29661 0.833556 10.0828 1.35018 10.8106C2.01549 11.6962 2.79792 12.4874 3.67604 13.1626C3.33923 14.2525 3.14813 15.3822 3.1077 16.5222C3.09991 17.4098 3.19362 18.2954 3.38701 19.1617C3.54715 19.7616 4.09471 20.1757 4.71554 20.1665C5.5839 20.0896 6.43897 19.9027 7.2602 19.6102C8.26923 19.2234 9.21947 18.698 10.0835 18.049C10.9468 18.6976 11.8961 19.2227 12.9042 19.6093C13.7303 19.9037 14.5907 20.091 15.4644 20.1665C16.0718 20.1737 16.6081 19.7718 16.7718 19.1868C16.9709 18.3075 17.067 17.4081 17.0583 16.5066C17.0168 15.3715 16.8259 14.2469 16.4907 13.1617C16.7144 12.9899 16.9215 12.8105 17.1258 12.6293C17.1377 12.6454 17.1525 12.6671 17.1634 12.6815C17.9765 13.7677 18.9398 14.733 20.0244 15.5483C19.6049 16.8718 19.3663 18.246 19.315 19.6335C19.3022 20.6846 19.411 21.7337 19.6391 22.7599C19.8115 23.3957 20.3898 23.8361 21.0486 23.8332C22.0753 23.7442 23.0861 23.5218 24.0553 23.1716C24.3013 23.0732 24.5297 22.9749 24.7504 22.8763V32.868C24.7925 33.7395 24.7038 34.6125 24.4872 35.4577C24.4214 35.6598 24.2558 35.8135 24.0495 35.8642C23.8561 35.9157 23.6498 35.862 23.5061 35.7227C22.921 35.1673 22.4012 34.5468 21.9569 33.8733C20.6665 31.9446 17.1848 28.1629 14.9835 28.1629C13.7529 28.1384 12.6217 28.8358 12.091 29.9464C11.715 30.9432 12.0052 32.0687 12.8162 32.7595C14.1934 34.1323 17.2987 39.2572 18.8242 43.0595C20.0214 45.5783 21.6984 47.8395 23.7611 49.7165C24.4526 50.3943 24.8415 51.3223 24.8399 52.2906V52.5677C24.8426 53.9115 25.9326 54.9996 27.2764 54.9999H39.4392C40.7832 54.9996 41.8734 53.9117 41.8764 52.5677V50.2402C41.8703 50.0927 41.9248 49.9491 42.0273 49.8427C44.8842 47.2382 44.9169 42.9015 44.9169 42.718V30.7234C44.9431 29.016 43.6525 27.5753 41.9525 27.4143C41.3934 27.3791 40.835 27.492 40.3335 27.7416V26.8066C40.3358 25.0498 38.9155 23.6228 37.1588 23.6166C36.6498 23.6198 36.1488 23.7428 35.6963 23.9756C35.6319 23.5975 35.4997 23.2341 35.3061 22.9031C35.3209 22.8637 35.3427 22.8273 35.3537 22.7866C35.5864 21.7519 35.6977 20.6937 35.6853 19.6332C35.634 18.2457 35.3953 16.8716 34.9759 15.548C36.0597 14.7334 37.0223 13.769 37.8351 12.6839C37.8466 12.6687 37.8621 12.646 37.8747 12.6289C38.079 12.81 38.2861 12.9894 38.5096 13.1613C38.1728 14.2515 37.9817 15.3814 37.9413 16.5218C37.9335 17.4094 38.0272 18.2949 38.2206 19.1612C38.3806 19.7612 38.928 20.1756 39.5489 20.1665C40.4172 20.0896 41.2722 19.9027 42.0934 19.6102C43.1025 19.2234 44.0528 18.698 44.9169 18.049C45.7801 18.6976 46.7294 19.2227 47.7375 19.6093C48.5636 19.9037 49.424 20.091 50.2977 20.1665C50.9051 20.1737 51.4415 19.7718 51.6051 19.1868C51.8042 18.3075 51.9003 17.4081 51.8916 16.5066C51.8504 15.3718 51.6595 14.2475 51.324 13.1626C52.2032 12.4867 52.9866 11.6945 53.6527 10.8078ZM14.5484 13.1389C14.9543 14.2392 15.1833 15.3968 15.2268 16.5688C15.2236 17.1453 15.1795 17.7209 15.0947 18.2911C14.5763 18.1989 14.0656 18.068 13.5669 17.8995C12.5112 17.4967 11.5334 16.9139 10.6768 16.1771C10.3349 15.8862 9.83253 15.8862 9.49064 16.1771C8.63319 16.9144 7.65447 17.4974 6.59791 17.9004C6.09947 18.0684 5.5893 18.1993 5.07157 18.2921C4.98834 17.7265 4.94454 17.1558 4.94049 16.5841C4.98262 15.4069 5.21159 14.2439 5.61882 13.1385C5.65538 13.0344 5.67398 12.9248 5.67382 12.8145C5.67388 12.5119 5.52447 12.2288 5.27461 12.0581C4.32938 11.4162 3.49757 10.6214 2.81327 9.70645C2.48648 9.23129 2.19579 8.73229 1.94363 8.21365C2.42462 7.96053 2.92353 7.743 3.43633 7.56282C4.50573 7.24029 5.6237 7.10921 6.73871 7.17562C7.19105 7.19531 7.59168 6.88598 7.68709 6.44339C7.96935 5.31792 8.43302 4.24593 9.05989 3.26952C9.37095 2.82653 9.71367 2.40663 10.0854 2.01313C10.455 2.40715 10.7963 2.82681 11.1067 3.26897C11.7254 4.23259 12.185 5.28948 12.4679 6.39911C12.4989 6.6013 12.5965 6.78733 12.7454 6.92766C12.928 7.10246 13.1757 7.19244 13.4279 7.17562C14.5389 7.10926 15.6528 7.23911 16.7187 7.55924C16.8083 7.58674 16.9583 7.64257 17.1322 7.71251C16.8054 7.86725 16.492 8.04908 16.1955 8.25609C15.6722 8.64 15.4553 9.3171 15.6583 9.9336C15.7947 10.3086 15.9591 10.6728 16.1501 11.0231C15.7587 11.402 15.3372 11.7487 14.8899 12.0596C14.6409 12.2346 14.4928 12.5198 14.4929 12.8241C14.4928 12.9315 14.5116 13.038 14.5483 13.1389H14.5484ZM37.1589 25.4504C37.5179 25.4485 37.8625 25.5913 38.1149 25.8466C38.3673 26.1019 38.5062 26.448 38.5002 26.807V32.1107C38.5002 32.617 38.9106 33.0274 39.4169 33.0274C39.9231 33.0274 40.3335 32.617 40.3335 32.1107V30.595C40.3458 30.2164 40.5109 29.8589 40.7913 29.6041C41.0716 29.3493 41.4432 29.2189 41.8213 29.2428C42.559 29.3405 43.1038 29.9796 43.0835 30.7234V42.7165C43.0835 42.7532 43.0433 46.436 40.7919 48.4883C40.3076 48.9415 40.0359 49.5773 40.043 50.2406V52.5681C40.0411 52.8999 39.7711 53.1676 39.4392 53.1666H27.2764C26.9446 53.1674 26.6747 52.8995 26.6731 52.5677V52.2906C26.6736 50.8262 26.0834 49.4235 25.0362 48.3999C23.7575 47.1618 21.4712 44.7332 20.5262 42.3766C19.0281 38.6442 15.7902 33.1356 14.1109 31.4617C13.7998 31.1515 13.6906 30.8776 13.786 30.6466C14.0377 30.2285 14.4964 29.9797 14.9841 29.9967C15.8932 29.9967 18.8088 32.4643 20.434 34.8933C20.9561 35.6828 21.5663 36.4102 22.253 37.0615C22.8528 37.6244 23.6977 37.8437 24.4955 37.6433C25.3062 37.4409 25.9577 36.839 26.2236 36.0468C26.5133 35.0134 26.6348 33.9402 26.5835 32.8682V15.1065C26.63 14.3398 27.2687 13.7436 28.0368 13.7499C28.3912 13.7499 28.7302 13.8949 28.9751 14.1511C29.22 14.4073 29.3495 14.7525 29.3335 15.1065V31.1665C29.3335 31.6728 29.7439 32.0832 30.2502 32.0832C30.7565 32.0832 31.1669 31.6728 31.1669 31.1665V24.5337C31.198 23.7688 31.8323 23.1676 32.5978 23.1775C32.9538 23.1786 33.2943 23.3231 33.5425 23.5783C33.7907 23.8335 33.9256 24.1779 33.9169 24.5337V31.1665C33.9169 31.6728 34.3273 32.0832 34.8335 32.0832C35.3398 32.0832 35.7502 31.6728 35.7502 31.1665V26.807C35.7747 26.0479 36.3993 25.4463 37.1588 25.4504H37.1589ZM36.377 11.5732C35.5424 12.6894 34.5273 13.6585 33.3737 14.4405C33.1226 14.615 32.9729 14.9014 32.9731 15.2072C32.9731 15.3153 32.9922 15.4226 33.0294 15.5241C33.5268 16.8661 33.8052 18.2792 33.854 19.7096C33.8534 20.3279 33.8121 20.9455 33.7303 21.5584C33.3691 21.4185 32.9853 21.3459 32.598 21.3442C32.1016 21.3469 31.6123 21.4621 31.1669 21.6811V15.1065C31.1839 14.2658 30.8616 13.4536 30.2726 12.8534C29.6837 12.2531 28.8777 11.9154 28.0368 11.9165C26.2579 11.9136 24.8004 13.3283 24.7502 15.1065V20.8404C24.3044 21.0744 23.8463 21.2841 23.3779 21.4686C22.7131 21.6971 22.0295 21.8668 21.3351 21.9757C21.2097 21.227 21.1467 20.4692 21.1466 19.71C21.1954 18.2797 21.4738 16.8665 21.9711 15.5245C22.0085 15.4198 22.0277 15.3094 22.0277 15.1982C22.0278 14.8949 21.8778 14.6112 21.6271 14.4404C20.4726 13.6578 19.4569 12.6878 18.622 11.5705C18.428 11.3004 18.2477 11.0208 18.0817 10.7326C17.8646 10.3648 17.6675 9.98559 17.4914 9.59654C18.125 9.24593 18.7876 8.95062 19.4719 8.71388C19.4921 8.70765 19.5126 8.70095 19.5324 8.69335C20.8192 8.31786 22.1606 8.16438 23.499 8.2395C23.7519 8.25139 23.9985 8.15766 24.1797 7.98073C24.3121 7.85358 24.4038 7.69003 24.4433 7.51075C24.7946 6.13553 25.3636 4.82535 26.1288 3.62986C26.5379 3.03788 26.9969 2.48192 27.5007 1.96803C28.0075 2.486 28.4691 3.04649 28.8802 3.64333C29.6331 4.82168 30.1952 6.11156 30.5456 7.46529C30.6178 7.93076 31.0313 8.26554 31.5016 8.23923C32.84 8.16322 34.1816 8.31671 35.4682 8.69307C35.4879 8.70068 35.5085 8.70737 35.5286 8.7136C36.2127 8.95016 36.8749 9.24565 37.5079 9.59672C37.3333 9.98423 37.1374 10.3618 36.9212 10.7278C36.754 11.0185 36.5723 11.3007 36.3768 11.5732H36.377ZM49.7255 12.0584C49.4752 12.233 49.3261 12.519 49.3263 12.8242C49.3263 12.9315 49.3451 13.038 49.3818 13.1389C49.7877 14.2392 50.0166 15.3968 50.0601 16.5688C50.057 17.1453 50.0128 17.7209 49.928 18.2911C49.4097 18.1989 48.899 18.068 48.4002 17.8995C47.3446 17.4967 46.3667 16.9139 45.5101 16.1771C45.1682 15.8862 44.6659 15.8862 44.324 16.1771C43.4665 16.9144 42.4878 17.4974 41.4312 17.9004C40.9328 18.0684 40.4226 18.1993 39.9049 18.2921C39.8217 17.7265 39.7779 17.1558 39.7738 16.5841C39.816 15.4069 40.0449 14.2439 40.4522 13.1385C40.4889 13.0346 40.5076 12.9251 40.5077 12.8149C40.5077 12.5132 40.3592 12.2308 40.1107 12.0597C39.6633 11.7487 39.2418 11.402 38.8502 11.0231C39.0444 10.6656 39.2113 10.294 39.3494 9.91132C39.5425 9.30522 39.3285 8.64344 38.8172 8.26508C38.5163 8.05476 38.1984 7.86993 37.8667 7.71251C38.0377 7.64367 38.1843 7.58894 38.27 7.56282C39.3394 7.24027 40.4574 7.10919 41.5724 7.17562C42.0246 7.19533 42.4251 6.88636 42.5209 6.44403C42.8029 5.31841 43.2664 4.24626 43.8932 3.2697C44.2043 2.82665 44.547 2.40669 44.9187 2.01313C45.2883 2.40715 45.6296 2.82681 45.9401 3.26897C46.5587 4.23259 47.0183 5.28944 47.3012 6.39902C47.3322 6.60134 47.4298 6.78753 47.5787 6.92803C47.7614 7.10271 48.009 7.19267 48.2612 7.17599C49.3722 7.10949 50.4862 7.23935 51.5521 7.55961C52.069 7.74059 52.5718 7.9596 53.0564 8.21484C52.8048 8.73241 52.5147 9.23034 52.1885 9.70443C51.5039 10.6205 50.6714 11.416 49.7253 12.0584H49.7255Z" fill="black"/>
</g>
<defs>
<clipPath id="clip0">
<rect width="55" height="55" fill="white"/>
</clipPath>
</defs>
</svg>
