<svg width="55" height="55" viewBox="0 0 55 55" fill="none" xmlns="http://www.w3.org/2000/svg">
<g clip-path="url(#clip0)">
<path d="M47.2656 21.4844C47.0611 21.4844 46.8557 21.4113 46.6933 21.2661C46.4002 21.0048 39.5312 14.7984 39.5312 8.59375C39.5312 4.32867 43.0005 0.859375 47.2656 0.859375C51.5307 0.859375 55 4.32867 55 8.59375C55 14.7984 48.131 21.0048 47.838 21.2661C47.6755 21.4113 47.4702 21.4844 47.2656 21.4844ZM47.2656 2.57812C43.9493 2.57812 41.25 5.27742 41.25 8.59375C41.25 13.0711 45.662 17.8492 47.2648 19.4365C48.8675 17.8475 53.2812 13.0625 53.2812 8.59375C53.2812 5.27742 50.582 2.57812 47.2656 2.57812Z" fill="black"/>
<path d="M44.2754 47.2671H33.5264C33.0511 47.2671 32.667 46.8829 32.667 46.4077C32.667 45.9325 33.0511 45.5483 33.5264 45.5483H44.2754C44.7507 45.5483 45.1348 45.9325 45.1348 46.4077C45.1348 46.8829 44.7498 47.2671 44.2754 47.2671Z" fill="black"/>
<path d="M44.2751 34.3735H10.7319C10.2567 34.3735 9.87256 33.9894 9.87256 33.5142C9.87256 33.0389 10.2567 32.6548 10.7319 32.6548H44.2751C44.7503 32.6548 45.1344 33.0389 45.1344 33.5142C45.1344 33.9894 44.7494 34.3735 44.2751 34.3735Z" fill="black"/>
<path d="M41.252 21.4844H11.1602C10.6849 21.4844 10.3008 21.1002 10.3008 20.625C10.3008 20.1498 10.6849 19.7656 11.1602 19.7656H41.252C41.7273 19.7656 42.1114 20.1498 42.1114 20.625C42.1114 21.1002 41.7273 21.4844 41.252 21.4844Z" fill="black"/>
<path d="M44.2754 47.2676C43.8002 47.2676 43.416 46.8835 43.416 46.4082C43.416 45.933 43.8002 45.5488 44.2754 45.5488C47.3562 45.5488 49.863 43.0421 49.863 39.9612C49.863 36.8803 47.3562 34.3735 44.2754 34.3735C43.8002 34.3735 43.416 33.9894 43.416 33.5142C43.416 33.0389 43.8002 32.6548 44.2754 32.6548C48.3041 32.6548 51.5818 35.9316 51.5818 39.9612C51.5818 43.9908 48.3041 47.2676 44.2754 47.2676Z" fill="black"/>
<path d="M10.7322 34.3731C6.70344 34.3731 3.42578 31.0963 3.42578 27.0667C3.42578 23.0371 6.70258 19.7603 10.7322 19.7603C11.2074 19.7603 11.5916 20.1444 11.5916 20.6196C11.5916 21.0949 11.2074 21.479 10.7322 21.479C7.65133 21.479 5.14453 23.9858 5.14453 27.0667C5.14453 30.1475 7.65133 32.6543 10.7322 32.6543C11.2074 32.6543 11.5916 33.0385 11.5916 33.5137C11.5916 33.9889 11.2074 34.3731 10.7322 34.3731Z" fill="black"/>
<path d="M47.2607 12.0312C45.365 12.0312 43.8232 10.4887 43.8232 8.59203C43.8232 6.69797 45.365 5.15625 47.2607 5.15625C49.1565 5.15625 50.6982 6.69797 50.6982 8.59203C50.6982 10.4887 49.1565 12.0312 47.2607 12.0312ZM47.2607 6.875C46.3129 6.875 45.542 7.645 45.542 8.59203C45.542 9.54078 46.3129 10.3125 47.2607 10.3125C48.2086 10.3125 48.9795 9.54078 48.9795 8.59203C48.9795 7.645 48.2086 6.875 47.2607 6.875Z" fill="black"/>
<path d="M29.2191 47.6529C28.7439 47.6529 28.3597 47.2688 28.3597 46.7935C28.3597 46.0631 27.8398 45.4469 27.1222 45.3266C26.6539 45.2475 26.3385 44.8049 26.4167 44.3374C26.4957 43.8691 26.9392 43.5503 27.4058 43.6319C28.9553 43.8923 30.0785 45.2217 30.0785 46.7944C30.0785 47.2688 29.6943 47.6529 29.2191 47.6529Z" fill="black"/>
<path d="M29.2188 48.9845C28.7435 48.9845 28.3594 48.6003 28.3594 48.1251V46.7939C28.3594 46.3187 28.7435 45.9346 29.2188 45.9346C29.694 45.9346 30.0781 46.3187 30.0781 46.7939V48.1251C30.0781 48.6003 29.694 48.9845 29.2188 48.9845Z" fill="black"/>
<path d="M30.0781 51.5625C29.6029 51.5625 29.2188 51.1784 29.2188 50.7031V48.9844C28.7435 48.9844 28.3594 48.6002 28.3594 48.125C28.3594 47.6498 28.7435 47.2656 29.2188 47.2656H30.0781C30.5534 47.2656 30.9375 47.6498 30.9375 48.125V50.7031C30.9375 51.1784 30.5534 51.5625 30.0781 51.5625Z" fill="black"/>
<path d="M21.5268 51.5625H10.2827C9.80748 51.5625 9.42334 51.1784 9.42334 50.7031C9.42334 50.2279 9.80748 49.8438 10.2827 49.8438H21.5268C22.002 49.8438 22.3861 50.2279 22.3861 50.7031C22.3861 51.1784 22.002 51.5625 21.5268 51.5625Z" fill="black"/>
<path d="M2.57662 51.5622C2.35662 51.5622 2.13662 51.478 1.96904 51.3104L0.252012 49.5917C-0.0840039 49.2557 -0.0840039 48.7117 0.252012 48.3765C0.588027 48.0405 1.13115 48.0405 1.46717 48.3765L3.1842 50.0953C3.52022 50.4313 3.52022 50.9753 3.1842 51.3104C3.01662 51.478 2.79662 51.5622 2.57662 51.5622Z" fill="black"/>
<path d="M0.859376 49.8435C0.858517 49.8435 0.857658 49.8435 0.857658 49.8435C0.382423 49.8427 -0.000857933 49.4568 1.44231e-06 48.9824L0.0120327 43.8245C0.0128921 43.3501 0.397892 42.9668 0.871408 42.9668H0.873126C1.34836 42.9677 1.73164 43.3535 1.73078 43.8279L1.71875 48.9859C1.71789 49.4602 1.33289 49.8435 0.859376 49.8435Z" fill="black"/>
<path d="M3.43768 44.6873L0.870723 44.6855C0.396348 44.6855 0.012207 44.3005 0.012207 43.8253C0.012207 43.3509 0.397207 42.9668 0.871582 42.9668H0.872441L3.43854 42.9685C3.91291 42.9685 4.29705 43.3535 4.29705 43.8287C4.29705 44.3031 3.91205 44.6873 3.43768 44.6873Z" fill="black"/>
<path d="M3.43855 44.6874C3.19449 44.6874 2.95215 44.5843 2.78113 44.3832C2.47519 44.0214 2.51988 43.4791 2.88254 43.1723C3.05785 43.0237 7.23441 39.5449 12.8908 39.5449C18.5464 39.5449 22.7238 43.0228 22.8991 43.1706C23.2618 43.4766 23.3064 44.018 23.0005 44.3806C22.6946 44.7433 22.1532 44.788 21.7905 44.4837C21.7518 44.4511 17.901 41.2637 12.8908 41.2637C7.85746 41.2637 4.03066 44.452 3.99285 44.4846C3.83129 44.6204 3.63449 44.6874 3.43855 44.6874Z" fill="black"/>
<path d="M27.2666 45.3388C27.2297 45.3388 27.191 45.3363 27.1532 45.3311L22.2316 44.6797C21.7606 44.6178 21.4298 44.1856 21.4925 43.7155C21.5552 43.2454 21.9815 42.9111 22.4567 42.9764L27.3784 43.6278C27.8493 43.6897 28.1802 44.122 28.1174 44.592C28.0598 45.0243 27.6912 45.3388 27.2666 45.3388Z" fill="black"/>
<path d="M12.8906 44.689C12.4162 44.689 12.0312 44.3048 12.0312 43.8296C12.0312 43.3552 12.4154 42.9702 12.8906 42.9702L22.3437 42.9668C22.8181 42.9668 23.2031 43.3509 23.2031 43.8262C23.2031 44.3005 22.819 44.6855 22.3437 44.6855L12.8906 44.689Z" fill="black"/>
<path d="M12.8909 44.6889C12.799 44.6889 12.7045 44.6735 12.6116 44.6417L6.59602 42.5757C6.14743 42.4219 5.90852 41.9329 6.06321 41.4835C6.21704 41.0357 6.70087 40.7951 7.15548 40.9507L13.1711 43.0166C13.6197 43.1704 13.8586 43.6594 13.7039 44.1089C13.5819 44.4647 13.2476 44.6889 12.8909 44.6889Z" fill="black"/>
<path d="M12.8906 44.6891C12.4154 44.6891 12.0312 44.305 12.0312 43.8298V40.4043C12.0312 39.9291 12.4154 39.5449 12.8906 39.5449C13.3659 39.5449 13.75 39.9291 13.75 40.4043V43.8298C13.75 44.305 13.3659 44.6891 12.8906 44.6891Z" fill="black"/>
<path d="M24.5029 54.1406C22.3708 54.1406 20.6357 52.4064 20.6357 50.2752C20.6357 48.1422 22.3708 46.4062 24.5029 46.4062C26.635 46.4062 28.3701 48.1422 28.3701 50.2752C28.3701 52.4064 26.635 54.1406 24.5029 54.1406ZM24.5029 48.125C23.3178 48.125 22.3545 49.0892 22.3545 50.2752C22.3545 51.4585 23.3178 52.4219 24.5029 52.4219C25.688 52.4219 26.6514 51.4585 26.6514 50.2752C26.6514 49.0892 25.688 48.125 24.5029 48.125Z" fill="black"/>
<path d="M7.30469 54.0806C5.17258 54.0806 3.4375 52.3455 3.4375 50.2134C3.4375 48.0813 5.17258 46.3462 7.30469 46.3462C9.4368 46.3462 11.1719 48.0813 11.1719 50.2134C11.1719 52.3455 9.4368 54.0806 7.30469 54.0806ZM7.30469 48.0649C6.11961 48.0649 5.15625 49.0283 5.15625 50.2134C5.15625 51.3985 6.11961 52.3618 7.30469 52.3618C8.48977 52.3618 9.45312 51.3985 9.45312 50.2134C9.45312 49.0283 8.48977 48.0649 7.30469 48.0649Z" fill="black"/>
<path d="M4.33752 51.5625H2.57666C2.10143 51.5625 1.71729 51.1784 1.71729 50.7031C1.71729 50.2279 2.10143 49.8438 2.57666 49.8438H4.33752C4.81275 49.8438 5.19689 50.2279 5.19689 50.7031C5.19689 51.1784 4.81275 51.5625 4.33752 51.5625Z" fill="black"/>
<path d="M30.0784 51.5625H27.4805C27.0052 51.5625 26.6211 51.1784 26.6211 50.7031C26.6211 50.2279 27.0052 49.8438 27.4805 49.8438H30.0784C30.5536 49.8438 30.9377 50.2279 30.9377 50.7031C30.9377 51.1784 30.5536 51.5625 30.0784 51.5625Z" fill="black"/>
<path d="M24.5287 51.1328C24.0535 51.1328 23.665 50.7487 23.665 50.2734C23.665 49.7982 24.0449 49.4141 24.5193 49.4141H24.5287C25.0031 49.4141 25.3881 49.7982 25.3881 50.2734C25.3881 50.7487 25.0031 51.1328 24.5287 51.1328Z" fill="black"/>
<path d="M7.33047 51.1328C6.85523 51.1328 6.4668 50.7487 6.4668 50.2734C6.4668 49.7982 6.84664 49.4141 7.32102 49.4141H7.33047C7.80485 49.4141 8.18985 49.7982 8.18985 50.2734C8.18985 50.7487 7.80485 51.1328 7.33047 51.1328Z" fill="black"/>
<path d="M15.4687 41.5173C14.9935 41.5173 14.6094 41.1331 14.6094 40.6579V38.6719H12.0312V40.5264C12.0312 41.0016 11.6471 41.3858 11.1719 41.3858C10.6966 41.3858 10.3125 41.0016 10.3125 40.5264V37.8125C10.3125 37.3373 10.6966 36.9531 11.1719 36.9531H15.4687C15.944 36.9531 16.3281 37.3373 16.3281 37.8125V40.6579C16.3281 41.1323 15.944 41.5173 15.4687 41.5173Z" fill="black"/>
</g>
<defs>
<clipPath id="clip0">
<rect width="55" height="55" fill="white"/>
</clipPath>
</defs>
</svg>
