<svg width="55" height="55" viewBox="0 0 55 55" fill="none" xmlns="http://www.w3.org/2000/svg">
<path d="M43.0547 31.1953L34.1172 26.4688C35.2344 25.6094 36.0937 24.4062 36.6094 23.0312L38.9297 21.8281C39.7891 21.3984 40.3906 20.5391 40.3906 19.5078V18.9062C40.3906 17.4453 39.2734 16.3281 37.8125 16.3281H36.9531V13.2344L39.7891 9.625C40.6484 8.50781 40.4766 6.875 39.3594 6.01562C39.1875 5.84375 39.0156 5.75781 38.7578 5.67187L31.4531 2.57812C28.875 1.46094 25.9531 1.46094 23.2891 2.57812L15.9844 5.67187C14.6953 6.1875 14.0938 7.73438 14.6094 9.02344C14.6953 9.19531 14.7812 9.45312 14.9531 9.625L17.7891 13.2344V16.3281H16.9297C15.4688 16.3281 14.3516 17.4453 14.3516 18.9062V19.5938C14.3516 20.5391 14.8672 21.4844 15.8125 21.9141L18.1328 23.1172C18.5625 24.4922 19.4219 25.6953 20.625 26.5547L11.6875 31.2812C8.76563 32.8281 6.875 36.0078 6.875 39.5312V53.2812H48.125V39.5312C48.125 36.0078 46.2344 32.8281 43.0547 31.1953ZM37.2969 30.0781L31.9688 34.0312L29.0469 29.9062C29.3906 29.8203 29.6484 29.6484 29.9922 29.3906L32.5703 27.5859L37.2969 30.0781ZM29.9922 34.2031L28.7891 36.0938H26.2969L25.0078 34.2031L27.5 30.6797L29.9922 34.2031ZM37.8125 18.0469C38.3281 18.0469 38.6719 18.3906 38.6719 18.9062V19.5938C38.6719 19.9375 38.5 20.1953 38.1563 20.3672L36.9531 20.9688V18.0469H37.8125ZM16.8438 20.3672C16.5859 20.1953 16.3281 19.9375 16.3281 19.5938V18.9062C16.3281 18.3906 16.6719 18.0469 17.1875 18.0469H18.0469V20.9688L16.8438 20.3672ZM16.5 8.50781C16.2422 8.16406 16.2422 7.64844 16.6719 7.30469C16.7578 7.21875 16.7578 7.21875 16.8438 7.21875L24.1484 4.125C26.2969 3.17969 28.7891 3.17969 30.9375 4.125L38.2422 7.21875C38.6719 7.39062 38.8438 7.90625 38.6719 8.33594C38.6719 8.42187 38.5859 8.50781 38.5859 8.50781L35.6641 12.0312H19.3359L16.5 8.50781ZM34.2891 13.75L34.0312 14.0938C32.9141 15.4688 31.1953 16.3281 29.3906 16.3281H25.4375C23.4609 16.3281 21.6562 15.3828 20.5391 13.75H34.2891ZM19.7656 20.9688V15.6406C21.2266 17.1875 23.2891 18.0469 25.3516 18.0469H29.3047C31.5391 18.0469 33.6875 17.0156 35.1484 15.2969V20.8828C35.1484 22.6016 34.2891 24.1484 32.9141 25.0938L28.875 27.9297C28.0156 28.5312 26.8125 28.5312 25.9531 27.9297L21.9141 25.0938C20.625 24.1484 19.7656 22.6016 19.7656 20.9688ZM22.4297 27.5859L25.0078 29.3906C25.2656 29.5625 25.6094 29.7344 25.9531 29.9062L23.0312 34.0312L17.7031 30.0781L22.4297 27.5859ZM17.1875 51.5625V42.9688H15.4688V51.5625H8.59375V39.5312C8.59375 36.6953 10.1406 34.0312 12.7188 32.6562L16.0703 30.8516L18.2188 32.4844L22.1719 51.5625H17.1875ZM20.2812 34.1172L23.375 36.4375L23.8906 35.6641L24.8359 37.125L23.0312 47.6953L20.2812 34.1172ZM24.2344 51.5625L26.5547 37.8125H28.5312L30.8516 51.5625H24.2344ZM30.1641 37.125L31.1094 35.6641L31.625 36.4375L34.7188 34.1172L31.8828 47.7812L30.1641 37.125ZM46.4062 51.5625H39.5312V42.9688H37.8125V51.5625H32.8281L36.7812 32.5703L38.9297 30.9375L42.2812 32.7422C44.7734 34.1172 46.4062 36.6953 46.4062 39.6172V51.5625Z" fill="black"/>
<path d="M28.7031 5.15625H26.2109C24.75 5.15625 23.6328 6.27344 23.6328 7.73438C23.6328 9.19531 24.75 10.3125 26.2109 10.3125H28.7031C30.1641 10.3125 31.2813 9.19531 31.2813 7.73438C31.2813 6.27344 30.1641 5.15625 28.7031 5.15625ZM29.3906 8.25C29.2188 8.50781 28.9609 8.59375 28.7031 8.59375H26.2109C25.6953 8.59375 25.3516 8.25 25.3516 7.73438C25.3516 7.21875 25.6953 6.875 26.2109 6.875H28.7031C29.2188 6.875 29.5625 7.21875 29.5625 7.73438C29.5625 7.90625 29.5625 8.07813 29.3906 8.25Z" fill="black"/>
</svg>
