<svg width="55" height="55" viewBox="0 0 55 55" fill="none" xmlns="http://www.w3.org/2000/svg">
<path d="M39.3433 25.8209C37.0036 25.8209 35.1064 23.9241 35.1064 21.584C35.1064 19.2443 37.0036 17.3472 39.3433 17.3472C41.6834 17.3472 43.5802 19.2443 43.5802 21.584C43.5775 23.9231 41.6824 25.8183 39.3433 25.8209ZM39.3433 19.042C37.9395 19.042 36.8013 20.1803 36.8013 21.584C36.8013 22.9885 37.9395 24.126 39.3433 24.126C40.7477 24.126 41.8853 22.9885 41.8853 21.584C41.8853 20.1803 40.7477 19.042 39.3433 19.042Z" fill="black"/>
<path d="M15.6172 25.8209C13.2775 25.8209 11.3804 23.9241 11.3804 21.584C11.3804 19.2443 13.2775 17.3472 15.6172 17.3472C17.9573 17.3472 19.8541 19.2443 19.8541 21.584C19.8514 23.9231 17.9563 25.8183 15.6172 25.8209ZM15.6172 19.042C14.2135 19.042 13.0752 20.1803 13.0752 21.584C13.0752 22.9885 14.2135 24.126 15.6172 24.126C17.0217 24.126 18.1592 22.9885 18.1592 21.584C18.1592 20.1803 17.0217 19.042 15.6172 19.042Z" fill="black"/>
<path d="M44.4278 31.2797L52.5057 23.9365C53.4506 23.0569 53.5169 21.5819 52.6542 20.6214C51.7915 19.6609 50.3181 19.5684 49.3427 20.4138L43.2584 25.8207H34.7055L28.3278 33.6164V12.263H36.8015V15.6524H50.7634L48.73 10.5681L50.7634 5.48415H41.0384V2.09473H26.6332V33.6164L20.2562 25.8207H11.7032L5.61897 20.4128C4.64289 19.5657 3.16782 19.6576 2.30447 20.6187C1.44045 21.5802 1.50709 23.0563 2.45433 23.9365L10.5335 31.2797V51.2413H2.05979V52.9361H52.9012V51.2413H44.4278V31.2797ZM41.0384 7.1787H48.2602L46.9048 10.5681L48.2602 13.9576H38.4961V12.263H41.0384V7.1787ZM28.3278 3.78927H39.3435V10.5681H28.3278V3.78927ZM19.0069 51.2413H16.4649V39.3784H14.7701V51.2413H12.2281V30.5304L3.59519 22.6856C3.35216 22.4595 3.30906 22.0905 3.49274 21.8136C3.60016 21.6525 3.77191 21.5457 3.96387 21.5209C4.15584 21.4957 4.34947 21.555 4.49435 21.6833L11.059 27.5153H19.4529L25.7536 35.2165C25.998 35.5083 25.9595 35.9426 25.6681 36.1873C25.376 36.4313 24.9413 36.3928 24.6973 36.1011L19.0069 29.4644V51.2413ZM34.2595 51.2413H20.7018V34.0402L23.4136 37.2008C24.1997 38.1166 25.5454 38.3006 26.5483 37.6295C26.5798 37.6083 26.607 37.5814 26.6379 37.5582V44.4624H28.3324V37.5599C28.3642 37.5841 28.3924 37.6126 28.4262 37.6348C29.4285 38.3012 30.7703 38.1166 31.5547 37.2035L34.2595 34.0402V51.2413ZM42.7329 51.2413H40.1909V39.3784H38.4961V51.2413H35.9541V29.4644L30.2644 36.1037C30.0366 36.3676 29.6473 36.4197 29.3586 36.2247C29.1968 36.1183 29.088 35.9476 29.0602 35.7559C29.031 35.564 29.0844 35.3687 29.2077 35.2188L35.5085 27.5153H43.9026L50.466 21.6807C50.6099 21.5504 50.8045 21.4904 50.9965 21.5172C51.1914 21.5417 51.3651 21.6508 51.4719 21.8156C51.6543 22.0911 51.6095 22.4585 51.3658 22.6823L42.7329 30.5304V51.2413Z" fill="black"/>
</svg>
