<svg width="37" height="45" viewBox="0 0 37 45" fill="none" xmlns="http://www.w3.org/2000/svg">
<path d="M33.5312 10.9844H31.7969V4.625C32.4345 4.625 32.9531 4.10642 32.9531 3.46875V2.79119C32.9531 2.32811 32.7728 1.8922 32.445 1.56498L31.9663 1.0863C31.639 0.7585 31.2031 0.578125 30.7401 0.578125H24.7599C24.2969 0.578125 23.861 0.7585 23.5337 1.0863L23.055 1.56498C22.7273 1.8922 22.5469 2.32811 22.5469 2.79119V3.46875C22.5469 4.10642 23.0655 4.625 23.7031 4.625V10.9844H21.9688C20.3749 10.9844 19.0781 12.2811 19.0781 13.875V19.0781H17.9219V17.3438C17.9219 15.4307 16.3661 13.875 14.4531 13.875H9.82812C7.91511 13.875 6.35938 15.4307 6.35938 17.3438V19.0781H3.46875C1.87486 19.0781 0.578125 20.3749 0.578125 21.9688V33.5312C0.578125 35.1251 1.87486 36.4219 3.46875 36.4219H20.8125C22.2081 36.4219 23.3759 35.4269 23.6447 34.1094H33.5312C35.1251 34.1094 36.4219 32.8126 36.4219 31.2188V13.875C36.4219 12.2811 35.1251 10.9844 33.5312 10.9844ZM23.7031 2.79119C23.7031 2.63914 23.7644 2.48998 23.8725 2.38245L24.3512 1.90377C24.4593 1.79566 24.6079 1.73438 24.7599 1.73438H30.7401C30.8921 1.73438 31.0413 1.79566 31.1488 1.90377L31.6275 2.38245C31.7356 2.49056 31.7969 2.63914 31.7969 2.79119V3.46875H31.2188C31.2188 2.83108 30.7002 2.3125 30.0625 2.3125H25.4375C24.7998 2.3125 24.2812 2.83108 24.2812 3.46875H23.7031V2.79119ZM24.8594 4.46428C25.2034 4.26367 25.4375 3.89483 25.4375 3.46875H30.0625C30.0625 3.89483 30.2966 4.26367 30.6406 4.46428V10.9844H24.8594V4.46428ZM7.51562 17.3438C7.51562 16.0684 8.55278 15.0312 9.82812 15.0312H14.4531C15.7285 15.0312 16.7656 16.0684 16.7656 17.3438V19.0781H16.1875V17.3438C16.1875 16.3875 15.4093 15.6094 14.4531 15.6094H9.82812C8.87191 15.6094 8.09375 16.3875 8.09375 17.3438V19.0781H7.51562V17.3438ZM15.0312 19.0781H9.25V17.3438C9.25 17.0246 9.509 16.7656 9.82812 16.7656H14.4531C14.7723 16.7656 15.0312 17.0246 15.0312 17.3438V19.0781ZM22.5469 33.5312C22.5469 34.4875 21.7687 35.2656 20.8125 35.2656H3.46875C2.51253 35.2656 1.73438 34.4875 1.73438 33.5312V21.9688C1.73438 21.0125 2.51253 20.2344 3.46875 20.2344H20.8125C21.7687 20.2344 22.5469 21.0125 22.5469 21.9688V33.5312ZM35.2656 31.2188C35.2656 32.175 34.4875 32.9531 33.5312 32.9531H23.7031V21.9688C23.7031 20.3749 22.4064 19.0781 20.8125 19.0781H20.2344V13.875C20.2344 12.9188 21.0125 12.1406 21.9688 12.1406H33.5312C34.4875 12.1406 35.2656 12.9188 35.2656 13.875V31.2188Z" fill="#767676"/>
<path d="M20.2344 32.9531H8.09375V34.1094H20.8125C21.1322 34.1094 21.3906 33.851 21.3906 33.5312V23.125H20.2344V32.9531Z" fill="#767676"/>
<path d="M5.78125 32.9531H6.9375V34.1094H5.78125V32.9531Z" fill="#767676"/>
<path d="M33.5312 13.2969H23.125V14.4531H32.9531V26.5938H34.1094V13.875C34.1094 13.5553 33.851 13.2969 33.5312 13.2969Z" fill="#767676"/>
<path d="M32.9531 27.75H34.1094V28.9062H32.9531V27.75Z" fill="#767676"/>
<path d="M1.6825 41.4995C1.6825 41.4172 1.69767 41.3392 1.728 41.2655C1.75833 41.1918 1.7995 41.129 1.8515 41.077C1.90783 41.0207 1.97067 40.9773 2.04 40.947C2.11367 40.9123 2.19383 40.895 2.2805 40.895C2.36283 40.895 2.44083 40.9123 2.5145 40.947C2.58817 40.9773 2.651 41.0207 2.703 41.077C2.75933 41.129 2.80267 41.1918 2.833 41.2655C2.86767 41.3392 2.885 41.4172 2.885 41.4995C2.885 41.5862 2.86767 41.6663 2.833 41.74C2.80267 41.8093 2.75933 41.8722 2.703 41.9285C2.651 41.9805 2.58817 42.0217 2.5145 42.052C2.44083 42.0823 2.36283 42.0975 2.2805 42.0975C2.1115 42.0975 1.9685 42.0412 1.8515 41.9285C1.73883 41.8115 1.6825 41.6685 1.6825 41.4995ZM5.80695 41.4995C5.80695 41.4172 5.82212 41.3392 5.85245 41.2655C5.88279 41.1918 5.92395 41.129 5.97595 41.077C6.03229 41.0207 6.09512 40.9773 6.16445 40.947C6.23812 40.9123 6.31829 40.895 6.40495 40.895C6.48729 40.895 6.56529 40.9123 6.63895 40.947C6.71262 40.9773 6.77545 41.0207 6.82745 41.077C6.88379 41.129 6.92712 41.1918 6.95745 41.2655C6.99212 41.3392 7.00945 41.4172 7.00945 41.4995C7.00945 41.5862 6.99212 41.6663 6.95745 41.74C6.92712 41.8093 6.88379 41.8722 6.82745 41.9285C6.77545 41.9805 6.71262 42.0217 6.63895 42.052C6.56529 42.0823 6.48729 42.0975 6.40495 42.0975C6.23595 42.0975 6.09295 42.0412 5.97595 41.9285C5.86329 41.8115 5.80695 41.6685 5.80695 41.4995ZM9.93141 41.4995C9.93141 41.4172 9.94657 41.3392 9.97691 41.2655C10.0072 41.1918 10.0484 41.129 10.1004 41.077C10.1567 41.0207 10.2196 40.9773 10.2889 40.947C10.3626 40.9123 10.4427 40.895 10.5294 40.895C10.6117 40.895 10.6897 40.9123 10.7634 40.947C10.8371 40.9773 10.8999 41.0207 10.9519 41.077C11.0082 41.129 11.0516 41.1918 11.0819 41.2655C11.1166 41.3392 11.1339 41.4172 11.1339 41.4995C11.1339 41.5862 11.1166 41.6663 11.0819 41.74C11.0516 41.8093 11.0082 41.8722 10.9519 41.9285C10.8999 41.9805 10.8371 42.0217 10.7634 42.052C10.6897 42.0823 10.6117 42.0975 10.5294 42.0975C10.3604 42.0975 10.2174 42.0412 10.1004 41.9285C9.98774 41.8115 9.93141 41.6685 9.93141 41.4995ZM14.0559 41.4995C14.0559 41.4172 14.071 41.3392 14.1014 41.2655C14.1317 41.1918 14.1729 41.129 14.2249 41.077C14.2812 41.0207 14.344 40.9773 14.4134 40.947C14.487 40.9123 14.5672 40.895 14.6539 40.895C14.7362 40.895 14.8142 40.9123 14.8879 40.947C14.9615 40.9773 15.0244 41.0207 15.0764 41.077C15.1327 41.129 15.176 41.1918 15.2064 41.2655C15.241 41.3392 15.2584 41.4172 15.2584 41.4995C15.2584 41.5862 15.241 41.6663 15.2064 41.74C15.176 41.8093 15.1327 41.8722 15.0764 41.9285C15.0244 41.9805 14.9615 42.0217 14.8879 42.052C14.8142 42.0823 14.7362 42.0975 14.6539 42.0975C14.4849 42.0975 14.3419 42.0412 14.2249 41.9285C14.1122 41.8115 14.0559 41.6685 14.0559 41.4995ZM18.1803 41.4995C18.1803 41.4172 18.1955 41.3392 18.2258 41.2655C18.2561 41.1918 18.2973 41.129 18.3493 41.077C18.4056 41.0207 18.4685 40.9773 18.5378 40.947C18.6115 40.9123 18.6916 40.895 18.7783 40.895C18.8606 40.895 18.9386 40.9123 19.0123 40.947C19.086 40.9773 19.1488 41.0207 19.2008 41.077C19.2571 41.129 19.3005 41.1918 19.3308 41.2655C19.3655 41.3392 19.3828 41.4172 19.3828 41.4995C19.3828 41.5862 19.3655 41.6663 19.3308 41.74C19.3005 41.8093 19.2571 41.8722 19.2008 41.9285C19.1488 41.9805 19.086 42.0217 19.0123 42.052C18.9386 42.0823 18.8606 42.0975 18.7783 42.0975C18.6093 42.0975 18.4663 42.0412 18.3493 41.9285C18.2366 41.8115 18.1803 41.6685 18.1803 41.4995ZM22.3048 41.4995C22.3048 41.4172 22.3199 41.3392 22.3503 41.2655C22.3806 41.1918 22.4218 41.129 22.4738 41.077C22.5301 41.0207 22.5929 40.9773 22.6623 40.947C22.7359 40.9123 22.8161 40.895 22.9028 40.895C22.9851 40.895 23.0631 40.9123 23.1368 40.947C23.2104 40.9773 23.2733 41.0207 23.3253 41.077C23.3816 41.129 23.4249 41.1918 23.4553 41.2655C23.4899 41.3392 23.5073 41.4172 23.5073 41.4995C23.5073 41.5862 23.4899 41.6663 23.4553 41.74C23.4249 41.8093 23.3816 41.8722 23.3253 41.9285C23.2733 41.9805 23.2104 42.0217 23.1368 42.052C23.0631 42.0823 22.9851 42.0975 22.9028 42.0975C22.7338 42.0975 22.5908 42.0412 22.4738 41.9285C22.3611 41.8115 22.3048 41.6685 22.3048 41.4995ZM26.4292 41.4995C26.4292 41.4172 26.4444 41.3392 26.4747 41.2655C26.5051 41.1918 26.5462 41.129 26.5982 41.077C26.6546 41.0207 26.7174 40.9773 26.7867 40.947C26.8604 40.9123 26.9406 40.895 27.0272 40.895C27.1096 40.895 27.1876 40.9123 27.2612 40.947C27.3349 40.9773 27.3977 41.0207 27.4497 41.077C27.5061 41.129 27.5494 41.1918 27.5797 41.2655C27.6144 41.3392 27.6317 41.4172 27.6317 41.4995C27.6317 41.5862 27.6144 41.6663 27.5797 41.74C27.5494 41.8093 27.5061 41.8722 27.4497 41.9285C27.3977 41.9805 27.3349 42.0217 27.2612 42.052C27.1876 42.0823 27.1096 42.0975 27.0272 42.0975C26.8582 42.0975 26.7152 42.0412 26.5982 41.9285C26.4856 41.8115 26.4292 41.6685 26.4292 41.4995ZM30.5537 41.4995C30.5537 41.4172 30.5688 41.3392 30.5992 41.2655C30.6295 41.1918 30.6707 41.129 30.7227 41.077C30.779 41.0207 30.8418 40.9773 30.9112 40.947C30.9848 40.9123 31.065 40.895 31.1517 40.895C31.234 40.895 31.312 40.9123 31.3857 40.947C31.4593 40.9773 31.5222 41.0207 31.5742 41.077C31.6305 41.129 31.6738 41.1918 31.7042 41.2655C31.7388 41.3392 31.7562 41.4172 31.7562 41.4995C31.7562 41.5862 31.7388 41.6663 31.7042 41.74C31.6738 41.8093 31.6305 41.8722 31.5742 41.9285C31.5222 41.9805 31.4593 42.0217 31.3857 42.052C31.312 42.0823 31.234 42.0975 31.1517 42.0975C30.9827 42.0975 30.8397 42.0412 30.7227 41.9285C30.61 41.8115 30.5537 41.6685 30.5537 41.4995ZM34.6781 41.4995C34.6781 41.4172 34.6933 41.3392 34.7236 41.2655C34.754 41.1918 34.7951 41.129 34.8471 41.077C34.9035 41.0207 34.9663 40.9773 35.0356 40.947C35.1093 40.9123 35.1895 40.895 35.2761 40.895C35.3585 40.895 35.4365 40.9123 35.5101 40.947C35.5838 40.9773 35.6466 41.0207 35.6986 41.077C35.755 41.129 35.7983 41.1918 35.8286 41.2655C35.8633 41.3392 35.8806 41.4172 35.8806 41.4995C35.8806 41.5862 35.8633 41.6663 35.8286 41.74C35.7983 41.8093 35.755 41.8722 35.6986 41.9285C35.6466 41.9805 35.5838 42.0217 35.5101 42.052C35.4365 42.0823 35.3585 42.0975 35.2761 42.0975C35.1071 42.0975 34.9641 42.0412 34.8471 41.9285C34.7345 41.8115 34.6781 41.6685 34.6781 41.4995Z" fill="black" fill-opacity="0.35"/>
</svg>
