<svg width="60" height="47" viewBox="0 0 60 47" fill="none" xmlns="http://www.w3.org/2000/svg">
<path d="M52.1963 26.2056C52.0456 26.2056 51.8948 26.1479 51.78 26.033L48.1728 22.4257C47.9424 22.1955 47.9424 21.8232 48.1728 21.593C48.403 21.3627 48.7751 21.3627 49.0055 21.593L52.1963 24.7838L58.9946 17.9857C59.2248 17.7554 59.597 17.7554 59.8273 17.9857C60.0575 18.216 60.0575 18.5882 59.8273 18.8185L52.6128 26.033C52.4979 26.1479 52.3471 26.2056 52.1963 26.2056Z" fill="black"/>
<path d="M2.6825 43.4995C2.6825 43.4172 2.69767 43.3392 2.728 43.2655C2.75833 43.1918 2.7995 43.129 2.8515 43.077C2.90783 43.0207 2.97067 42.9773 3.04 42.947C3.11367 42.9123 3.19383 42.895 3.2805 42.895C3.36283 42.895 3.44083 42.9123 3.5145 42.947C3.58817 42.9773 3.651 43.0207 3.703 43.077C3.75933 43.129 3.80267 43.1918 3.833 43.2655C3.86767 43.3392 3.885 43.4172 3.885 43.4995C3.885 43.5862 3.86767 43.6663 3.833 43.74C3.80267 43.8093 3.75933 43.8722 3.703 43.9285C3.651 43.9805 3.58817 44.0217 3.5145 44.052C3.44083 44.0823 3.36283 44.0975 3.2805 44.0975C3.1115 44.0975 2.9685 44.0412 2.8515 43.9285C2.73883 43.8115 2.6825 43.6685 2.6825 43.4995ZM6.80695 43.4995C6.80695 43.4172 6.82212 43.3392 6.85245 43.2655C6.88279 43.1918 6.92395 43.129 6.97595 43.077C7.03229 43.0207 7.09512 42.9773 7.16445 42.947C7.23812 42.9123 7.31829 42.895 7.40495 42.895C7.48729 42.895 7.56529 42.9123 7.63895 42.947C7.71262 42.9773 7.77545 43.0207 7.82745 43.077C7.88379 43.129 7.92712 43.1918 7.95745 43.2655C7.99212 43.3392 8.00945 43.4172 8.00945 43.4995C8.00945 43.5862 7.99212 43.6663 7.95745 43.74C7.92712 43.8093 7.88379 43.8722 7.82745 43.9285C7.77545 43.9805 7.71262 44.0217 7.63895 44.052C7.56529 44.0823 7.48729 44.0975 7.40495 44.0975C7.23595 44.0975 7.09295 44.0412 6.97595 43.9285C6.86329 43.8115 6.80695 43.6685 6.80695 43.4995ZM10.9314 43.4995C10.9314 43.4172 10.9466 43.3392 10.9769 43.2655C11.0072 43.1918 11.0484 43.129 11.1004 43.077C11.1567 43.0207 11.2196 42.9773 11.2889 42.947C11.3626 42.9123 11.4427 42.895 11.5294 42.895C11.6117 42.895 11.6897 42.9123 11.7634 42.947C11.8371 42.9773 11.8999 43.0207 11.9519 43.077C12.0082 43.129 12.0516 43.1918 12.0819 43.2655C12.1166 43.3392 12.1339 43.4172 12.1339 43.4995C12.1339 43.5862 12.1166 43.6663 12.0819 43.74C12.0516 43.8093 12.0082 43.8722 11.9519 43.9285C11.8999 43.9805 11.8371 44.0217 11.7634 44.052C11.6897 44.0823 11.6117 44.0975 11.5294 44.0975C11.3604 44.0975 11.2174 44.0412 11.1004 43.9285C10.9877 43.8115 10.9314 43.6685 10.9314 43.4995ZM15.0559 43.4995C15.0559 43.4172 15.071 43.3392 15.1014 43.2655C15.1317 43.1918 15.1729 43.129 15.2249 43.077C15.2812 43.0207 15.344 42.9773 15.4134 42.947C15.487 42.9123 15.5672 42.895 15.6539 42.895C15.7362 42.895 15.8142 42.9123 15.8879 42.947C15.9615 42.9773 16.0244 43.0207 16.0764 43.077C16.1327 43.129 16.176 43.1918 16.2064 43.2655C16.241 43.3392 16.2584 43.4172 16.2584 43.4995C16.2584 43.5862 16.241 43.6663 16.2064 43.74C16.176 43.8093 16.1327 43.8722 16.0764 43.9285C16.0244 43.9805 15.9615 44.0217 15.8879 44.052C15.8142 44.0823 15.7362 44.0975 15.6539 44.0975C15.4849 44.0975 15.3419 44.0412 15.2249 43.9285C15.1122 43.8115 15.0559 43.6685 15.0559 43.4995ZM19.1803 43.4995C19.1803 43.4172 19.1955 43.3392 19.2258 43.2655C19.2561 43.1918 19.2973 43.129 19.3493 43.077C19.4056 43.0207 19.4685 42.9773 19.5378 42.947C19.6115 42.9123 19.6916 42.895 19.7783 42.895C19.8606 42.895 19.9386 42.9123 20.0123 42.947C20.086 42.9773 20.1488 43.0207 20.2008 43.077C20.2571 43.129 20.3005 43.1918 20.3308 43.2655C20.3655 43.3392 20.3828 43.4172 20.3828 43.4995C20.3828 43.5862 20.3655 43.6663 20.3308 43.74C20.3005 43.8093 20.2571 43.8722 20.2008 43.9285C20.1488 43.9805 20.086 44.0217 20.0123 44.052C19.9386 44.0823 19.8606 44.0975 19.7783 44.0975C19.6093 44.0975 19.4663 44.0412 19.3493 43.9285C19.2366 43.8115 19.1803 43.6685 19.1803 43.4995ZM23.3048 43.4995C23.3048 43.4172 23.3199 43.3392 23.3503 43.2655C23.3806 43.1918 23.4218 43.129 23.4738 43.077C23.5301 43.0207 23.5929 42.9773 23.6623 42.947C23.7359 42.9123 23.8161 42.895 23.9028 42.895C23.9851 42.895 24.0631 42.9123 24.1368 42.947C24.2104 42.9773 24.2733 43.0207 24.3253 43.077C24.3816 43.129 24.4249 43.1918 24.4553 43.2655C24.4899 43.3392 24.5073 43.4172 24.5073 43.4995C24.5073 43.5862 24.4899 43.6663 24.4553 43.74C24.4249 43.8093 24.3816 43.8722 24.3253 43.9285C24.2733 43.9805 24.2104 44.0217 24.1368 44.052C24.0631 44.0823 23.9851 44.0975 23.9028 44.0975C23.7338 44.0975 23.5908 44.0412 23.4738 43.9285C23.3611 43.8115 23.3048 43.6685 23.3048 43.4995ZM27.4292 43.4995C27.4292 43.4172 27.4444 43.3392 27.4747 43.2655C27.5051 43.1918 27.5462 43.129 27.5982 43.077C27.6546 43.0207 27.7174 42.9773 27.7867 42.947C27.8604 42.9123 27.9406 42.895 28.0272 42.895C28.1096 42.895 28.1876 42.9123 28.2612 42.947C28.3349 42.9773 28.3977 43.0207 28.4497 43.077C28.5061 43.129 28.5494 43.1918 28.5797 43.2655C28.6144 43.3392 28.6317 43.4172 28.6317 43.4995C28.6317 43.5862 28.6144 43.6663 28.5797 43.74C28.5494 43.8093 28.5061 43.8722 28.4497 43.9285C28.3977 43.9805 28.3349 44.0217 28.2612 44.052C28.1876 44.0823 28.1096 44.0975 28.0272 44.0975C27.8582 44.0975 27.7152 44.0412 27.5982 43.9285C27.4856 43.8115 27.4292 43.6685 27.4292 43.4995ZM31.5537 43.4995C31.5537 43.4172 31.5688 43.3392 31.5992 43.2655C31.6295 43.1918 31.6707 43.129 31.7227 43.077C31.779 43.0207 31.8418 42.9773 31.9112 42.947C31.9848 42.9123 32.065 42.895 32.1517 42.895C32.234 42.895 32.312 42.9123 32.3857 42.947C32.4593 42.9773 32.5222 43.0207 32.5742 43.077C32.6305 43.129 32.6738 43.1918 32.7042 43.2655C32.7388 43.3392 32.7562 43.4172 32.7562 43.4995C32.7562 43.5862 32.7388 43.6663 32.7042 43.74C32.6738 43.8093 32.6305 43.8722 32.5742 43.9285C32.5222 43.9805 32.4593 44.0217 32.3857 44.052C32.312 44.0823 32.234 44.0975 32.1517 44.0975C31.9827 44.0975 31.8397 44.0412 31.7227 43.9285C31.61 43.8115 31.5537 43.6685 31.5537 43.4995Z" fill="black" fill-opacity="0.35"/>
<g clip-path="url(#clip0)">
<path d="M36.5766 16.0404L30.2753 8.91013C30.1381 8.7549 29.9409 8.66602 29.7338 8.66602H7.26721C7.0601 8.66602 6.86288 8.7549 6.72572 8.91013L0.424305 16.0404C0.236125 16.2533 0.190237 16.5568 0.307018 16.8159C0.351028 16.9136 0.4152 16.998 0.493247 17.0654C0.494764 17.0671 0.49592 17.069 0.497438 17.0707L17.9598 36.757C18.097 36.9116 18.2938 37.0001 18.5005 37.0001C18.7071 37.0001 18.9039 36.9115 19.0411 36.757L36.5035 17.0707C36.505 17.0691 36.5062 17.0672 36.5077 17.0654C36.5857 16.998 36.6498 16.9135 36.6939 16.8159C36.8107 16.5568 36.7648 16.2533 36.5766 16.0404ZM28.4524 10.1113L25.2408 15.2887L20.0941 10.1113H28.4524ZM23.7075 15.7962H13.2934L18.5005 10.5582L23.7075 15.7962ZM16.9069 10.1113L11.7601 15.2887L8.54855 10.1113H16.9069ZM7.15505 10.6068L10.3741 15.7962H2.56886L7.15505 10.6068ZM2.581 17.2416H11.1212L17.0207 33.5202L2.581 17.2416ZM20.0071 33.49L24.1289 22.3342C24.2673 21.9598 24.0759 21.5442 23.7016 21.4059C23.327 21.2674 22.9115 21.4588 22.7732 21.8332L18.507 33.3796L12.6585 17.2416H34.4199L20.0071 33.49ZM26.6268 15.7962L29.8459 10.6068L34.4321 15.7962H26.6268Z" fill="#767676"/>
<path d="M18.5 0C18.1009 0 17.7773 0.323533 17.7773 0.722656V4.44528C17.7773 4.8444 18.1009 5.16793 18.5 5.16793C18.8991 5.16793 19.2227 4.8444 19.2227 4.44528V0.722656C19.2227 0.323533 18.8991 0 18.5 0Z" fill="#767676"/>
<path d="M25.0809 2.85618C24.7987 2.57398 24.3412 2.57398 24.0588 2.85618L21.4265 5.48846C21.1443 5.77065 21.1443 6.22824 21.4265 6.51044C21.5677 6.65157 21.7526 6.7221 21.9376 6.7221C22.1225 6.7221 22.3074 6.6515 22.4485 6.51044L25.0809 3.87816C25.3631 3.59596 25.3631 3.13838 25.0809 2.85618Z" fill="#767676"/>
<path d="M15.4334 5.48846L12.8011 2.85618C12.519 2.57398 12.0615 2.57398 11.779 2.85618C11.4968 3.13838 11.4968 3.59596 11.779 3.87816L14.4114 6.51044C14.5525 6.65157 14.7374 6.7221 14.9224 6.7221C15.1073 6.7221 15.2922 6.6515 15.4334 6.51044C15.7156 6.22824 15.7156 5.77065 15.4334 5.48846Z" fill="#767676"/>
<path d="M24.3848 20.116C24.7839 20.116 25.1074 19.7924 25.1074 19.3933C25.1074 18.9942 24.7839 18.6707 24.3848 18.6707C23.9857 18.6707 23.6621 18.9942 23.6621 19.3933C23.6621 19.7924 23.9857 20.116 24.3848 20.116Z" fill="#767676"/>
</g>
<defs>
<clipPath id="clip0">
<rect width="37" height="37" fill="white"/>
</clipPath>
</defs>
</svg>
