<svg width="27" height="27" viewBox="0 0 27 27" fill="none" xmlns="http://www.w3.org/2000/svg">
<g clip-path="url(#clip0)">
<path d="M17.8979 13.6385L27.0003 19.3929V7.64111L17.8979 13.6385Z" fill="white"/>
<path d="M0 7.64111V19.3929L9.10238 13.6385L0 7.64111Z" fill="white"/>
<path d="M25.3122 4.21875H1.68717C0.845106 4.21875 0.176855 4.8465 0.050293 5.65481L13.4997 14.5159L26.949 5.65481C26.8225 4.8465 26.1542 4.21875 25.3122 4.21875Z" fill="white"/>
<path d="M16.3516 14.6579L13.9638 16.2307C13.822 16.3235 13.6617 16.3691 13.4997 16.3691C13.3377 16.3691 13.1774 16.3235 13.0356 16.2307L10.6478 14.6562L0.0537109 21.3573C0.183648 22.1589 0.848523 22.7816 1.68721 22.7816H25.3122C26.1509 22.7816 26.8158 22.1589 26.9457 21.3573L16.3516 14.6579Z" fill="white"/>
</g>
<defs>
<clipPath id="clip0">
<rect width="27" height="27" fill="white"/>
</clipPath>
</defs>
</svg>
