<svg width="1713" height="1021" viewBox="0 0 1713 1021" fill="none" xmlns="http://www.w3.org/2000/svg">
<g clip-path="url(#clip0)">
<path d="M354.197 60.5039C354.197 60.5039 326.077 129.719 331.372 136.967C336.668 144.214 326.077 180.272 326.077 180.272L320.782 195.854C320.782 195.854 332.285 212.342 331.19 219.59C330.094 226.838 313.478 242.239 314.574 246.406C315.669 250.574 293.758 263.982 295.767 269.055C297.775 274.31 303.07 276.303 299.966 284.638C296.862 292.973 276.046 380.669 276.046 380.669" stroke="#F5F5F5" stroke-miterlimit="10"/>
<path d="M85.7134 122.542C85.7134 122.542 110.554 121.447 114.724 123.637C118.713 125.645 118.713 133.86 118.713 133.86C118.713 133.86 129.048 129.661 132.13 131.852C135.213 133.86 136.301 146.455 136.301 146.455C136.301 146.455 136.301 154.852 133.218 158.868C130.136 163.067 136.301 168.178 140.471 169.273C144.641 170.368 152.8 165.074 156.971 166.17C161.141 167.265 177.641 175.479 177.641 175.479L196.316 177.487L212.816 174.384L222.063 181.686L247.991 179.678C247.991 179.678 266.667 179.678 282.079 184.972C297.672 190.265 321.424 195.377 321.424 195.377" stroke="#F5F5F5" stroke-miterlimit="10"/>
<path d="M383.287 66.8062L371.843 109.294L378.019 127.996L372.751 137.256C372.751 137.256 378.019 148.695 386.193 152.871C394.549 157.048 390.371 182.831 396.547 185.01C396.547 185.01 414.166 181.923 414.166 185.01C414.166 188.096 398.545 212.972 398.545 212.972C398.545 212.972 398.545 221.324 395.457 225.319C392.369 229.495 396.547 230.584 399.634 232.582C402.722 234.579 417.254 228.405 416.164 234.579C415.074 240.752 418.162 252.191 418.162 252.191L427.426 270.893L423.248 282.332C423.248 282.332 430.514 283.422 430.514 286.509C430.514 289.595 429.424 292.682 433.602 295.769C437.779 298.856 447.043 299.945 447.043 299.945C447.043 299.945 462.664 299.945 466.66 301.034C470.838 302.124 479.012 301.034 479.012 301.034C479.012 301.034 487.368 291.774 490.455 294.861C493.543 297.948 496.631 306.3 496.631 306.3" stroke="#F5F5F5" stroke-miterlimit="10"/>
<path d="M22.689 311.342C22.689 311.342 347.766 410.334 477.724 419.745" stroke="#F5F5F5" stroke-miterlimit="10"/>
<path d="M751.249 117.226C751.249 117.226 720.457 442.456 718.477 500.416" stroke="#F5F5F5" stroke-miterlimit="10"/>
<path d="M734.214 307.712C720.82 312.968 623.805 299.373 607.335 299.373C590.864 299.373 501.089 284.872 501.089 284.872C496.926 315.869 468.148 467.772 468.148 467.772C468.148 467.772 681.001 504.026 787.789 505.476C787.789 505.476 788.513 674.42 779.825 693.272C779.825 693.272 390.138 662.637 334.029 637.984" stroke="#F5F5F5" stroke-miterlimit="10"/>
<path d="M727.301 407.14C727.301 407.14 915.12 421.766 988.221 413.356" stroke="#F5F5F5" stroke-miterlimit="10"/>
<path d="M957.97 129.831C957.97 129.831 965.229 145.433 963.233 150.513C961.237 155.774 957.062 178.452 965.23 185.709C973.578 192.966 974.486 206.391 975.575 214.736C976.664 223.082 973.578 237.414 975.575 243.764C977.571 249.932 985.92 268.619 985.92 274.787C985.92 280.955 974.486 297.465 974.486 297.465L984.831 303.633C984.831 303.633 991.002 378.016 990.094 388.357C989.005 398.698 983.924 416.296 988.098 424.641C992.272 432.986 989.187 450.584 993.361 456.753C997.536 462.921 1004.8 479.43 1006.79 485.78C1008.79 491.948 1003.71 522.064 1012.96 530.228C1022.22 538.574 1027.48 551.999 1030.57 553.995C1033.65 555.99 1032.56 564.336 1042.91 563.247C1053.25 562.159 1055.25 563.247 1050.17 567.42C1044.91 571.593 1033.65 574.677 1036.74 577.761C1039.82 580.845 1039.82 578.849 1044 583.022C1048.17 587.195 1050.17 596.447 1050.17 596.447C1055.43 596.447 1060.51 601.708 1060.51 601.708C1060.51 601.708 1057.43 632.732 1059.43 637.993C1061.42 643.254 1059.43 692.782 1062.51 696.955C1065.6 701.127 1058.34 720.721 1063.6 729.066C1068.86 737.412 1066.69 764.262 1066.69 764.262C1073.95 775.692 1066.69 824.313 1071.95 841.911C1077.21 859.509 1070.86 858.42 1070.86 858.42L1087.38 860.416C1087.38 860.416 1085.38 917.382 1093.55 930.807C1101.9 944.232 1102.8 946.409 1103.89 952.578C1104.98 958.746 1111.15 962.919 1113.15 968.18C1115.14 973.441 1117.32 986.866 1113.15 991.946C1108.97 997.208 1101.71 1006.46 1104.8 1011.54C1107.88 1016.8 1112.06 1028.05 1107.88 1032.22C1103.71 1036.39 1104.8 1048.73 1104.8 1048.73" stroke="#F5F5F5" stroke-miterlimit="10"/>
<path d="M1201.47 167.646C1201.47 167.646 1132.1 219.309 1127.02 225.472C1121.75 231.636 1127.02 249.219 1127.02 249.219C1127.02 249.219 1102.14 277.136 1104.32 284.387C1106.32 291.637 1108.5 295.807 1108.5 306.139C1108.5 316.472 1108.5 328.799 1116.85 332.062C1125.2 335.143 1135.55 336.231 1143.73 344.388C1152.08 352.727 1150.99 356.715 1159.34 360.884C1167.7 365.054 1167.7 378.468 1167.7 382.637C1167.7 386.806 1174.96 398.227 1174.96 398.227L1172.96 410.553L1176.05 421.974H1186.4L1199.84 433.394C1199.84 433.394 1206.01 438.651 1208.19 444.814C1210.19 450.977 1215.45 459.316 1209.28 464.392C1203.1 469.649 1216.54 471.643 1203.1 478.894C1189.67 486.145 1185.49 481.975 1184.4 486.145C1183.31 490.314 1184.4 508.804 1184.4 508.804L1169.87 521.131C1169.87 521.131 1162.61 556.298 1172.96 563.549C1183.31 570.8 1202.92 576.963 1207.1 585.302C1211.28 593.64 1211.28 610.136 1217.45 616.299C1223.62 622.463 1224.71 634.971 1224.71 634.971C1224.71 634.971 1231.98 648.385 1242.33 649.473C1252.68 650.56 1254.68 659.805 1254.68 663.975C1254.68 668.144 1240.15 673.22 1251.59 679.564C1263.03 685.727 1267.21 689.897 1267.21 689.897L1268.29 699.142L1262.12 707.48C1262.12 707.48 1243.42 708.568 1246.5 713.644C1249.59 718.901 1253.77 721.982 1253.77 721.982L1254.86 738.478C1254.86 738.478 1254.86 740.472 1253.77 745.729C1252.68 750.986 1243.42 754.974 1241.42 759.143C1239.42 763.313 1236.15 783.978 1232.16 788.147C1227.98 792.317 1230.16 794.311 1224.9 798.48C1219.63 802.649 1207.28 820.233 1211.46 824.402C1215.63 828.571 1204.19 834.735 1204.19 834.735C1204.19 834.735 1192.75 840.898 1201.11 855.4C1209.46 869.902 1198.02 879.147 1203.1 883.316C1208.37 887.486 1208.37 893.649 1208.37 893.649L1216.72 908.151C1216.72 908.151 1206.19 914.495 1208.37 917.396C1208.37 917.396 1190.76 953.651 1194.93 965.977C1199.11 978.304 1204.19 979.392 1204.19 979.392L1261.21 969.059L1267.39 986.642C1267.39 986.642 1265.39 1000.06 1271.56 1003.14L1281.91 1008.4" stroke="#F5F5F5" stroke-miterlimit="10"/>
<path d="M293.693 727.305C282.317 716.951 145.446 502.599 138.224 498.421C131.001 494.243 173.254 355.459 173.254 355.459" stroke="#F5F5F5" stroke-miterlimit="10"/>
<path d="M374.364 407.14C374.364 407.14 327.262 675.263 322.048 683.432C316.835 691.783 313.778 684.522 313.778 684.522L300.474 674.174C295.261 680.346 295.8 690.875 296.519 695.958C297.238 701.041 299.396 712.659 299.396 715.564C299.396 718.468 287.89 732.265 290.766 734.443C293.643 736.621 295.8 743.883 297.238 746.787C298.677 749.692 302.272 756.953 304.43 761.31C306.587 765.667 304.43 772.202 298.677 770.75C292.924 769.297 287.89 773.654 287.89 773.654C287.89 773.654 279.979 792.533 282.856 797.072C285.732 801.429 278.541 801.429 278.541 806.511C278.541 811.594 272.069 817.403 276.384 819.582C280.699 821.76 290.766 822.486 285.013 826.117C279.26 829.748 274.946 831.926 270.631 831.926C266.316 831.926 262.181 827.025 262.181 827.025" stroke="#F5F5F5" stroke-miterlimit="10"/>
<path d="M540.748 478.988C540.748 478.988 479.96 925.055 485.665 944.11" stroke="#F5F5F5" stroke-miterlimit="10"/>
<path d="M743.077 688.23C745.254 688.23 740.901 718.169 740.901 718.169C736.548 721.798 729.293 904.699 727.842 925.203C727.842 925.203 589.455 916.493 584.376 916.493C579.298 916.493 577.303 921.755 577.303 921.755" stroke="#F5F5F5" stroke-miterlimit="10"/>
<path d="M780.241 693.272C780.241 693.272 1016.14 704.604 1062.59 696.878" stroke="#F5F5F5" stroke-miterlimit="10"/>
<path d="M741.166 718.482C741.166 718.482 844.043 721.393 851.495 722.121L855.13 813.457L864.582 821.462L879.849 818.551L886.393 827.284L903.842 835.29H915.475L925.653 833.107L937.286 841.112V846.206L954.735 843.295L964.186 846.934L971.457 846.206L981.635 844.751L991.087 846.934L999.084 852.029L1011.44 847.662H1029.62L1039.8 841.84L1047.07 844.751C1047.07 844.751 1063.43 857.305 1070.15 858.397" stroke="#F5F5F5" stroke-miterlimit="10"/>
<path d="M786.543 553.357C786.543 553.357 935.442 564.451 1029.82 553.727" stroke="#F5F5F5" stroke-miterlimit="10"/>
<path d="M1009.65 527.967C1009.65 527.967 1022.03 529.408 1041.88 529.408C1061.55 529.408 1136.22 519.324 1143.51 519.324C1150.79 519.324 1158.08 521.485 1158.08 521.485H1169.73" stroke="#F5F5F5" stroke-miterlimit="10"/>
<path d="M989.481 388.728C989.481 388.728 1027.38 385.129 1041.17 389.327C1054.95 393.326 1112.62 387.728 1123.5 386.928C1134.38 386.128 1167.21 381.93 1167.21 381.93" stroke="#F5F5F5" stroke-miterlimit="10"/>
<path d="M1125.61 234.767C1125.61 234.767 1146.68 229.688 1151.22 229.688C1155.58 229.688 1154.13 222.433 1159.94 223.158C1165.75 223.884 1169.38 228.963 1170.83 233.316C1172.29 237.669 1190.45 237.669 1190.45 237.669C1190.45 237.669 1202.07 238.394 1223.32 247.826C1244.38 257.258 1256.91 258.709 1256.91 258.709L1258.37 265.964L1270.72 273.945L1278.71 290.632L1285.25 302.604L1285.79 327.453L1285.25 378.24L1281.07 408.893C1281.07 408.893 1283.97 418.143 1285.25 422.678C1285.25 422.678 1284.52 426.306 1285.97 432.835C1287.42 439.365 1290.33 437.189 1301.23 441.542C1312.12 445.895 1312.12 450.974 1312.12 450.974C1312.12 450.974 1307.76 471.288 1305.59 483.078C1303.41 494.686 1314.3 564.7 1315.03 572.681C1315.76 580.661 1317.21 596.079 1317.21 596.079C1317.21 596.079 1309.22 616.393 1305.59 624.556C1301.95 632.536 1305.59 637.615 1307.76 640.517C1309.94 643.419 1307.04 652.851 1307.04 652.851C1307.04 652.851 1297.59 655.028 1289.6 656.479C1281.61 657.93 1291.06 665.185 1291.78 669.538C1292.51 673.891 1290.33 676.068 1290.33 676.068L1283.79 670.989C1283.79 670.989 1274.35 671.715 1269.26 672.44C1264.18 673.166 1266.54 689.49 1266.54 689.49" stroke="#F5F5F5" stroke-miterlimit="10"/>
<path d="M1191.16 427.801C1191.16 427.801 1210.95 428.568 1217.73 428.568C1224.33 428.568 1250.9 424.732 1250.9 424.732L1270.69 420.895L1284.44 419.745" stroke="#F5F5F5" stroke-miterlimit="10"/>
<path d="M1058.81 721.119C1058.81 721.119 1095.24 712.587 1106.84 716.142C1118.44 719.697 1150.52 716.853 1150.52 716.853L1184.06 713.298C1184.06 713.298 1229.19 707.611 1232.09 710.455C1234.99 713.298 1231.36 726.096 1227.74 730.362C1224.11 734.628 1230.64 735.339 1237.16 734.628C1243.69 733.917 1248.04 726.807 1251.66 728.229" stroke="#F5F5F5" stroke-miterlimit="10"/>
<path d="M1449.56 423.526C1449.56 423.526 1427.57 437.918 1420.3 439.322C1413.03 440.727 1396.86 442.833 1396.86 442.833L1384.5 437.216L1356.69 444.237L1328.89 451.257L1312.17 450.555" stroke="#F5F5F5" stroke-miterlimit="10"/>
<path d="M1261.75 707.127C1261.75 707.127 1309.56 707.49 1309.56 703.862C1309.56 700.234 1309.56 695.88 1309.56 695.88L1339.45 692.978C1339.45 692.978 1401.21 681.369 1430.37 679.192C1459.53 677.015 1482.72 670.485 1510.43 665.406C1538.14 660.326 1589.04 658.875 1606.43 653.796C1623.81 648.717 1670.54 640.735 1687.93 631.847C1705.32 623.14 1725.6 610.079 1725.6 610.079" stroke="#F5F5F5" stroke-miterlimit="10"/>
<path d="M1087.8 886.127C1087.8 886.127 1125.06 884.026 1136.7 884.727C1148.33 885.427 1202.5 879.825 1202.5 879.825" stroke="#F5F5F5" stroke-miterlimit="10"/>
<path d="M1234.02 782.767C1234.02 782.767 1251.42 780.618 1259.58 778.469C1267.56 776.319 1236.19 779.901 1341.9 770.588C1447.43 761.275 1495.66 748.201 1495.66 748.201L1507.99 746.052C1507.99 746.052 1525.4 733.873 1534.28 732.441C1542.98 731.008 1572.18 725.993 1572.18 725.993C1572.18 725.993 1575.08 723.844 1583.06 725.277C1591.03 726.709 1597.56 728.142 1597.56 728.142L1598.29 737.455L1610.62 738.888L1646.34 728.859L1677.7 749.634L1704.18 756.619" stroke="#F5F5F5" stroke-miterlimit="10"/>
<path d="M1356.14 997.051L1361.75 987.38V975.703C1361.75 975.703 1364.64 967.675 1358.86 966.215C1353.07 964.755 1353.79 957.457 1353.79 957.457L1366.82 955.267L1383.46 954.537L1411.14 952.348L1442.43 947.239C1442.43 947.239 1456.18 944.32 1462.69 945.779C1469.2 947.239 1470.65 953.808 1470.65 953.808L1481.51 955.267C1481.51 955.267 1491.64 951.618 1510.63 951.618C1529.44 951.618 1545.54 949.429 1556.4 949.429C1567.25 949.429 1567.97 947.239 1571.59 948.699C1575.21 950.158 1581 958.917 1583.17 958.917" stroke="#F5F5F5" stroke-miterlimit="10"/>
<path d="M1305.86 773.943C1305.86 773.943 1317.62 789.177 1318.35 792.079C1319.09 794.98 1318.35 833.608 1318.35 833.608C1318.35 833.608 1311.01 889.646 1312.47 891.822C1313.94 893.998 1310.27 916.667 1313.21 920.294C1316.15 923.921 1318.35 936.253 1318.35 936.253C1318.35 936.253 1326.43 985.762 1327.17 991.565C1327.9 997.369 1333.59 1003.35 1333.59 1003.35" stroke="#F5F5F5" stroke-miterlimit="10"/>
<path d="M1414.28 763.859V773.3C1414.28 773.3 1413.54 769.669 1424.52 800.349C1435.51 831.03 1447.4 877.686 1451.06 880.591C1454.72 883.496 1455.45 890.757 1453.26 894.388C1451.06 898.019 1450.33 900.197 1449.6 903.828C1448.87 907.459 1448.87 913.268 1448.87 913.268L1458.38 925.613L1452.53 936.506V941.589" stroke="#F5F5F5" stroke-miterlimit="10"/>
<path d="M1504.54 744.952L1498.72 758.808L1508.91 763.912C1516.93 767.559 1516.93 767.559 1516.93 767.559L1532.22 778.497L1544.6 793.811C1544.6 793.811 1545.33 804.75 1557.72 811.313C1570.1 817.877 1582.66 825.169 1582.66 825.169C1582.66 825.169 1584.85 827.357 1586.3 831.732C1587.76 836.108 1591.4 843.4 1591.4 843.4C1591.4 843.4 1597.23 849.963 1600.14 854.339C1603.06 858.714 1612.16 862.178 1612.16 862.178" stroke="#F5F5F5" stroke-miterlimit="10"/>
<path d="M1458.7 755.036C1458.7 755.036 1457.98 748.565 1458.7 743.533C1459.42 738.5 1464.45 737.781 1468.04 737.781C1471.63 737.781 1468.76 729.873 1473.07 727.716C1477.38 725.56 1485.28 720.527 1488.87 720.527C1492.46 720.527 1494.61 713.338 1494.61 713.338L1509.7 702.554L1514.01 696.083C1524.06 693.927 1531.25 691.77 1531.25 691.77C1531.25 691.77 1564.47 672.359 1573.09 659.238" stroke="#F5F5F5" stroke-miterlimit="10"/>
<path d="M1397.88 443.694C1397.88 443.694 1410.74 555.324 1414.27 564.701" stroke="#F5F5F5" stroke-miterlimit="10"/>
<path d="M1568.04 367.804L1569.5 393.274C1569.5 393.274 1702.15 359.133 1713.76 357.688C1725.38 356.243 1725.38 361.301 1725.38 361.301L1730.46 367.082C1730.46 367.082 1729.73 369.972 1734.09 372.139C1738.44 374.307 1748.61 380.088 1748.61 380.088L1768.93 383.7C1768.93 383.7 1779.09 395.261 1784.17 392.371C1789.25 389.481 1782.72 387.313 1782.72 383.7C1782.72 380.088 1784.9 375.03 1784.9 375.03C1784.9 375.03 1782.72 338.721 1779.82 334.386C1776.91 330.05 1773.29 311.083 1773.29 311.083L1769.66 290.129L1761.67 263.936C1761.67 263.936 1758.04 246.595 1751.51 239.911C1744.98 233.408 1741.35 221.847 1741.35 221.847" stroke="#F5F5F5" stroke-miterlimit="10"/>
<path d="M1305.86 632.737C1305.86 632.737 1326.91 637.81 1329.99 637.81C1332.89 637.81 1340.15 635.636 1340.15 635.636L1343.78 629.114C1343.78 629.114 1343.78 626.215 1361.19 618.243C1378.6 610.271 1399.1 597.227 1399.1 597.227L1407.08 587.805C1408.53 582.732 1416.52 582.732 1415.07 579.834C1413.61 576.935 1405.63 567.514 1410.71 566.789C1415.79 566.064 1422.32 563.165 1423.05 565.34C1423.77 567.514 1429.58 566.789 1435.38 570.412C1441.19 574.036 1444.09 579.834 1444.09 579.834H1462.95C1470.94 577.66 1478.19 577.659 1478.19 577.659C1478.19 577.659 1475.29 571.862 1479.64 571.862C1484 571.862 1487.62 565.34 1490.53 568.963C1493.43 572.587 1491.98 577.659 1491.98 577.659L1498.51 584.907C1498.51 584.907 1498.51 600.85 1503.59 603.749C1508.67 606.648 1522.45 616.794 1526.26 619.692C1529.89 622.591 1534.97 631.288 1540.05 631.288C1545.13 631.288 1553.11 630.563 1553.11 630.563L1555.29 626.215C1561.82 627.664 1570.52 622.591 1570.52 622.591L1585.76 614.62L1593.02 610.271V593.422C1593.02 593.422 1589.39 585.45 1593.02 584.001C1596.64 582.551 1606.26 560.81 1605.71 556.643C1605.17 552.476 1607.53 545.41 1609.89 543.055C1612.25 540.7 1605.17 543.598 1616.42 538.344C1627.66 533.09 1627.12 536.532 1630.02 533.634C1632.92 530.735 1639.45 520.589 1640.72 515.878C1641.99 511.168 1644.9 510.624 1642.54 506.457C1640.18 502.29 1636.55 499.391 1644.35 504.102C1651.97 508.813 1655.06 510.624 1659.05 511.711C1663.22 512.98 1667.93 514.61 1667.93 511.711C1667.93 508.812 1664.31 501.747 1667.93 501.747C1671.56 501.747 1680.27 510.081 1686.8 512.436C1693.33 514.791 1691.52 522.22 1699.13 523.669" stroke="#F5F5F5" stroke-miterlimit="10"/>
<path d="M1528.54 393.274C1528.54 393.274 1538.54 407.024 1540.36 408.291C1542.18 409.557 1544.54 418.965 1544.54 418.965C1544.54 418.965 1543.27 437.238 1548.18 443.028C1552.91 448.998 1554.18 460.758 1554.18 460.758C1554.18 460.758 1550 493.143 1551.27 496.037C1552.54 498.932 1548.91 504.36 1551.27 509.064C1553.63 513.768 1547.09 517.386 1544.72 520.824C1542.36 524.442 1541.81 529.146 1537.63 529.146C1537.63 529.146 1523.99 535.116 1523.45 539.82C1522.9 544.524 1522.18 548.143 1522.18 552.847C1522.18 557.551 1520.9 558.093 1520.9 558.093L1514.9 554.475L1513.08 559.179L1512.54 565.692C1512.54 565.692 1519.63 559.722 1512.54 569.853C1505.45 579.804 1504.17 583.422 1504.17 583.422L1498.72 584.87" stroke="#F5F5F5" stroke-miterlimit="10"/>
<path d="M1609.64 540.752C1609.64 540.752 1605.99 534.222 1605.99 529.505C1605.99 524.789 1601.24 512.998 1601.24 512.998L1598.31 502.295C1598.31 502.295 1593.02 504.654 1589.36 506.468C1585.71 508.282 1583.34 512.454 1579.32 511.728C1575.12 511.184 1567.44 508.826 1567.44 508.826L1563.79 504.654C1563.79 504.654 1556.67 502.84 1558.49 498.667C1560.32 494.495 1554.29 491.593 1554.29 491.593C1548.99 492.863 1550.64 493.407 1550.64 493.407" stroke="#F5F5F5" stroke-miterlimit="10"/>
<path d="M1736.95 507.979C1736.95 507.979 1730.95 493.749 1731.68 488.458C1732.22 483.167 1729.31 476.599 1729.31 476.599L1722.77 467.66L1709.14 466.383L1684.23 472.951L1660.06 477.147L1643.51 491.377C1643.51 491.377 1636.42 497.945 1639.33 502.688" stroke="#F5F5F5" stroke-miterlimit="10"/>
</g>
<defs>
<clipPath id="clip0">
<rect width="1713" height="1021" fill="white"/>
</clipPath>
</defs>
</svg>
