<svg width="61" height="46" viewBox="0 0 61 46" fill="none" xmlns="http://www.w3.org/2000/svg">
<g clip-path="url(#clip0)">
<path d="M18.9831 20.1929C18.9146 20.1781 18.8444 20.1755 18.775 20.1858C18.0801 20.1049 17.5559 19.517 17.5547 18.8176C17.5547 18.4825 17.283 18.2107 16.9478 18.2107C16.6126 18.2107 16.3409 18.4825 16.3409 18.8176C16.3427 19.9855 17.1238 21.0085 18.2499 21.3176V21.9245C18.2499 22.2596 18.5217 22.5314 18.8568 22.5314C19.192 22.5314 19.4637 22.2596 19.4637 21.9245V21.3543C20.7635 21.0823 21.6469 19.8717 21.5103 18.5509C21.3733 17.2301 20.2606 16.2264 18.9327 16.2261C18.1717 16.2261 17.5547 15.6091 17.5547 14.8481C17.5547 14.0871 18.1717 13.4701 18.9327 13.4701C19.6937 13.4701 20.3107 14.0871 20.3107 14.8481C20.3107 15.1833 20.5824 15.455 20.9176 15.455C21.2527 15.455 21.5245 15.1833 21.5245 14.8481C21.5227 13.6219 20.6636 12.5642 19.4637 12.3111V11.7588C19.4637 11.4236 19.192 11.1519 18.8568 11.1519C18.5217 11.1519 18.2499 11.4236 18.2499 11.7588V12.3482C16.9976 12.6902 16.1915 13.9061 16.364 15.1928C16.5365 16.4795 17.6344 17.4399 18.9327 17.4396C19.6836 17.4396 20.2961 18.0409 20.3098 18.7915C20.3237 19.5422 19.7334 20.1657 18.9831 20.1929Z" fill="#767676"/>
<path d="M10.1318 16.8798C10.1318 21.7404 14.072 25.6806 18.9326 25.6806C23.7931 25.6806 27.7333 21.7404 27.7333 16.8798C27.7333 12.0192 23.7931 8.0791 18.9326 8.0791C14.0744 8.08444 10.1375 12.0216 10.1318 16.8798ZM18.9326 9.29291C23.1228 9.29291 26.5195 12.6896 26.5195 16.8798C26.5195 21.0701 23.1228 24.4668 18.9326 24.4668C14.7423 24.4668 11.3456 21.0701 11.3456 16.8798C11.3504 12.6916 14.7444 9.29766 18.9326 9.29291Z" fill="#767676"/>
<path d="M30.7255 27.1769L25.9713 29.4231C25.3149 28.2022 24.0557 27.4252 22.6701 27.3861L18.2812 27.2655C17.5863 27.2456 16.9044 27.0696 16.2866 26.7504L15.84 26.519C13.5534 25.3271 10.828 25.3301 8.54377 26.5267L8.57163 25.515C8.58081 25.1798 8.31677 24.9007 7.98161 24.8915L3.16903 24.759C2.83387 24.7498 2.55501 25.0139 2.54583 25.349L2.25512 35.91C2.24593 36.2452 2.50997 36.5244 2.84513 36.5335L7.65771 36.666H7.67431C8.00325 36.666 8.27232 36.4043 8.28121 36.0757L8.29514 35.5704L9.54541 34.901C10.0361 34.637 10.6099 34.5741 11.1459 34.7259L18.612 36.8213C18.625 36.8251 18.638 36.8281 18.6514 36.8311C19.191 36.944 19.741 37.0006 20.2922 37.0003C21.4598 37.0009 22.6138 36.7493 23.675 36.2621C23.701 36.2502 23.7262 36.2363 23.7502 36.2206L34.5753 29.2187C34.8449 29.0441 34.9321 28.69 34.7741 28.4102C33.9704 26.9842 32.1879 26.4411 30.7255 27.1769ZM3.48523 35.3369L3.74245 25.9891L7.34152 26.0881L7.08429 35.4362L3.48523 35.3369ZM23.1282 35.1781C21.8098 35.7731 20.3373 35.9373 18.9202 35.6478L11.4743 33.5577C10.6362 33.3209 9.73921 33.419 8.97258 33.8312L8.33367 34.1735L8.50465 27.9583C10.5293 26.6117 13.1258 26.4734 15.282 27.5968L15.7286 27.8282C16.5091 28.2313 17.37 28.4535 18.2481 28.479L22.6372 28.5996C23.8699 28.6352 24.9169 29.5129 25.167 30.7208L18.6294 30.5403C18.2943 30.5312 18.0154 30.7955 18.0059 31.1304C17.9968 31.4655 18.2611 31.7447 18.596 31.7539L25.8107 31.9524H25.8276C26.1562 31.9521 26.425 31.6904 26.4339 31.3621C26.4413 31.0984 26.4217 30.8343 26.3752 30.5747L31.2515 28.2707C31.2562 28.2686 31.261 28.2662 31.2657 28.2638C31.9574 27.9139 32.7937 28.0309 33.3626 28.5575L23.1282 35.1781Z" fill="#767676"/>
<path d="M19.5395 6.37252V0.606907C19.5395 0.271745 19.2678 0 18.9326 0C18.5974 0 18.3257 0.271745 18.3257 0.606907V6.37252C18.3257 6.70768 18.5974 6.97943 18.9326 6.97943C19.2678 6.97943 19.5395 6.70768 19.5395 6.37252Z" fill="#767676"/>
<path d="M24.0913 6.37266V3.64157C24.0913 3.30641 23.8195 3.03467 23.4843 3.03467C23.1492 3.03467 22.8774 3.30641 22.8774 3.64157V6.37266C22.8774 6.70782 23.1492 6.97956 23.4843 6.97956C23.8195 6.97956 24.0913 6.70782 24.0913 6.37266Z" fill="#767676"/>
<path d="M14.9877 6.37266V3.64157C14.9877 3.30641 14.716 3.03467 14.3808 3.03467C14.0457 3.03467 13.7739 3.30641 13.7739 3.64157V6.37266C13.7739 6.70782 14.0457 6.97956 14.3808 6.97956C14.716 6.97956 14.9877 6.70782 14.9877 6.37266Z" fill="#767676"/>
</g>
<path d="M53.1963 25.2056C53.0456 25.2056 52.8948 25.1479 52.78 25.033L49.1728 21.4257C48.9424 21.1955 48.9424 20.8232 49.1728 20.593C49.403 20.3627 49.7751 20.3627 50.0055 20.593L53.1963 23.7838L59.9946 16.9857C60.2248 16.7554 60.597 16.7554 60.8273 16.9857C61.0575 17.216 61.0575 17.5882 60.8273 17.8185L53.6128 25.033C53.4979 25.1479 53.3471 25.2056 53.1963 25.2056Z" fill="black"/>
<path d="M3.6825 42.4995C3.6825 42.4172 3.69767 42.3392 3.728 42.2655C3.75833 42.1918 3.7995 42.129 3.8515 42.077C3.90783 42.0207 3.97067 41.9773 4.04 41.947C4.11367 41.9123 4.19383 41.895 4.2805 41.895C4.36283 41.895 4.44083 41.9123 4.5145 41.947C4.58817 41.9773 4.651 42.0207 4.703 42.077C4.75933 42.129 4.80267 42.1918 4.833 42.2655C4.86767 42.3392 4.885 42.4172 4.885 42.4995C4.885 42.5862 4.86767 42.6663 4.833 42.74C4.80267 42.8093 4.75933 42.8722 4.703 42.9285C4.651 42.9805 4.58817 43.0217 4.5145 43.052C4.44083 43.0823 4.36283 43.0975 4.2805 43.0975C4.1115 43.0975 3.9685 43.0412 3.8515 42.9285C3.73883 42.8115 3.6825 42.6685 3.6825 42.4995ZM7.80695 42.4995C7.80695 42.4172 7.82212 42.3392 7.85245 42.2655C7.88279 42.1918 7.92395 42.129 7.97595 42.077C8.03229 42.0207 8.09512 41.9773 8.16445 41.947C8.23812 41.9123 8.31829 41.895 8.40495 41.895C8.48729 41.895 8.56529 41.9123 8.63895 41.947C8.71262 41.9773 8.77545 42.0207 8.82745 42.077C8.88379 42.129 8.92712 42.1918 8.95745 42.2655C8.99212 42.3392 9.00945 42.4172 9.00945 42.4995C9.00945 42.5862 8.99212 42.6663 8.95745 42.74C8.92712 42.8093 8.88379 42.8722 8.82745 42.9285C8.77545 42.9805 8.71262 43.0217 8.63895 43.052C8.56529 43.0823 8.48729 43.0975 8.40495 43.0975C8.23595 43.0975 8.09295 43.0412 7.97595 42.9285C7.86329 42.8115 7.80695 42.6685 7.80695 42.4995ZM11.9314 42.4995C11.9314 42.4172 11.9466 42.3392 11.9769 42.2655C12.0072 42.1918 12.0484 42.129 12.1004 42.077C12.1567 42.0207 12.2196 41.9773 12.2889 41.947C12.3626 41.9123 12.4427 41.895 12.5294 41.895C12.6117 41.895 12.6897 41.9123 12.7634 41.947C12.8371 41.9773 12.8999 42.0207 12.9519 42.077C13.0082 42.129 13.0516 42.1918 13.0819 42.2655C13.1166 42.3392 13.1339 42.4172 13.1339 42.4995C13.1339 42.5862 13.1166 42.6663 13.0819 42.74C13.0516 42.8093 13.0082 42.8722 12.9519 42.9285C12.8999 42.9805 12.8371 43.0217 12.7634 43.052C12.6897 43.0823 12.6117 43.0975 12.5294 43.0975C12.3604 43.0975 12.2174 43.0412 12.1004 42.9285C11.9877 42.8115 11.9314 42.6685 11.9314 42.4995ZM16.0559 42.4995C16.0559 42.4172 16.071 42.3392 16.1014 42.2655C16.1317 42.1918 16.1729 42.129 16.2249 42.077C16.2812 42.0207 16.344 41.9773 16.4134 41.947C16.487 41.9123 16.5672 41.895 16.6539 41.895C16.7362 41.895 16.8142 41.9123 16.8879 41.947C16.9615 41.9773 17.0244 42.0207 17.0764 42.077C17.1327 42.129 17.176 42.1918 17.2064 42.2655C17.241 42.3392 17.2584 42.4172 17.2584 42.4995C17.2584 42.5862 17.241 42.6663 17.2064 42.74C17.176 42.8093 17.1327 42.8722 17.0764 42.9285C17.0244 42.9805 16.9615 43.0217 16.8879 43.052C16.8142 43.0823 16.7362 43.0975 16.6539 43.0975C16.4849 43.0975 16.3419 43.0412 16.2249 42.9285C16.1122 42.8115 16.0559 42.6685 16.0559 42.4995ZM20.1803 42.4995C20.1803 42.4172 20.1955 42.3392 20.2258 42.2655C20.2561 42.1918 20.2973 42.129 20.3493 42.077C20.4056 42.0207 20.4685 41.9773 20.5378 41.947C20.6115 41.9123 20.6916 41.895 20.7783 41.895C20.8606 41.895 20.9386 41.9123 21.0123 41.947C21.086 41.9773 21.1488 42.0207 21.2008 42.077C21.2571 42.129 21.3005 42.1918 21.3308 42.2655C21.3655 42.3392 21.3828 42.4172 21.3828 42.4995C21.3828 42.5862 21.3655 42.6663 21.3308 42.74C21.3005 42.8093 21.2571 42.8722 21.2008 42.9285C21.1488 42.9805 21.086 43.0217 21.0123 43.052C20.9386 43.0823 20.8606 43.0975 20.7783 43.0975C20.6093 43.0975 20.4663 43.0412 20.3493 42.9285C20.2366 42.8115 20.1803 42.6685 20.1803 42.4995ZM24.3048 42.4995C24.3048 42.4172 24.3199 42.3392 24.3503 42.2655C24.3806 42.1918 24.4218 42.129 24.4738 42.077C24.5301 42.0207 24.5929 41.9773 24.6623 41.947C24.7359 41.9123 24.8161 41.895 24.9028 41.895C24.9851 41.895 25.0631 41.9123 25.1368 41.947C25.2104 41.9773 25.2733 42.0207 25.3253 42.077C25.3816 42.129 25.4249 42.1918 25.4553 42.2655C25.4899 42.3392 25.5073 42.4172 25.5073 42.4995C25.5073 42.5862 25.4899 42.6663 25.4553 42.74C25.4249 42.8093 25.3816 42.8722 25.3253 42.9285C25.2733 42.9805 25.2104 43.0217 25.1368 43.052C25.0631 43.0823 24.9851 43.0975 24.9028 43.0975C24.7338 43.0975 24.5908 43.0412 24.4738 42.9285C24.3611 42.8115 24.3048 42.6685 24.3048 42.4995ZM28.4292 42.4995C28.4292 42.4172 28.4444 42.3392 28.4747 42.2655C28.5051 42.1918 28.5462 42.129 28.5982 42.077C28.6546 42.0207 28.7174 41.9773 28.7867 41.947C28.8604 41.9123 28.9406 41.895 29.0272 41.895C29.1096 41.895 29.1876 41.9123 29.2612 41.947C29.3349 41.9773 29.3977 42.0207 29.4497 42.077C29.5061 42.129 29.5494 42.1918 29.5797 42.2655C29.6144 42.3392 29.6317 42.4172 29.6317 42.4995C29.6317 42.5862 29.6144 42.6663 29.5797 42.74C29.5494 42.8093 29.5061 42.8722 29.4497 42.9285C29.3977 42.9805 29.3349 43.0217 29.2612 43.052C29.1876 43.0823 29.1096 43.0975 29.0272 43.0975C28.8582 43.0975 28.7152 43.0412 28.5982 42.9285C28.4856 42.8115 28.4292 42.6685 28.4292 42.4995ZM32.5537 42.4995C32.5537 42.4172 32.5688 42.3392 32.5992 42.2655C32.6295 42.1918 32.6707 42.129 32.7227 42.077C32.779 42.0207 32.8418 41.9773 32.9112 41.947C32.9848 41.9123 33.065 41.895 33.1517 41.895C33.234 41.895 33.312 41.9123 33.3857 41.947C33.4593 41.9773 33.5222 42.0207 33.5742 42.077C33.6305 42.129 33.6738 42.1918 33.7042 42.2655C33.7388 42.3392 33.7562 42.4172 33.7562 42.4995C33.7562 42.5862 33.7388 42.6663 33.7042 42.74C33.6738 42.8093 33.6305 42.8722 33.5742 42.9285C33.5222 42.9805 33.4593 43.0217 33.3857 43.052C33.312 43.0823 33.234 43.0975 33.1517 43.0975C32.9827 43.0975 32.8397 43.0412 32.7227 42.9285C32.61 42.8115 32.5537 42.6685 32.5537 42.4995Z" fill="black" fill-opacity="0.35"/>
<defs>
<clipPath id="clip0">
<rect width="37" height="37" fill="white"/>
</clipPath>
</defs>
</svg>
