<svg width="37" height="45" viewBox="0 0 37 45" fill="none" xmlns="http://www.w3.org/2000/svg">
<path d="M30.9956 26.1301C31.5188 25.0918 31.7969 23.9494 31.7969 22.7752C31.7969 21.0449 31.5957 19.3134 31.1997 17.6293L29.8885 12.0574C29.5798 10.7445 28.4229 9.82812 27.0748 9.82812H26.5787C26.0503 9.13033 25.2213 8.67188 24.2812 8.67188H22.5469V7.51562H23.125C24.0812 7.51562 24.8594 6.73747 24.8594 5.78125V2.3125C24.8594 1.35628 24.0812 0.578125 23.125 0.578125H13.875C12.9188 0.578125 12.1406 1.35628 12.1406 2.3125V5.78125C12.1406 6.73747 12.9188 7.51562 13.875 7.51562H14.4531V8.67188H12.7188C11.7781 8.67188 10.9491 9.13033 10.4213 9.82812H9.92525C8.57706 9.82812 7.42023 10.7445 7.11152 12.0562L5.80033 17.6288C5.40431 19.3128 5.20312 21.0443 5.20312 22.7752C5.20312 23.9494 5.4812 25.0924 6.00441 26.1301C4.22841 26.5718 2.89062 28.2501 2.89062 30.2082V31.7032C2.89062 32.2108 2.97214 32.7126 3.13286 33.1954C3.77631 35.1251 5.57544 36.4219 7.60928 36.4219H29.3907C31.4251 36.4219 33.2237 35.1251 33.8677 33.1948C34.0279 32.7126 34.1094 32.2108 34.1094 31.7032V30.2082C34.1094 28.2501 32.7716 26.5718 30.9956 26.1301ZM13.2969 5.78125V2.3125C13.2969 1.99338 13.5559 1.73438 13.875 1.73438H23.125C23.4441 1.73438 23.7031 1.99338 23.7031 2.3125V5.78125C23.7031 6.10038 23.4441 6.35938 23.125 6.35938H13.875C13.5559 6.35938 13.2969 6.10038 13.2969 5.78125ZM15.6094 7.51562H21.3906V8.67188H15.6094V7.51562ZM6.92594 17.8935L8.23712 12.321C8.41923 11.5469 9.09448 11.0052 9.88594 10.9873C9.84836 11.1734 9.82812 11.3659 9.82812 11.5625V14.4531H10.9844V11.5625C10.9844 10.6063 11.7625 9.82812 12.7188 9.82812H24.2812C25.2375 9.82812 26.0156 10.6063 26.0156 11.5625V14.4531H27.1719V11.5625C27.1719 11.3659 27.1516 11.1734 27.1135 10.9878C27.9055 11.0058 28.5802 11.5475 28.7623 12.3222L30.0735 17.8947C30.4493 19.4921 30.64 21.1345 30.64 22.7752C30.64 23.9292 30.3232 25.0484 29.7289 26.0318C28.7976 26.1087 27.9252 26.496 27.2436 27.158C26.5643 27.8171 26.1492 28.6692 26.0434 29.5942C25.4543 29.252 24.8305 28.9733 24.1818 28.7675C23.8696 26.6972 23.7031 24.5929 23.7031 22.4989V10.9844H22.5469V22.4989C22.5469 24.4923 22.6949 26.4943 22.9712 28.4698C22.4503 28.3784 21.9213 28.3281 21.3906 28.3281H15.6094C15.0787 28.3281 14.5497 28.3784 14.0288 28.4698C14.3051 26.4943 14.4531 24.4923 14.4531 22.4989V10.9844H13.2969V22.4989C13.2969 24.5929 13.1304 26.6972 12.817 28.7675C12.1684 28.9733 11.5446 29.252 10.9555 29.5942C10.8497 28.6692 10.4346 27.8165 9.75528 27.158C9.07309 26.4966 8.21111 26.1139 7.27166 26.0341C6.67619 25.0496 6.35938 23.9298 6.35938 22.7752C6.35938 21.1339 6.55016 19.4915 6.92594 17.8935ZM32.9531 31.7032C32.9531 32.0865 32.8918 32.4658 32.771 32.8294C32.2848 34.2869 30.9262 35.2656 29.3907 35.2656H7.60928C6.07378 35.2656 4.71519 34.2869 4.22956 32.83C4.10816 32.4658 4.04688 32.0865 4.04688 31.7032V30.2082C4.04688 28.5813 5.30372 27.2199 6.84847 27.1736C7.63587 27.1476 8.38455 27.439 8.95053 27.9876C9.51652 28.5368 9.82812 29.2739 9.82812 30.0625V31.2188C9.82812 32.8126 11.1249 34.1094 12.7188 34.1094H13.875V32.9531H12.7188C11.7625 32.9531 10.9844 32.175 10.9844 31.2188V30.9436C12.3349 30.0041 13.9635 29.4844 15.6094 29.4844H21.3906C23.0365 29.4844 24.6651 30.0041 26.0156 30.9436V31.2188C26.0156 32.175 25.2375 32.9531 24.2812 32.9531H23.125V34.1094H24.2812C25.8751 34.1094 27.1719 32.8126 27.1719 31.2188V30.0625C27.1719 29.2739 27.4835 28.5368 28.05 27.9876C28.616 27.439 29.3676 27.1487 30.1521 27.1736C31.6963 27.2199 32.9531 28.5813 32.9531 30.2082V31.7032Z" fill="#767676"/>
<path d="M3.6825 41.4995C3.6825 41.4172 3.69767 41.3392 3.728 41.2655C3.75833 41.1918 3.7995 41.129 3.8515 41.077C3.90783 41.0207 3.97067 40.9773 4.04 40.947C4.11367 40.9123 4.19383 40.895 4.2805 40.895C4.36283 40.895 4.44083 40.9123 4.5145 40.947C4.58817 40.9773 4.651 41.0207 4.703 41.077C4.75933 41.129 4.80267 41.1918 4.833 41.2655C4.86767 41.3392 4.885 41.4172 4.885 41.4995C4.885 41.5862 4.86767 41.6663 4.833 41.74C4.80267 41.8093 4.75933 41.8722 4.703 41.9285C4.651 41.9805 4.58817 42.0217 4.5145 42.052C4.44083 42.0823 4.36283 42.0975 4.2805 42.0975C4.1115 42.0975 3.9685 42.0412 3.8515 41.9285C3.73883 41.8115 3.6825 41.6685 3.6825 41.4995ZM7.80695 41.4995C7.80695 41.4172 7.82212 41.3392 7.85245 41.2655C7.88279 41.1918 7.92395 41.129 7.97595 41.077C8.03229 41.0207 8.09512 40.9773 8.16445 40.947C8.23812 40.9123 8.31829 40.895 8.40495 40.895C8.48729 40.895 8.56529 40.9123 8.63895 40.947C8.71262 40.9773 8.77545 41.0207 8.82745 41.077C8.88379 41.129 8.92712 41.1918 8.95745 41.2655C8.99212 41.3392 9.00945 41.4172 9.00945 41.4995C9.00945 41.5862 8.99212 41.6663 8.95745 41.74C8.92712 41.8093 8.88379 41.8722 8.82745 41.9285C8.77545 41.9805 8.71262 42.0217 8.63895 42.052C8.56529 42.0823 8.48729 42.0975 8.40495 42.0975C8.23595 42.0975 8.09295 42.0412 7.97595 41.9285C7.86329 41.8115 7.80695 41.6685 7.80695 41.4995ZM11.9314 41.4995C11.9314 41.4172 11.9466 41.3392 11.9769 41.2655C12.0072 41.1918 12.0484 41.129 12.1004 41.077C12.1567 41.0207 12.2196 40.9773 12.2889 40.947C12.3626 40.9123 12.4427 40.895 12.5294 40.895C12.6117 40.895 12.6897 40.9123 12.7634 40.947C12.8371 40.9773 12.8999 41.0207 12.9519 41.077C13.0082 41.129 13.0516 41.1918 13.0819 41.2655C13.1166 41.3392 13.1339 41.4172 13.1339 41.4995C13.1339 41.5862 13.1166 41.6663 13.0819 41.74C13.0516 41.8093 13.0082 41.8722 12.9519 41.9285C12.8999 41.9805 12.8371 42.0217 12.7634 42.052C12.6897 42.0823 12.6117 42.0975 12.5294 42.0975C12.3604 42.0975 12.2174 42.0412 12.1004 41.9285C11.9877 41.8115 11.9314 41.6685 11.9314 41.4995ZM16.0559 41.4995C16.0559 41.4172 16.071 41.3392 16.1014 41.2655C16.1317 41.1918 16.1729 41.129 16.2249 41.077C16.2812 41.0207 16.344 40.9773 16.4134 40.947C16.487 40.9123 16.5672 40.895 16.6539 40.895C16.7362 40.895 16.8142 40.9123 16.8879 40.947C16.9615 40.9773 17.0244 41.0207 17.0764 41.077C17.1327 41.129 17.176 41.1918 17.2064 41.2655C17.241 41.3392 17.2584 41.4172 17.2584 41.4995C17.2584 41.5862 17.241 41.6663 17.2064 41.74C17.176 41.8093 17.1327 41.8722 17.0764 41.9285C17.0244 41.9805 16.9615 42.0217 16.8879 42.052C16.8142 42.0823 16.7362 42.0975 16.6539 42.0975C16.4849 42.0975 16.3419 42.0412 16.2249 41.9285C16.1122 41.8115 16.0559 41.6685 16.0559 41.4995ZM20.1803 41.4995C20.1803 41.4172 20.1955 41.3392 20.2258 41.2655C20.2561 41.1918 20.2973 41.129 20.3493 41.077C20.4056 41.0207 20.4685 40.9773 20.5378 40.947C20.6115 40.9123 20.6916 40.895 20.7783 40.895C20.8606 40.895 20.9386 40.9123 21.0123 40.947C21.086 40.9773 21.1488 41.0207 21.2008 41.077C21.2571 41.129 21.3005 41.1918 21.3308 41.2655C21.3655 41.3392 21.3828 41.4172 21.3828 41.4995C21.3828 41.5862 21.3655 41.6663 21.3308 41.74C21.3005 41.8093 21.2571 41.8722 21.2008 41.9285C21.1488 41.9805 21.086 42.0217 21.0123 42.052C20.9386 42.0823 20.8606 42.0975 20.7783 42.0975C20.6093 42.0975 20.4663 42.0412 20.3493 41.9285C20.2366 41.8115 20.1803 41.6685 20.1803 41.4995ZM24.3048 41.4995C24.3048 41.4172 24.3199 41.3392 24.3503 41.2655C24.3806 41.1918 24.4218 41.129 24.4738 41.077C24.5301 41.0207 24.5929 40.9773 24.6623 40.947C24.7359 40.9123 24.8161 40.895 24.9028 40.895C24.9851 40.895 25.0631 40.9123 25.1368 40.947C25.2104 40.9773 25.2733 41.0207 25.3253 41.077C25.3816 41.129 25.4249 41.1918 25.4553 41.2655C25.4899 41.3392 25.5073 41.4172 25.5073 41.4995C25.5073 41.5862 25.4899 41.6663 25.4553 41.74C25.4249 41.8093 25.3816 41.8722 25.3253 41.9285C25.2733 41.9805 25.2104 42.0217 25.1368 42.052C25.0631 42.0823 24.9851 42.0975 24.9028 42.0975C24.7338 42.0975 24.5908 42.0412 24.4738 41.9285C24.3611 41.8115 24.3048 41.6685 24.3048 41.4995ZM28.4292 41.4995C28.4292 41.4172 28.4444 41.3392 28.4747 41.2655C28.5051 41.1918 28.5462 41.129 28.5982 41.077C28.6546 41.0207 28.7174 40.9773 28.7867 40.947C28.8604 40.9123 28.9406 40.895 29.0272 40.895C29.1096 40.895 29.1876 40.9123 29.2612 40.947C29.3349 40.9773 29.3977 41.0207 29.4497 41.077C29.5061 41.129 29.5494 41.1918 29.5797 41.2655C29.6144 41.3392 29.6317 41.4172 29.6317 41.4995C29.6317 41.5862 29.6144 41.6663 29.5797 41.74C29.5494 41.8093 29.5061 41.8722 29.4497 41.9285C29.3977 41.9805 29.3349 42.0217 29.2612 42.052C29.1876 42.0823 29.1096 42.0975 29.0272 42.0975C28.8582 42.0975 28.7152 42.0412 28.5982 41.9285C28.4856 41.8115 28.4292 41.6685 28.4292 41.4995ZM32.5537 41.4995C32.5537 41.4172 32.5688 41.3392 32.5992 41.2655C32.6295 41.1918 32.6707 41.129 32.7227 41.077C32.779 41.0207 32.8418 40.9773 32.9112 40.947C32.9848 40.9123 33.065 40.895 33.1517 40.895C33.234 40.895 33.312 40.9123 33.3857 40.947C33.4593 40.9773 33.5222 41.0207 33.5742 41.077C33.6305 41.129 33.6738 41.1918 33.7042 41.2655C33.7388 41.3392 33.7562 41.4172 33.7562 41.4995C33.7562 41.5862 33.7388 41.6663 33.7042 41.74C33.6738 41.8093 33.6305 41.8722 33.5742 41.9285C33.5222 41.9805 33.4593 42.0217 33.3857 42.052C33.312 42.0823 33.234 42.0975 33.1517 42.0975C32.9827 42.0975 32.8397 42.0412 32.7227 41.9285C32.61 41.8115 32.5537 41.6685 32.5537 41.4995Z" fill="black" fill-opacity="0.35"/>
</svg>
