<svg width="79" height="54" viewBox="0 0 79 54" fill="none" xmlns="http://www.w3.org/2000/svg">
<path d="M71.1963 31.2056C71.0456 31.2056 70.8948 31.1479 70.78 31.033L67.1728 27.4257C66.9424 27.1955 66.9424 26.8232 67.1728 26.593C67.403 26.3627 67.7751 26.3627 68.0055 26.593L71.1963 29.7838L77.9946 22.9857C78.2248 22.7554 78.597 22.7554 78.8273 22.9857C79.0575 23.216 79.0575 23.5882 78.8273 23.8185L71.6128 31.033C71.4979 31.1479 71.3471 31.2056 71.1963 31.2056Z" fill="black"/>
<g clip-path="url(#clip0)">
<path d="M53.9989 39.1451C53.9989 35.0623 51.0816 31.5809 47.0039 30.2388C47.6474 29.4623 48.1465 28.55 48.47 27.6723C49.0228 27.3409 49.4564 26.7435 49.6291 26.0485C49.7864 25.4164 50.1346 24.0321 49.391 23.277V22.6553C49.4217 21.5882 49.5061 18.8143 47.1966 17.6155C47.1365 17.3928 47.1212 17.2176 47.1172 17.1804L46.8255 14.2145L44.699 16.2209C44.4495 16.4129 43.0345 16.7607 41.7024 16.8951L41.1561 16.9795C37.0898 17.6191 37.1552 19.9658 37.2064 21.8542C37.2139 22.0948 37.2217 22.3493 37.2217 22.6346L37.2396 23.1937C36.8303 23.6453 36.5396 24.4733 36.9171 26.0149C37.0898 26.7045 37.5338 27.2994 38.0762 27.5925C38.3268 28.2361 38.8234 29.2982 39.5963 30.2463C37.8717 30.813 36.3594 31.764 35.1861 32.9831C34.0921 32.2831 32.878 31.7268 31.5806 31.3235C32.5401 30.2335 33.2655 28.8989 33.7274 27.6308C34.4464 27.2265 35.017 26.4564 35.2476 25.549C35.451 24.7264 35.9079 22.9031 34.9226 21.9907V21.058C34.988 18.8636 34.7474 15.8248 32.0182 14.4712C31.9056 14.0912 31.8852 13.7945 31.8827 13.7612L31.5348 10.2297L28.999 12.6186C28.6969 12.8935 26.756 13.3812 24.888 13.5682L24.1573 13.6833C18.9051 14.5098 18.9845 17.4167 19.0585 20.0934C19.0674 20.3866 19.0753 20.6908 19.0753 21.0301L19.101 21.8656C18.5637 22.4054 18.1608 23.4547 18.6609 25.5018C18.8836 26.3988 19.4707 27.1678 20.1746 27.5157C20.52 28.4087 21.2418 29.9929 22.4087 31.3271C21.1113 31.725 19.9036 32.2841 18.8096 32.9813C17.6324 31.7568 16.1137 30.8076 14.3851 30.2395C15.0275 29.4602 15.5263 28.5507 15.8512 27.6705C16.409 27.3405 16.8326 26.7517 17.0117 26.0442C17.169 25.4121 17.5133 24.0303 16.7736 23.2753V22.6535C16.8044 21.5864 16.8877 18.8125 14.5782 17.6137C14.5181 17.391 14.5038 17.2158 14.5002 17.1786L14.2071 14.2127L12.0806 16.2191C11.8311 16.4111 10.4146 16.7589 9.08395 16.8934L8.53875 16.9777C4.47137 17.6173 4.53787 19.964 4.58899 21.8513C4.5965 22.0919 4.60293 22.3464 4.60293 22.6332L4.62081 23.1909C4.21146 23.6413 3.92224 24.4704 4.29977 26.012C4.47137 26.7016 4.91647 27.2965 5.45774 27.5908C5.70978 28.2318 6.20636 29.2964 6.97787 30.2417C2.91084 31.5899 0 35.0663 0 39.1437V39.7833H13.442C13.1081 40.8504 12.915 41.9673 12.915 43.1292V43.7688H41.0839V43.1292C41.0839 41.9673 40.8919 40.8504 40.5569 39.7833H54.0004V39.1447H53.9989V39.1451ZM48.9294 38.5055V36.7144C48.9294 36.3626 48.6416 36.0748 48.2899 36.0748C47.9381 36.0748 47.6503 36.3626 47.6503 36.7144V38.5055H40.0707C39.7586 37.8109 39.3736 37.1481 38.9281 36.521C38.8591 36.4212 38.7962 36.319 38.7261 36.2242C38.029 35.294 37.1896 34.4574 36.2454 33.7256C36.8403 33.1332 37.5288 32.6163 38.295 32.1965L42.8357 37.3515C42.9587 37.4884 43.1314 37.5688 43.3155 37.5688C43.5175 37.5585 43.6801 37.4895 43.8031 37.3436L48.2466 32.1501C50.7327 33.4947 52.4559 35.8185 52.6954 38.5052L48.9294 38.5055ZM39.7826 42.491H34.3002V39.8769C34.3002 39.8451 34.2873 39.8169 34.2809 39.7847C34.2347 39.4776 33.9827 39.237 33.6602 39.237C33.3402 39.237 33.0857 39.4776 33.0396 39.7847C33.0357 39.8165 33.0203 39.8447 33.0203 39.8769V42.491H20.9719V39.8769C20.9719 39.8451 20.9579 39.8169 20.9525 39.7847C20.9064 39.4776 20.6533 39.237 20.3319 39.237C20.0105 39.237 19.7563 39.4776 19.7102 39.7847C19.7063 39.8165 19.6923 39.8447 19.6923 39.8769V42.491H14.211C14.2711 41.5519 14.477 40.6499 14.7866 39.785C14.8635 39.5702 14.9414 39.3553 15.0336 39.1455H15.0529C15.0504 39.1351 15.049 39.1276 15.0465 39.1186C15.1373 38.9138 15.2335 38.7093 15.3382 38.5059C15.6146 37.9735 15.941 37.4684 16.3042 36.9847C16.9438 36.1324 17.7103 35.3648 18.583 34.6955C18.7532 34.5651 18.9183 34.4331 19.096 34.308C19.2701 34.1879 19.4542 34.0803 19.6348 33.9702C19.865 33.8282 20.0967 33.6899 20.3373 33.5633L26.5236 40.5877C26.6452 40.7246 26.8193 40.8025 27.0034 40.8025C27.0048 40.8025 27.0059 40.8025 27.0073 40.8025C27.1943 40.8025 27.3681 40.7206 27.4896 40.5798L33.544 33.5057C33.8243 33.6502 34.0942 33.805 34.3591 33.9702C34.5408 34.0803 34.7238 34.1875 34.899 34.308C35.0767 34.4335 35.2433 34.5651 35.4109 34.6955C36.2836 35.3648 37.0487 36.1324 37.6883 36.9847C38.0515 37.4723 38.3793 37.9735 38.6557 38.5059C38.7594 38.7054 38.8552 38.9102 38.9474 39.1186C38.9449 39.1315 38.9424 39.139 38.9424 39.1455H38.9617C39.0525 39.3553 39.1319 39.5702 39.2073 39.785C39.5152 40.6499 39.72 41.5519 39.7826 42.491ZM5.7012 36.0745C5.34798 36.0745 5.06162 36.3597 5.06162 36.714V38.5052H1.30241C1.53801 35.8489 3.22295 33.5447 5.66402 32.1923L10.2087 37.3472C10.3302 37.4841 10.5043 37.5646 10.6885 37.5646C10.8215 37.5542 11.0517 37.4852 11.1747 37.3393L15.6171 32.1458C16.4143 32.5784 17.1333 33.1078 17.7486 33.7195C16.8044 34.4514 15.9639 35.2894 15.2678 36.2182C15.1949 36.3129 15.1334 36.4152 15.0629 36.5149C14.6203 37.1391 14.2364 37.8044 13.9218 38.4994H6.34222V36.7083C6.34114 36.3583 6.05585 36.0745 5.7012 36.0745ZM6.44732 26.5962L6.14022 26.5039C5.92536 26.4385 5.63864 26.1214 5.53639 25.7067C5.28184 24.6628 5.4109 24.1444 5.61683 24.0074L5.91356 23.8104L5.87638 22.6153C5.87638 22.335 5.86995 22.0676 5.86244 21.818C5.80988 19.9436 5.77664 18.7088 8.73217 18.2444L9.24019 18.1625C9.2695 18.16 12.1982 17.8618 12.9429 17.1618L13.1835 16.9327L13.2182 17.2895C13.2271 17.4071 13.2682 17.8268 13.4499 18.3016L13.5457 18.5536L13.7927 18.6612C15.0454 19.2036 15.5531 20.3859 15.4855 22.6364V23.9581L15.8119 24.1436C15.8834 24.1833 16.0897 24.4161 15.7608 25.7353C15.656 26.15 15.3897 26.5004 15.0815 26.6269L14.8116 26.737L14.7194 27.0148C14.3805 28.014 13.7866 29.0941 12.9883 29.8706C12.7785 30.0754 12.5547 30.2556 12.3166 30.4079C11.8521 30.7072 11.3377 30.9006 10.7746 30.917C10.7607 30.917 10.7478 30.922 10.7349 30.922C10.7171 30.922 10.7003 30.9195 10.6813 30.9195C10.6645 30.9195 10.6506 30.922 10.6341 30.922C10.5869 30.922 10.5458 30.9016 10.4997 30.8991C9.94698 30.8645 9.44933 30.6918 9.01674 30.409C8.77757 30.2542 8.55877 30.0712 8.35392 29.8717C7.35325 28.8864 6.76872 27.4778 6.55636 26.8929L6.44732 26.5962ZM11.6419 34.8292L11.0828 32.6327L11.7556 32.0532C12.3351 31.8959 12.8635 31.6181 13.3383 31.2559C13.7044 31.3507 14.0573 31.4683 14.403 31.6013L11.6419 34.8292ZM9.47185 32.0285L10.1769 32.6338L9.63559 34.7628L6.87955 31.6345C7.24564 31.4926 7.62031 31.3621 8.01071 31.2624C8.4408 31.5938 8.92558 31.8612 9.47185 32.0285ZM21.1613 26.5143L20.8542 26.4221C20.5114 26.3173 20.0598 25.8565 19.8972 25.2001C19.5797 23.9027 19.6541 22.9878 20.0967 22.6961L20.3923 22.5002L20.3487 21.0133C20.3487 20.6805 20.3398 20.3633 20.3294 19.9515C20.259 17.4246 20.2079 15.6052 24.3521 14.9524L25.0467 14.8423C25.085 14.8359 28.9429 14.433 29.8717 13.5539L30.5166 12.9486L30.6049 13.8685C30.6139 13.9732 30.66 14.5324 30.9017 15.1673L30.9975 15.4179L31.2431 15.5255C33.4682 16.4876 33.7035 18.8457 33.6384 21.0426V22.6868L33.9659 22.8738C34.3291 23.0786 34.3434 23.8755 33.9991 25.2448C33.8429 25.8629 33.4361 26.3913 32.9602 26.5869L32.6903 26.697L32.5981 26.9748C32.1258 28.3758 31.2803 29.8931 30.1416 30.9653C29.9368 31.1573 29.7244 31.3324 29.4992 31.4923C29.2049 31.7021 28.89 31.8748 28.565 32.0117C28.1746 32.1744 27.7677 32.2791 27.3366 32.3163C27.219 32.3267 27.1103 32.361 26.9898 32.361C26.8196 32.361 26.6559 32.3406 26.4932 32.3238C26.0939 32.2738 25.7178 32.169 25.3646 32.0192C25.0382 31.8798 24.7339 31.7018 24.4472 31.4973C24.2234 31.3346 24.0071 31.1619 23.8076 30.9728C22.3822 29.6153 21.561 27.6372 21.2654 26.8221L21.1613 26.5143ZM28.3441 37.6135L27.5304 34.4149L28.6626 33.445L28.5872 33.3795C29.2843 33.1568 29.9242 32.8 30.5038 32.3446C31.1358 32.5019 31.7461 32.7067 32.336 32.9473L28.3441 37.6135ZM25.2952 33.3502L25.1865 33.445L26.3163 34.4149L25.528 37.5213L21.5414 32.9959C22.1606 32.7414 22.803 32.5212 23.4733 32.3485C24.0118 32.7757 24.6195 33.125 25.2952 33.3502ZM39.074 26.5962L38.7669 26.5039C38.5506 26.436 38.2642 26.1214 38.1616 25.7067C37.9071 24.6628 38.0361 24.1444 38.241 24.0074L38.5377 23.8104L38.5005 22.6153C38.5005 22.335 38.4941 22.0676 38.4866 21.8155C38.4355 19.9436 38.4033 18.7091 41.3563 18.2444L41.8654 18.1625C41.8922 18.16 44.8209 17.8618 45.5656 17.1618L45.8062 16.9327L45.8409 17.2895C45.8499 17.4071 45.891 17.8243 46.0712 18.3016L46.167 18.5536L46.4151 18.6612C47.6678 19.2036 48.1755 20.3859 48.1065 22.6364V23.9581L48.4339 24.1436C48.5054 24.1833 48.7128 24.4161 48.3814 25.7353C48.2766 26.15 48.0117 26.5004 47.7032 26.6269L47.4333 26.737L47.341 27.0148C47.0021 28.014 46.4083 29.0941 45.61 29.8706C45.4001 30.0754 45.1749 30.2556 44.9382 30.4079C44.4738 30.7072 43.9583 30.9006 43.3963 30.917L43.4038 30.9245C43.3884 30.9245 43.3745 30.922 43.3591 30.922C43.3387 30.922 43.3233 30.9195 43.304 30.9195C43.2872 30.9195 43.2733 30.922 43.2568 30.922C43.2097 30.922 43.1685 30.9016 43.1224 30.8991C42.5697 30.8645 42.0731 30.6918 41.6384 30.409C41.4003 30.2542 41.1815 30.0712 40.977 29.8717C39.9753 28.8864 39.3918 27.4778 39.1794 26.8929L39.074 26.5962ZM44.2657 34.8292L43.7066 32.6324L44.3794 32.0528C44.9589 31.893 45.4863 31.6177 45.9635 31.2556C46.3268 31.3503 46.6825 31.4679 47.0253 31.6009L44.2657 34.8292ZM42.0985 32.0285L42.8021 32.6338L42.2608 34.7628L39.5048 31.6345C39.8709 31.4926 40.2455 31.3621 40.6359 31.2624C41.0646 31.5938 41.5522 31.8637 42.0985 32.0285Z" fill="#767676"/>
</g>
<path d="M0.6825 48.4995C0.6825 48.4172 0.697667 48.3392 0.728 48.2655C0.758333 48.1918 0.7995 48.129 0.8515 48.077C0.907833 48.0207 0.970667 47.9773 1.04 47.947C1.11367 47.9123 1.19383 47.895 1.2805 47.895C1.36283 47.895 1.44083 47.9123 1.5145 47.947C1.58817 47.9773 1.651 48.0207 1.703 48.077C1.75933 48.129 1.80267 48.1918 1.833 48.2655C1.86767 48.3392 1.885 48.4172 1.885 48.4995C1.885 48.5862 1.86767 48.6663 1.833 48.74C1.80267 48.8093 1.75933 48.8722 1.703 48.9285C1.651 48.9805 1.58817 49.0217 1.5145 49.052C1.44083 49.0823 1.36283 49.0975 1.2805 49.0975C1.1115 49.0975 0.9685 49.0412 0.8515 48.9285C0.738833 48.8115 0.6825 48.6685 0.6825 48.4995ZM4.80695 48.4995C4.80695 48.4172 4.82212 48.3392 4.85245 48.2655C4.88279 48.1918 4.92395 48.129 4.97595 48.077C5.03229 48.0207 5.09512 47.9773 5.16445 47.947C5.23812 47.9123 5.31829 47.895 5.40495 47.895C5.48729 47.895 5.56529 47.9123 5.63895 47.947C5.71262 47.9773 5.77545 48.0207 5.82745 48.077C5.88379 48.129 5.92712 48.1918 5.95745 48.2655C5.99212 48.3392 6.00945 48.4172 6.00945 48.4995C6.00945 48.5862 5.99212 48.6663 5.95745 48.74C5.92712 48.8093 5.88379 48.8722 5.82745 48.9285C5.77545 48.9805 5.71262 49.0217 5.63895 49.052C5.56529 49.0823 5.48729 49.0975 5.40495 49.0975C5.23595 49.0975 5.09295 49.0412 4.97595 48.9285C4.86329 48.8115 4.80695 48.6685 4.80695 48.4995ZM8.93141 48.4995C8.93141 48.4172 8.94657 48.3392 8.97691 48.2655C9.00724 48.1918 9.04841 48.129 9.10041 48.077C9.15674 48.0207 9.21957 47.9773 9.28891 47.947C9.36257 47.9123 9.44274 47.895 9.52941 47.895C9.61174 47.895 9.68974 47.9123 9.76341 47.947C9.83707 47.9773 9.89991 48.0207 9.95191 48.077C10.0082 48.129 10.0516 48.1918 10.0819 48.2655C10.1166 48.3392 10.1339 48.4172 10.1339 48.4995C10.1339 48.5862 10.1166 48.6663 10.0819 48.74C10.0516 48.8093 10.0082 48.8722 9.95191 48.9285C9.89991 48.9805 9.83707 49.0217 9.76341 49.052C9.68974 49.0823 9.61174 49.0975 9.52941 49.0975C9.36041 49.0975 9.21741 49.0412 9.10041 48.9285C8.98774 48.8115 8.93141 48.6685 8.93141 48.4995ZM13.0559 48.4995C13.0559 48.4172 13.071 48.3392 13.1014 48.2655C13.1317 48.1918 13.1729 48.129 13.2249 48.077C13.2812 48.0207 13.344 47.9773 13.4134 47.947C13.487 47.9123 13.5672 47.895 13.6539 47.895C13.7362 47.895 13.8142 47.9123 13.8879 47.947C13.9615 47.9773 14.0244 48.0207 14.0764 48.077C14.1327 48.129 14.176 48.1918 14.2064 48.2655C14.241 48.3392 14.2584 48.4172 14.2584 48.4995C14.2584 48.5862 14.241 48.6663 14.2064 48.74C14.176 48.8093 14.1327 48.8722 14.0764 48.9285C14.0244 48.9805 13.9615 49.0217 13.8879 49.052C13.8142 49.0823 13.7362 49.0975 13.6539 49.0975C13.4849 49.0975 13.3419 49.0412 13.2249 48.9285C13.1122 48.8115 13.0559 48.6685 13.0559 48.4995ZM17.1803 48.4995C17.1803 48.4172 17.1955 48.3392 17.2258 48.2655C17.2561 48.1918 17.2973 48.129 17.3493 48.077C17.4056 48.0207 17.4685 47.9773 17.5378 47.947C17.6115 47.9123 17.6916 47.895 17.7783 47.895C17.8606 47.895 17.9386 47.9123 18.0123 47.947C18.086 47.9773 18.1488 48.0207 18.2008 48.077C18.2571 48.129 18.3005 48.1918 18.3308 48.2655C18.3655 48.3392 18.3828 48.4172 18.3828 48.4995C18.3828 48.5862 18.3655 48.6663 18.3308 48.74C18.3005 48.8093 18.2571 48.8722 18.2008 48.9285C18.1488 48.9805 18.086 49.0217 18.0123 49.052C17.9386 49.0823 17.8606 49.0975 17.7783 49.0975C17.6093 49.0975 17.4663 49.0412 17.3493 48.9285C17.2366 48.8115 17.1803 48.6685 17.1803 48.4995ZM21.3048 48.4995C21.3048 48.4172 21.3199 48.3392 21.3503 48.2655C21.3806 48.1918 21.4218 48.129 21.4738 48.077C21.5301 48.0207 21.5929 47.9773 21.6623 47.947C21.7359 47.9123 21.8161 47.895 21.9028 47.895C21.9851 47.895 22.0631 47.9123 22.1368 47.947C22.2104 47.9773 22.2733 48.0207 22.3253 48.077C22.3816 48.129 22.4249 48.1918 22.4553 48.2655C22.4899 48.3392 22.5073 48.4172 22.5073 48.4995C22.5073 48.5862 22.4899 48.6663 22.4553 48.74C22.4249 48.8093 22.3816 48.8722 22.3253 48.9285C22.2733 48.9805 22.2104 49.0217 22.1368 49.052C22.0631 49.0823 21.9851 49.0975 21.9028 49.0975C21.7338 49.0975 21.5908 49.0412 21.4738 48.9285C21.3611 48.8115 21.3048 48.6685 21.3048 48.4995ZM25.4292 48.4995C25.4292 48.4172 25.4444 48.3392 25.4747 48.2655C25.5051 48.1918 25.5462 48.129 25.5982 48.077C25.6546 48.0207 25.7174 47.9773 25.7867 47.947C25.8604 47.9123 25.9406 47.895 26.0272 47.895C26.1096 47.895 26.1876 47.9123 26.2612 47.947C26.3349 47.9773 26.3977 48.0207 26.4497 48.077C26.5061 48.129 26.5494 48.1918 26.5797 48.2655C26.6144 48.3392 26.6317 48.4172 26.6317 48.4995C26.6317 48.5862 26.6144 48.6663 26.5797 48.74C26.5494 48.8093 26.5061 48.8722 26.4497 48.9285C26.3977 48.9805 26.3349 49.0217 26.2612 49.052C26.1876 49.0823 26.1096 49.0975 26.0272 49.0975C25.8582 49.0975 25.7152 49.0412 25.5982 48.9285C25.4856 48.8115 25.4292 48.6685 25.4292 48.4995ZM29.5537 48.4995C29.5537 48.4172 29.5688 48.3392 29.5992 48.2655C29.6295 48.1918 29.6707 48.129 29.7227 48.077C29.779 48.0207 29.8418 47.9773 29.9112 47.947C29.9848 47.9123 30.065 47.895 30.1517 47.895C30.234 47.895 30.312 47.9123 30.3857 47.947C30.4593 47.9773 30.5222 48.0207 30.5742 48.077C30.6305 48.129 30.6738 48.1918 30.7042 48.2655C30.7388 48.3392 30.7562 48.4172 30.7562 48.4995C30.7562 48.5862 30.7388 48.6663 30.7042 48.74C30.6738 48.8093 30.6305 48.8722 30.5742 48.9285C30.5222 48.9805 30.4593 49.0217 30.3857 49.052C30.312 49.0823 30.234 49.0975 30.1517 49.0975C29.9827 49.0975 29.8397 49.0412 29.7227 48.9285C29.61 48.8115 29.5537 48.6685 29.5537 48.4995ZM33.6781 48.4995C33.6781 48.4172 33.6933 48.3392 33.7236 48.2655C33.754 48.1918 33.7951 48.129 33.8471 48.077C33.9035 48.0207 33.9663 47.9773 34.0356 47.947C34.1093 47.9123 34.1895 47.895 34.2761 47.895C34.3585 47.895 34.4365 47.9123 34.5101 47.947C34.5838 47.9773 34.6466 48.0207 34.6986 48.077C34.755 48.129 34.7983 48.1918 34.8286 48.2655C34.8633 48.3392 34.8806 48.4172 34.8806 48.4995C34.8806 48.5862 34.8633 48.6663 34.8286 48.74C34.7983 48.8093 34.755 48.8722 34.6986 48.9285C34.6466 48.9805 34.5838 49.0217 34.5101 49.052C34.4365 49.0823 34.3585 49.0975 34.2761 49.0975C34.1071 49.0975 33.9641 49.0412 33.8471 48.9285C33.7345 48.8115 33.6781 48.6685 33.6781 48.4995ZM37.8026 48.4995C37.8026 48.4172 37.8177 48.3392 37.8481 48.2655C37.8784 48.1918 37.9196 48.129 37.9716 48.077C38.0279 48.0207 38.0907 47.9773 38.1601 47.947C38.2337 47.9123 38.3139 47.895 38.4006 47.895C38.4829 47.895 38.5609 47.9123 38.6346 47.947C38.7082 47.9773 38.7711 48.0207 38.8231 48.077C38.8794 48.129 38.9227 48.1918 38.9531 48.2655C38.9877 48.3392 39.0051 48.4172 39.0051 48.4995C39.0051 48.5862 38.9877 48.6663 38.9531 48.74C38.9227 48.8093 38.8794 48.8722 38.8231 48.9285C38.7711 48.9805 38.7082 49.0217 38.6346 49.052C38.5609 49.0823 38.4829 49.0975 38.4006 49.0975C38.2316 49.0975 38.0886 49.0412 37.9716 48.9285C37.8589 48.8115 37.8026 48.6685 37.8026 48.4995ZM41.927 48.4995C41.927 48.4172 41.9422 48.3392 41.9725 48.2655C42.0029 48.1918 42.044 48.129 42.096 48.077C42.1524 48.0207 42.2152 47.9773 42.2845 47.947C42.3582 47.9123 42.4384 47.895 42.525 47.895C42.6074 47.895 42.6854 47.9123 42.759 47.947C42.8327 47.9773 42.8955 48.0207 42.9475 48.077C43.0039 48.129 43.0472 48.1918 43.0775 48.2655C43.1122 48.3392 43.1295 48.4172 43.1295 48.4995C43.1295 48.5862 43.1122 48.6663 43.0775 48.74C43.0472 48.8093 43.0039 48.8722 42.9475 48.9285C42.8955 48.9805 42.8327 49.0217 42.759 49.052C42.6854 49.0823 42.6074 49.0975 42.525 49.0975C42.356 49.0975 42.213 49.0412 42.096 48.9285C41.9834 48.8115 41.927 48.6685 41.927 48.4995ZM46.0515 48.4995C46.0515 48.4172 46.0667 48.3392 46.097 48.2655C46.1273 48.1918 46.1685 48.129 46.2205 48.077C46.2768 48.0207 46.3397 47.9773 46.409 47.947C46.4827 47.9123 46.5628 47.895 46.6495 47.895C46.7318 47.895 46.8098 47.9123 46.8835 47.947C46.9572 47.9773 47.02 48.0207 47.072 48.077C47.1283 48.129 47.1717 48.1918 47.202 48.2655C47.2367 48.3392 47.254 48.4172 47.254 48.4995C47.254 48.5862 47.2367 48.6663 47.202 48.74C47.1717 48.8093 47.1283 48.8722 47.072 48.9285C47.02 48.9805 46.9572 49.0217 46.8835 49.052C46.8098 49.0823 46.7318 49.0975 46.6495 49.0975C46.4805 49.0975 46.3375 49.0412 46.2205 48.9285C46.1078 48.8115 46.0515 48.6685 46.0515 48.4995ZM50.1759 48.4995C50.1759 48.4172 50.1911 48.3392 50.2214 48.2655C50.2518 48.1918 50.2929 48.129 50.3449 48.077C50.4013 48.0207 50.4641 47.9773 50.5334 47.947C50.6071 47.9123 50.6873 47.895 50.7739 47.895C50.8563 47.895 50.9343 47.9123 51.0079 47.947C51.0816 47.9773 51.1444 48.0207 51.1964 48.077C51.2528 48.129 51.2961 48.1918 51.3264 48.2655C51.3611 48.3392 51.3784 48.4172 51.3784 48.4995C51.3784 48.5862 51.3611 48.6663 51.3264 48.74C51.2961 48.8093 51.2528 48.8722 51.1964 48.9285C51.1444 48.9805 51.0816 49.0217 51.0079 49.052C50.9343 49.0823 50.8563 49.0975 50.7739 49.0975C50.6049 49.0975 50.4619 49.0412 50.3449 48.9285C50.2323 48.8115 50.1759 48.6685 50.1759 48.4995Z" fill="black" fill-opacity="0.35"/>
<defs>
<clipPath id="clip0">
<rect width="54" height="54" fill="white"/>
</clipPath>
</defs>
</svg>
